<?xml version="1.0" standalone="no"?>
<!DOCTYPE svg PUBLIC "-//W3C//DTD SVG 1.1//EN" "http://www.w3.org/Graphics/SVG/1.1/DTD/svg11.dtd" >
<svg xmlns="http://www.w3.org/2000/svg" xmlns:xlink="http://www.w3.org/1999/xlink" version="1.1">
<metadata></metadata>
<defs>
<font id="wagosymbol_1regular" horiz-adv-x="694" >
<font-face units-per-em="2048" ascent="1536" descent="-512" />
<missing-glyph horiz-adv-x="1024" />
<glyph horiz-adv-x="0" />
<glyph horiz-adv-x="0" />
<glyph horiz-adv-x="682" />
<glyph unicode="&#xd;" horiz-adv-x="1024" />
<glyph unicode=" "  horiz-adv-x="1024" />
<glyph unicode="&#x09;" horiz-adv-x="1024" />
<glyph unicode="&#xa0;" horiz-adv-x="1024" />
<glyph unicode="!" horiz-adv-x="4820" d="M0 -76l145 645h4633l-18 -61h61l-145 -627h-4604l10 43h-82zM25 -57h4184l145 608h-4194zM207 213q0 94 69 162.5t164 68.5q74 0 125 -38v-68q-27 34 -57.5 45.5t-77.5 11.5q-73 0 -123.5 -51.5t-50.5 -130.5q0 -72 51 -123t123 -51q46 0 76.5 12t58.5 45v-67 q-52 -39 -135 -39q-89 0 -156 65.5t-67 157.5zM614 0l203 463l203 -463h-59l-48 125h-192l-49 -125h-58zM739 164h154l-76 184zM1028 213q0 100 68.5 165.5t165.5 65.5q127 0 192 -96l-39 -29q-35 43 -68.5 59.5t-84.5 16.5q-74 0 -124.5 -51.5t-50.5 -130.5q0 -72 51 -123 t124 -51q68 0 110.5 37.5t42.5 97.5h-125v49h185v-20q-2 -91 -62.5 -152t-150.5 -61q-96 0 -165 65t-69 158zM1561 0v434h231v-39h-182v-135h174v-47h-174v-174h182v-39h-231zM2023 213q0 94 69.5 162.5t164.5 68.5q74 0 125 -38v-68q-27 34 -55.5 45.5t-69.5 11.5 q-80 0 -132 -51.5t-52 -130.5q0 -73 52.5 -123.5t131.5 -50.5q40 0 68.5 12t56.5 45v-67q-52 -39 -125 -39q-96 0 -165 65t-69 158zM2478 0v434h49v-395h125v-39h-174zM2691 0l203 463l194 -463h-49l-57 125h-184l-58 -125h-49zM2816 164h145l-67 184zM3135 0l78 463 l164 -375l174 375l68 -463h-47l-39 299l-156 -317l-143 317l-49 -299h-50zM3725 0v434h105q56 0 91.5 -28t35.5 -87q0 -126 -135 -126h-48v-193h-49zM3774 231h37q52 0 75.5 21.5t23.5 66.5q0 76 -99 76h-37v-164zM4045 416q0 49 35.5 81.5t81.5 32.5q51 0 82.5 -31.5 t31.5 -82.5q0 -45 -32.5 -81t-81.5 -36q-44 0 -80.5 37t-36.5 80zM4063 416q0 -37 31 -67t68 -30q41 0 68.5 29.5t27.5 67.5q0 43 -26.5 69.5t-69.5 26.5q-40 0 -69.5 -29t-29.5 -67zM4131 348v135h26q15 0 28 -12.5t13 -26.5q0 -24 -28 -38l39 -58h-19l-39 47v-47h-20z M4151 426h11q6 0 12 5.5t6 12.5q0 8 -8 13.5t-21 5.5v-37zM4334 49l2 -49q5 0 15.5 -1t16.5 -1q48 0 92.5 13.5t77.5 46.5t33 79q0 42 -57 99q-16 17 -23 25.5t-14.5 23t-7.5 28.5q0 20 11.5 34.5t25 21.5t39.5 11.5t39 5t40 1.5v47q-8 2 -26 2q-38 0 -80.5 -10.5 t-79.5 -38.5t-37 -68q0 -50 60 -116q4 -5 13.5 -15t12 -14t7.5 -12.5t6.5 -18t1.5 -22.5q0 -72 -168 -72z" />
<glyph unicode="&#x22;" horiz-adv-x="4317" d="M0 -66l156 633h4130l-14 -65h45l-135 -611h-4098l10 43h-94zM33 -47h4098l133 596h-4094zM217 217q0 92 67.5 159.5t159.5 67.5q73 0 123 -47v-57q-60 57 -133 57q-70 0 -120 -54.5t-50 -125.5t50 -125.5t120 -54.5q73 0 133 57v-57q-63 -47 -133 -47q-86 0 -151.5 68 t-65.5 159zM614 0l199 455l199 -455h-58l-47 123h-188l-47 -123h-58zM737 170h152l-76 170zM1020 217q0 92 67.5 159.5t159.5 67.5q54 0 108 -26.5t83 -67.5l-39 -39q-38 46 -71 66t-81 20q-70 0 -120 -54.5t-50 -125.5t50 -125.5t120 -54.5q64 0 108 41.5t44 101.5h-123v37 h180v-10q-2 -91 -61 -154t-148 -63q-92 0 -159.5 67.5t-67.5 159.5zM1540 0v434h227v-47h-180v-123h172v-47h-172v-170h180v-47h-227zM1995 217q0 92 67.5 159.5t159.5 67.5q73 0 123 -47v-57q-60 57 -123 57q-76 0 -128 -54t-52 -126t52 -126t128 -54q63 0 123 57v-57 q-63 -47 -123 -47q-92 0 -159.5 67.5t-67.5 159.5zM2439 0v434h47v-387h123v-47h-170zM2646 0l201 455l188 -455h-47l-57 123h-181l-57 -123h-47zM2771 170h141l-65 170zM3082 0l76 463l160 -369l170 369l67 -463h-47l-39 303l-151 -321l-142 321l-47 -303h-47zM3658 0v434 h76q73 0 112 -28t39 -95q0 -52 -40 -87.5t-91 -35.5h-47v-188h-49zM3707 236h37q94 0 94 75q0 45 -24 60.5t-70 15.5h-37v-151zM3971 416q0 43 35 78.5t78 35.5q49 0 81.5 -34.5t32.5 -79.5q0 -50 -31.5 -81.5t-82.5 -31.5q-44 0 -78.5 32.5t-34.5 80.5zM3990 416 q0 -41 28.5 -67.5t65.5 -26.5q43 0 69.5 25.5t26.5 68.5q0 37 -27.5 65.5t-68.5 28.5q-32 0 -63 -30t-31 -64zM4057 350v131h19q8 0 15 -2t10 -4l3 -2q1 -2 7.5 -9t9 -11t2.5 -9q0 -14 -8 -25t-21 -11l37 -58h-19l-36 47v-47h-19zM4076 426h8q20 0 20 18q0 7 -6 13t-14 6h-8 v-37z" />
<glyph unicode="#" horiz-adv-x="6526" d="M0 -76l145 633h6351l-14 -65h45l-135 -611h-6318l8 43h-82zM23 -57h6320l131 596h-6314zM223 0v434h86q79 0 105 -26q37 -26 37 -97q0 -57 -36 -90t-96 -33h-47v-188h-49zM272 236h47q41 0 62.5 19.5t21.5 55.5q0 40 -18 58q-12 12 -27.5 15t-48.5 3h-37v-151zM500 217 q0 92 66.5 159.5t158.5 67.5t159.5 -67.5t67.5 -159.5t-67.5 -159.5t-159.5 -67.5q-94 0 -170 76q-55 70 -55 151zM545 217q0 -73 57 -133q68 -47 123 -47q71 0 125.5 54.5t54.5 125.5q0 76 -54 128t-126 52t-126 -52t-54 -128zM981 434h47l113 -321l143 342l123 -342 l131 321h47l-178 -452l-123 348l-143 -348zM1653 0v434h225v-47h-178v-123h170v-47h-170v-170h178v-47h-225zM1964 0v434h66q72 0 104 -18q28 -21 37.5 -44t9.5 -61q0 -51 -27 -81.5t-75 -30.5l131 -199h-58l-131 188h-10v-188h-47zM2011 236h29q94 0 94 75q0 47 -22.5 61.5 t-71.5 14.5h-29v-151zM2427 217q0 92 67.5 159.5t159.5 67.5q73 0 133 -47v-57q-72 57 -133 57q-70 0 -125 -54.5t-55 -125.5t55 -125.5t125 -54.5q61 0 133 57v-57q-76 -47 -133 -47q-92 0 -159.5 67.5t-67.5 159.5zM2824 0l199 455l199 -455h-56l-49 123h-188l-47 -123 h-58zM2957 170h142l-76 170zM3240 217q0 92 67.5 159.5t159.5 67.5q52 0 102 -26.5t78 -67.5l-38 -39q-56 86 -142 86q-76 0 -127 -54t-51 -126t49.5 -126t120.5 -54q68 0 102.5 36t57.5 107h-133v37h180v-10q2 -6 2 -23q0 -81 -62.5 -137.5t-146.5 -56.5q-92 0 -155.5 67 t-63.5 160zM3752 0v434h225v-47h-170v-123h170v-47h-170v-170h170v-47h-225zM4205 209q0 92 67.5 158.5t159.5 66.5q76 0 123 -47v-55q-58 55 -123 55q-76 0 -128 -53t-52 -125q0 -73 51.5 -126.5t128.5 -53.5q66 0 123 57v-57q-63 -47 -123 -47q-92 0 -159.5 67.5 t-67.5 159.5zM4649 -10v436h47v-387h123v-49h-170zM4856 -10l201 454l188 -454h-47l-58 123h-180l-55 -123h-49zM4981 162h141l-65 170zM5292 -10l76 465l160 -369l170 369l67 -465h-47l-39 303l-151 -322l-142 322l-47 -303h-47zM5870 -10v436h73q154 0 154 -123 q0 -52 -40.5 -87.5t-92.5 -35.5h-47v-190h-47zM5917 227h37q94 0 94 76q0 45 -24 60.5t-70 15.5h-37v-152zM6181 408q0 41 36 76.5t77 35.5q49 0 81.5 -34.5t32.5 -77.5q0 -51 -31.5 -83t-82.5 -32q-43 0 -78 33t-35 82zM6199 408q0 -41 29 -69t66 -28q43 0 69.5 27t26.5 70 q0 37 -27.5 65.5t-68.5 28.5q-32 0 -63.5 -30t-31.5 -64zM6267 340v133h18q8 0 15.5 -2.5t10.5 -4.5l3 -3q18 -18 18 -29q0 -15 -7.5 -26t-20.5 -11l39 -57h-21l-37 47v-47h-18zM6285 416h9q20 0 20 18q0 8 -6.5 14.5t-13.5 6.5h-9v-39z" />
<glyph unicode="$" horiz-adv-x="3616" d="M0 -66l135 633h3449l-12 -67h45l-137 -609h-3408l10 43h-82zM23 -47h3407l134 596h-3414zM178 0v434h86q142 0 142 -123q0 -57 -36.5 -90t-97.5 -33h-47v-188h-47zM225 236h47q86 0 86 75q0 45 -24 60.5t-70 15.5h-39v-151zM481 160v274h47v-264q0 -64 9 -86 q35 -47 96 -47q28 0 54 13.5t40 33.5q8 20 8 86v264h47v-274q0 -31 -0.5 -43.5t-6.5 -29.5t-19 -30q-42 -57 -123 -57q-84 0 -123 57q-29 39 -29 103zM879 104l47 19q0 -32 26.5 -59t57.5 -27q36 0 61 25t25 61q0 20 -6 35t-20.5 26t-25 16.5t-33 14t-30.5 12.5 q-43 21 -63.5 45t-20.5 58q0 50 36 82t87 32q76 0 113 -67l-37 -27q-21 27 -37.5 37t-38.5 10q-30 0 -53 -19.5t-23 -47.5q0 -31 29 -47l76 -37q94 -46 94 -115q0 -56 -38 -93.5t-95 -37.5q-103 0 -131 104zM1237 0v434h47v-170h217v170h58v-434h-58v217h-217v-217h-47z M1776 434h57l113 -321l133 350l133 -350l123 321h57l-180 -452l-133 348l-133 -348zM2447 0v434h47v-434h-47zM2609 0v434h76q29 0 42.5 -0.5t30 -4.5t29.5 -13q47 -29 47 -105q0 -49 -31 -80.5t-81 -31.5l141 -199h-55l-133 188h-19v-188h-47zM2656 236h37q43 0 68.5 20 t25.5 55q0 44 -25 60t-69 16h-37v-151zM2939 0v434h227v-47h-180v-123h170v-47h-170v-170h180v-47h-227zM3271 416q0 50 31.5 81t80.5 31q42 0 73.5 -34.5t31.5 -77.5q0 -49 -30.5 -81t-74.5 -32q-49 0 -80.5 31.5t-31.5 81.5zM3289 416q0 -43 25.5 -68.5t68.5 -25.5 q36 0 61 26t25 68q0 36 -25.5 65t-60.5 29q-44 0 -69 -25.5t-25 -68.5zM3355 350v131h20q37 -3 37 -37q0 -15 -8 -26.5t-21 -11.5l39 -56h-20l-27 47v-47h-20zM3375 426q13 0 16 3.5t3 14.5q0 19 -19 19v-37z" />
<glyph unicode="%" horiz-adv-x="3414" d="M0 -76l141 633h3242l-14 -65h45l-135 -611h-3199l10 43h-90zM23 -57h3205l133 596h-3205zM231 0v434h199v-47h-151v-131h151v-39h-151v-217h-48zM514 0v434h47v-434h-47zM629 387v47h254v-47h-103v-387h-47v387h-104zM1092 209q0 92 67.5 158.5t159.5 66.5q76 0 123 -47 v-55q-58 55 -123 55q-76 0 -128 -53t-52 -125q0 -73 51.5 -126.5t128.5 -53.5q66 0 123 57v-57q-63 -47 -123 -47q-92 0 -159.5 67.5t-67.5 159.5zM1536 -10v436h47v-387h123v-49h-170zM1743 -10l201 454l188 -454h-47l-57 123h-181l-57 -123h-47zM1868 162h141l-65 170z M2179 -10l76 465l160 -369l170 369l67 -465h-47l-39 303l-151 -322l-142 322l-47 -303h-47zM2755 -10v436h75q152 0 152 -123q0 -52 -40 -87.5t-91 -35.5h-47v-190h-49zM2804 227h37q94 0 94 76q0 45 -24 60.5t-70 15.5h-37v-152zM3068 408q0 42 35 77t78 35 q49 0 81.5 -34.5t32.5 -77.5q0 -51 -31.5 -83t-82.5 -32q-44 0 -78.5 33t-34.5 82zM3086 408q0 -41 29 -69t66 -28q43 0 69.5 27t26.5 70q0 37 -27.5 65.5t-68.5 28.5q-32 0 -63.5 -30t-31.5 -64zM3154 340v133h18q8 0 15 -2.5t11 -4.5l3 -3q18 -18 18 -29q0 -15 -7.5 -26 t-20.5 -11l37 -57h-19l-37 47v-47h-18zM3172 416h9q20 0 20 18q0 8 -6.5 14.5t-13.5 6.5h-9v-39z" />
<glyph unicode="&#x26;" horiz-adv-x="1329" d="M102 725q0 158 44 302.5t119 249.5t179.5 167.5t219.5 62.5q154 0 283.5 -105.5t204.5 -285.5t75 -391t-75 -391t-204.5 -285.5t-283.5 -105.5q-115 0 -219.5 62.5t-179.5 167.5t-119 249.5t-44 302.5zM125 725q0 -207 73 -382.5t197 -276.5t269 -101t269.5 101 t197.5 276.5t73 382.5t-73 382.5t-197.5 276.5t-269.5 101t-269 -101t-197 -276.5t-73 -382.5zM164 956l16 31l2 -6l70 66l20 -27q23 18 105 90v27l4 4l49 39q10 3 19 -6l165 143l13 -14l-86 -74q38 0 49 -3t24 -16q6 -7 15.5 -27.5t13.5 -23.5q28 -31 49 -31q8 0 24.5 3.5 t24.5 3.5q67 0 97 -74q4 -15 30 -66q6 -11 23.5 -44t28.5 -56t20 -47q1 -2 8.5 -12.5t13.5 -20t11.5 -22.5t5.5 -23q0 -21 -30 -55.5t-50 -34.5q-15 0 -27 14t-12 37q0 24 15.5 52.5t15.5 33.5q0 15 -33.5 51t-36.5 41q-7 -12 -20 -75q16 -40 16 -72q0 -18 -16.5 -71 t-16.5 -60l4 -10q5 -2 7 0l26 12q35 33 45 33q13 0 19 -17v-10q8 -19 -8 -35q-1 -1 -4.5 -4t-4.5 -4q-3 -29 -18 -68q20 8 26 7t15 -11q20 -16 16 -20q-5 -2 -12.5 -8t-7.5 -9q-24 -5 -31 -10q5 -14 0 -31v-69q47 -69 53 -80q45 -32 45 -72q0 -23 -6 -35q-2 -4 -2 0t1 12 t1 13q0 29 -27.5 59.5t-80.5 38.5q-13 -28 10 -28q-10 -10 -15.5 -19t-6 -14t2.5 -8q-14 -11 -17 -18t1 -15q-22 -3 -31.5 -7.5t-15.5 -17.5q-16 16 -16 4q13 -17 0 -38l12 -7q13 13 24 13q0 -21 -5 -35t-10.5 -20t-16.5 -13q-11 16 -11 29l-20 10v-31q0 -34 -39 -73 q-17 15 -30 36.5t-13 36.5v31l-25 -14q0 -14 -8 -25q-44 35 -32 64q14 -3 26 -15l17 11q-22 18 -9 28q0 10 -10.5 10t-21.5 -8q-1 8 -2.5 11.5t-8 8t-18.5 -0.5q6 15 -2 23t-31 9q14 23 -12 37q11 5 11.5 13.5t-7.5 14t-18 1.5q-89 -49 -89 -121q0 -10 7 -24q0 -10 -4 -2 q-11 22 -11 28q0 45 19 74.5t61 56.5l-2 6q-9 24 -6.5 39t25.5 29q-10 17 -23 78v16q-21 0 -27 15q-12 8 -12 18q0 9 23 29q5 4 12.5 8t12.5 6l5 2q-14 35 -16 49q-6 35 18 65.5t103 78.5l12 6q10 45 10 82q0 15 -4 27.5t-8 18.5l-4 5q-10 29 -16 35q-5 6 -12 11t-11 7l-4 2 q-67 -18 -121 -16q-8 0 -12 4q-5 12 -12 42.5t-7 37.5q0 38 7 61q0 2 -1 3.5t-2 4.5l-16 17q-28 -25 -102 -92l20 -27l-69 -62l4 -4l-33 -10l12 33l6 -4l54 51l-9 12l-67 -61l2 -4l-33 -10l16 32l5 -4l65 62l-8 10l-57 -49l4 -2zM170 711v24v21q2 2 4 2t2 -2q0 -11 10 -11 l27 -2q5 0 0 5l-18 26q-5 8 -13 8q-6 0 -6 -6q0 -2 -2 -2t-2 2t1 9.5t1 9.5v18q0 1 2 1t2 -1q0 -5 10 -20l19 -21q2 -2 4 -2l45 31q10 10 10 12q0 1 2 1t2 -1q0 -2 -1 -6t-1 -6v-10q0 -10 -6 -13l-39 -24q-4 0 0 -4l2 -5q2 -2 4 -2l19 -2q14 0 14 15q0 2 3 2t3 -2 q0 -19 -2 -25v-22q0 -1 -2 -1t-2 1q0 12 -16 12h-62q-3 1 -5.5 -2t-2.5 -8q0 -1 -3 -1t-3 1zM172 649q-1 11 1.5 21t2.5 12q-2 6 2 6q2 0 9.5 1t9.5 1q3 0 4 -1t-2 -3q-24 -12 -21 -33q3 -13 17 -10q6 0 14 25q6 23 24 26q32 5 37 -26q1 -6 -0.5 -18.5t-1.5 -14.5 q-2 -2 -6 -2q-1 -1 -9.5 -3t-10.5 -3q-2 -2 -2.5 1.5t2.5 4.5q9 2 17 13t5 22q-2 14 -18 14q-7 0 -17 -27q-10 -26 -20 -26q-30 -6 -37 20zM176 834q0 8 4 20v20q0 2 3 2.5t3 -2.5q0 -10 11 -10l61 -10q7 0 12 10q3 5 6 2v-4q0 -4 -4 -20v-21q0 -1 -2 -1t-2 1q-4 11 -12 13 l-61 8q-11 0 -15 -11q0 -3 -2 -1.5t-2 4.5zM182 571q-1 3 1.5 4t2.5 -2q0 -10 15 -10l63 12q6 0 6 13q-3 21 -22 28q-5 4 3 4q7 1 13 -2q10 -3 10 -10t3.5 -29t7.5 -30q1 -4 -1.5 -4.5t-4.5 2.5q-8 8 -13 8l-61 -12q-10 -3 -10 -15q0 -2 -2 -3q-2 1 -3 3q-1 3 -4 20.5 t-4 22.5zM209 444q-23 52 18 72q21 11 40 5.5t28 -23.5q12 -14 9.5 -38t-23.5 -36q-20 -13 -40.5 -7.5t-31.5 27.5zM215 451q6 -13 21 -15.5t32 6.5q17 10 22.5 27t-1.5 25q-5 10 -18 11t-31 -9q-16 -9 -23 -22t-2 -23zM240.5 375q3.5 12 13.5 18q30 15 41 -26q1 -3 -2 -4 t-4 2q-5 16 -25 8q-7 -3 -10 -11.5t2 -19.5q0 -4 6 -4l60 33q9 4 6 16l6 4q4 -14 8 -22l4 -8l3 -6t1 -3q3 -2 1 -4.5t-5 0.5q-4 11 -16 2l-56 -28q-8 -8 -4 -15q3 -3 0.5 -4.5t-4.5 0.5l-24 51q-5 9 -1.5 21zM289 1176l22 -9l17 17l-6 -25l14 -18l-23 10l-18 -16l8 22z M324 250l14 18l-8 23l18 -17l23 11l-17 -19l6 -22l-16 14zM336 1256v4l37 38q19 22 39 2q11 -11 2 -28q-4 -4 4 -4q1 0 17 -3t24 -3q2 0 2 2t3 2.5t3 -4.5t-8 -17q-9 -9 -33 0q-21 6 -25 6t-4.5 -3.5t2.5 -6.5l15 -16q10 -10 16 0q3 1 4.5 -1.5t1.5 -4.5q-10 -7 -16 -13 q-5 -5 -8 -10l-4 -6q-4 -4 -6 1q-1 2 1 3q4 8 -4 16l-45 45q-7 7 -14 0q-2 -4 -4 1zM367 1274l20 -21q4 -4 8 0q13 17 2 31q-15 15 -30 0q-3 -5 0 -10zM393 1130q0 -14 6 -24l37 29l-10 8v12zM418 1036q0 -15 2.5 -30t6 -29t3.5 -16q0 -9 16 -9q11 0 45.5 5.5t51.5 13.5 q7 3 16 8.5t13.5 7.5t9.5 2q4 0 4 -26q0 -8 6.5 -14t13.5 -7l6 -2q25 21 31 25q3 3 4.5 0.5t-0.5 -4.5q-22 -36 -22 -70q0 -7 2 -17.5t2 -25.5l59 45q2 1 4 0t3 -3l1 -1q-2 -2 15 -4q-36 -17 -54 -35q-29 -33 -32 -82l53 35q78 61 90 69q-16 92 -16 127q-5 2 -9 2 q-17 -20 -51 -20l-12 -6l-2 2q4 10 10 16q13 0 31 6q14 14 14 33q0 15 -8 27q0 4 2 5.5t2 -1.5q21 -31 27 -31q3 0 9 1t9 1q0 -34 10 -53q6 -10 14.5 -19t17 -16t9.5 -8q1 -2 9 -10q5 -9 41 -51t36 -66q0 -4 -4 -13.5t-6 -11.5q15 0 25 -14.5t10 -42.5q22 27 22 39 q0 13 -8 31.5t-16 30.5l-8 12q-23 52 -76 149q-33 58 -33 62q-22 63 -84 63q-1 0 -15 -3t-22 -3q-19 0 -45 15.5t-47 15.5q-8 0 -8 -25q0 -18 9.5 -35.5t23.5 -21.5q4 0 4 -10q0 -6 -2 -8t-4.5 -1t-5.5 3.5t-5 5.5q-1 1 -2 0.5t-2 -4.5t-2 -5q-4 -10 -20 -16 q-13 -25 -19 -25q-7 1 -5.5 14t5.5 17q0 4 -2 4q-1 0 -4.5 -3.5t-9.5 -8.5t-10 -8q-4 -1 -18 -1.5t-21 -2.5q-6 -2 -17 -8t-19.5 -10.5t-10.5 -4.5q0 9 3 16t3 17q0 9 -10.5 29.5t-10.5 37.5q0 5 -2 11t-4.5 10t-3.5 4q-2 0 -2 -18q-14 0 -14 -58zM420 131q0 6 6 6 q5 -10 16 6l33 43q6 6 -6 13q-4 4 1 5q2 0 3 -1q9 -6 27 -6q2 0 3.5 -3t-1.5 -6l-47 -61q-8 -8 2 -18q1 -1 -0.5 -3t-3.5 -2q-7 10 -33 27zM421 1345l3 3q4 2 26.5 18.5t24.5 17.5q5 5 8 0q1 -2 11 -12q2 -4 -2 -5q-2 -1 -3 1q-9 12 -30 -4q-5 -5 -2 -10l12 -19q2 -4 8 -4 q13 13 8 23q0 2 2.5 2.5t4.5 -0.5q4 -14 16 -25q0 -7 -6 -4q-6 13 -23 2q-3 -7 0 -10l15 -25q2 -5 12 0q18 9 18 33q0 7 4 0.5t4 -16.5q0 -9 -4 -13q-40 -20 -49 -32q-3 -4 -5 -1.5t1 5.5q5 5 0 16l-33 51q-8 10 -16 6q-4 -2 -5 2zM442 510q0 -4 4 -4q2 1 7 3t8.5 3.5 t5.5 1.5q1 0 1 -5.5t-1 -8.5q-5 -5 -14 -8q10 -10 15 -5q1 0 1 2l14 33q-4 -2 -6 -2q-8 0 -8 6q0 11 6 11q5 0 12 -11l5 11q-4 7 -13 4q-33 -17 -37 -31zM461 1094q0 -18 18 -45q2 -4 2 -15q0 -10 3 -10q2 1 3 2q5 5 29.5 16t36.5 15q-5 2 -10 12l-6 6q-7 -2 -11 6l-8 -2 q-8 21 -10 27q-4 0 -19 20l-2 9q-8 16 -8 41l-18 -17q8 -11 8 -29q0 -11 -4 -24zM477.5 89.5q1.5 2.5 3.5 0.5h3q3 -1 6.5 -1.5t9 0t11 2.5t12 6.5t12.5 11.5q-19 -4 -29 6q-10 8 -9.5 20t9.5 23q11 13 25 12t24 -12q10 -9 9.5 -27.5t-11.5 -30.5q-15 -15 -33 -19.5 t-29 -1.5t-12 7q-3 1 -1.5 3.5zM479 338h2q4 0 6 6q5 14 25.5 23.5t22.5 13.5q2 5 0.5 7t-5.5 -1l-28 -12q-29 -11 -23 -37zM485 604q1 -5 7.5 -22.5t9.5 -30.5l37 39q0 12 -4 14l-5 2q208 76 226 88q45 32 45 70q0 18 -6.5 40t-14 36t-10.5 14q-4 0 -29.5 -20t-66.5 -50.5 t-74 -48.5q-73 -44 -96.5 -70.5t-18.5 -60.5zM487 469q0 -43 17 -68q4 -4 9 -4.5t8 1.5l3 1q-22 51 -22 74q0 33 37 82l39 49l-9 -2l-43 -47q-39 -48 -39 -86zM493 334q1 -2 3 -2q7 0 12 3.5t6 6.5l2 4q16 7 16 19q0 2 -1 3t-3 0.5t-4 -3.5q-12 -16 -30 -27q-3 0 -1 -4z M504 1133q0 -7 8 -7q9 6 14 0.5t-2 -14.5v-2q3 -6 10 -12t11 -6q10 8 10 18q0 11 5.5 26t10 25.5t2.5 12.5q-2 4 -16 4q-12 0 -12 -9l8 -12l-2 -6l-35 2q-12 -6 -12 -20zM512 473q0 -14 25 -70q11 11 6 27q-8 22 -8 49q0 29 28.5 74t32.5 59l-8 -4q-1 -2 -13.5 -19 t-20.5 -29.5t-19 -30t-17 -32t-6 -24.5zM515 135q-2 -12 3 -16q4 -5 11 -5t10 5q7 7 9 22t-3 19q-10 5 -21 -6q-7 -7 -9 -19zM518 1405q-1 3 2 4q11 0 19 4q12 6 16 10q3 1 4.5 -1.5t-0.5 -4.5q-7 -3 -4 -14l23 -62q0 -2 0.5 -8.5t0.5 -12.5t-1 -11q-3 -9 -14 -17t-17 -4 q-7 14 -4 17q2 4 8 2q2 -1 5.5 -4t4.5 -3q4 0 4 7q0 2 -4 14l-26 74q-3 13 -13 8q-3 -1 -4 2zM528 307l23 -16q4 14 4 24l-11 -3q-12 -3 -16 -5zM535 262q24 -4 23 -14q-1 -8 -13 -10q36 0 37 -12q0 -6 -13 -11q19 5 23.5 2t1.5 -18q11 16 24 0q13 12 15 12q12 -6 22 -6 q4 -15 0 -21q-1 0 -5.5 -2.5t-10 -5.5t-6.5 -4q-12 -8 2 -22q0 -5 -2 -5l-29 -14q-12 12 -18 12q0 -20 18 -34v10l43 18v15q0 16 17 16q5 0 9.5 -4.5t4.5 -11.5q0 -16 -8 -19q-21 -13 -21 -35q0 -16 10 -25.5t21 -11.5v-10q0 -3 5 -3t5 3v10q29 10 29 37q0 22 -17 33 q-10 7 -10 21q0 8 5 14t10 6t8.5 -5t3.5 -11v-17l39 -14q-2 -9 0 -21q19 14 22 41q-3 0 -6 -2t-4 -4l-2 -2l-33 10q12 29 -6 37l-27 4q-2 4 -2 17q5 0 21 8q4 4 11.5 2t10.5 -12q6 19 21 2q0 13 6.5 14.5t32.5 -4.5q-16 9 -16 14.5t18 14.5q-17 0 6 20q-8 0 -9.5 5t5.5 12 q-20 -3 -22 0t10 20q-27 -10 -29 -2l-23 -16l-8 -21v-4q0 -18 -14 -27q-12 -12 -23 -12q-3 0 -7.5 15t-4.5 28q0 8 2 19t2 14q0 4 -6 4l-14 -2h-4l-2 -6h10v-6q-21 -3 -21 -11h21q4 -10 4 -18q0 -19 -8 -31q-5 -2 -11 -2h-18q-6 0 -10 4l-21 37q0 2 -2 2q-20 0 -45 25 q11 -24 6 -24q-6 1 -28 14q7 -16 -6 -19zM547 336l31 8v4q0 35 19 69.5t46 43.5q6 2 16 2h-45q-8 0 -10 -2q-20 -10 -38.5 -48.5t-18.5 -68.5v-8zM555 481q0 -31 4 -41q3 7 23 27q0 27 -2 44.5t-4 21.5l-1 4q-20 -29 -20 -56zM567 315q6 -18 18 -22t44 -4q8 0 8 -19 q0 -5 -1 -12l-1 -8q0 -4 3.5 -8t6.5 -4h19q2 10 2 18l-2 12h-15q-6 0 -6 4q0 17 12 21l-2 12v6q2 3 4 5q3 3 7 8q-3 6 -7 6q-47 0 -90 -13q-2 0 0 -2zM586 1429q0 3 4 3q6 0 34 3t29 3q6 3 6 -4t5 -17q0 -4 -5 -2q-1 0 -2 2q-3 16 -26 10q-8 0 -8 -6l4 -22q0 -8 6 -8 q16 3 16 14q0 3 2 3t2 -3t2 -15t2 -14q1 -3 -1.5 -3.5t-2.5 1.5q-3 15 -20 12q-6 -3 -6 -8l4 -28q0 -7 10 -7q22 4 29 21q5 7 5 -3q0 -6 -3 -13q-3 -11 -10 -11q-40 0 -58 -6q-3 -3 -4 0.5t2 5.5q8 0 8 13l-6 63q-2 12 -14 12q-4 0 -4 4zM590 555q14 -35 14 -78h72 q-39 96 -43 146l-25 -7q0 -8 -2 -12q-3 -27 -16 -49zM600 348l72 4l-6 19q22 16 22 41q0 12 -6.5 25t-17.5 12q-25 0 -44.5 -29.5t-19.5 -63.5v-8zM662 580q0 -27 43 -119q5 -11 13.5 -29.5t10.5 -23.5q8 30 12 53q2 6 2 16q0 6 -1 15t-1 14q0 34 15 98q13 63 18 82 q-4 -6 -108 -47q-4 -13 -4 -59zM664 309q0 -6 4 -6t4 6q0 4 -4 4t-4 -4zM670 324h6v-7h8v7h6v6h-6v8h-8v-8h-6v-6zM676 309q0 -6 4 -6t4 6q0 4 -4 4t-4 -4zM686 358l2 -6q9 2 39 -2q-17 7 -22 12q-12 -4 -19 -4zM688 309q0 -6 4 -6t4 6q0 4 -4 4t-4 -4zM690 373q5 0 11 2.5 t9 4.5l3 3q0 16 -13 45v-20q0 -15 -10 -35zM690 1346v22q0 2 3 2.5t3 -2.5q0 -10 8.5 -20.5t18.5 -10.5q18 -2 18 15q0 5 -22 24q-21 13 -21 27q0 15 9 24t20 7q9 0 18 -4.5t13 -4.5t4 -4q-1 -3 -2 -11t-2 -11q0 -1 -2 -1t-2 1q-5 26 -25 28q-14 0 -14 -14q0 -5 20 -20 q21 -12 21 -31q0 -10 -9 -21.5t-24 -11.5q-6 1 -17 5t-14 5q0 5 -2 7zM696 270l6 -32q11 7 11 12q-4 10 -4 20q0 12 22 27l27 18q0 5 8 13q-20 2 -64 2l-4 -4q3 -6 5.5 -10.5t5.5 -10.5q-13 -21 -13 -35zM723 371q22 -21 53 -27q-25 37 -41 37zM745 393q13 -4 29.5 -22 t20.5 -21q12 -12 28 -12h4q0 4 -16 20q-11 11 -23 15q0 8 9 14t20 11.5t20 23.5t9 47q-18 -10 -19 -12v-11q-5 0 -13.5 10t-8.5 17q0 6 4 6t8 -4q31 21 43 27l19 2v6h8q-2 2 -13 10q-8 -6 -24.5 -13.5t-18.5 -8.5q-3 -2 -7.5 -1.5t-4.5 3.5q0 1 4 7t9.5 18t9.5 26 q-16 -8 -21 -8q-8 0 -8 4l6 4q23 19 35 33l6 20l4 4q17 9 17 15t-7 6h-14l12 18q5 2 -2 6q-2 1 -4 0l-32 -26q-6 -17 -27 -23q4 -8 4 -12q0 -10 -10 -10l-29 -2q-10 -58 -10 -74q0 -6 2 -18t2 -19q-2 -4 -2 -8zM767.5 1321.5q1.5 2.5 4.5 1.5q14 -6 19 6l30 57q0 7 -4 11 q-15 10 -29 -4q-2 -1 -4 1t0 3q5 5 9 11l4 5q2 4 6 0q25 -14 35 -20q30 -18 36 -21q3 0 3 -4q-5 -5 -9 -18q0 -2 -2.5 -0.5t-1.5 2.5q2 9 -1 14t-13 12q-9 0 -10 -2l-29 -57q-6 -11 6 -23q1 -2 -1 -4t-3 0q-2 0 -5.5 2.5t-8.5 5.5t-8 5q-1 1 -23 12q-2 2 -0.5 4.5zM774 326 q0 -22 3.5 -22t17.5 16l2 2q-15 2 -23 4zM774 590q10 0 10 14q0 1 -6 19l-4 -19v-14zM801 158q0 14 10 24q6 6 15 6.5t12 -4.5q11 -8 2 -30q15 9 26 -2q12 -12 12 -27.5t-10 -26.5q-12 -12 -32 -12q-3 0 -3 3t3 3q14 0 20 6t5 17t-7 16q-13 16 -23 2q-4 -1 -4 4q13 17 0 33 q-8 8 -18 -2q-4 -4 -4 -10q-4 -4 -4 0zM809 319q0 -32 22 -4q-16 4 -22 4zM839 1278q2 2 5 0q6 -3 16 4l41 49q1 1 1 6.5t-1 8.5q-3 3 -1.5 4.5t3.5 -0.5l39 -39q20 -21 2 -39q-15 -15 -26 -4q-5 5 -5 -2l-3 -18q-2 -17 -1 -25v-4q3 0 3 -3.5t-3 -3.5q-6 0 -16 7q-9 12 0 34 q1 6 2 12.5t1.5 10t0.5 6.5q0 9 -10 2l-15 -18q-7 -7 0 -17q2 -1 0 -3t-4 -1q-8 9 -14 17q-3 4 -6 6.5t-5 3.5t-3 2q-3 2 -1 4zM862 203q0 20 17 41q3 3 4.5 1.5t-0.5 -3.5q-9 -12 -9 -31q0 -11 9 -29q0 9 4 17q18 21 39 8q28 -20 6 -51q-5 -11 -18 -15.5t-27 4.5 q-25 22 -25 58zM877 733q0 -15 6.5 -26t15.5 -11q10 0 17.5 11t7.5 26t-7.5 26t-17.5 11q-9 0 -15.5 -11t-6.5 -26zM891 188q-10 -14 8 -26q9 -7 17.5 -8t11.5 4q8 13 -13 30q-17 14 -24 0zM899 1288q17 -17 29 -2q14 14 -2 33q0 1 -2 1t-4 -1l-21 -23q-3 -3 0 -8zM967 1161 l12 21l-10 22l18 -16l21 10l-13 -18l13 -21l-21 15zM979 283l12 20l-12 21l18 -11l21 11l-10 -21l10 -18l-19 10zM993 1071l2 4q1 2 9 8t10 9q2 0 3.5 -3t0.5 -4q-8 -7 -11.5 -19.5t1.5 -23.5q8 -13 22 -6q6 4 6 33q0 27 11 33q11 7 22.5 5t17.5 -11q5 -8 6.5 -19t2.5 -14 q4 -4 0 -4q-4 -2 -19 -12q-2 0 -3.5 2.5t1.5 3.5q19 19 8 37q-11 11 -20 4q-4 -2 -4 -27q3 -26 -12 -37q-27 -16 -46 10q-3 4 -4.5 9.5t-2 12.5t-1.5 9zM995 389v8h60l-41 39v8h86q12 0 16 9q0 1 1 2q2 -1 3 -4q-3 -6 -8 -21l-6 -18q-4 -4 -4 0q-1 1 0 2q2 10 -6 10h-58 l27 -27l18 -2q3 -2 8.5 1t6.5 7q4 0 4 -4q-1 -1 -2.5 -4.5t-3 -8t-2.5 -5.5q-1 -2 -3 -7t-3 -8.5t-1 -5.5q0 -3 -3 1q-1 2 -1 4q3 8 -6 8l-55 2l33 -31q3 -6 10 -6q5 -5 12 6q0 3 3 2.5t1 -2.5q-2 -6 -8 -18q-2 -4 -2 -11q-1 -3 -3 -2t-1 4q-2 7 -12 15zM1022 987q-2 2 2 3 q3 1 4 -3q7 -13 19 -8l57 20q6 0 6 9q-4 11 -8.5 14.5t-14.5 3.5q-3 0 -3 3t3 3q5 0 12 1l7 1q4 4 4 -2q0 -1 2 -9l4.5 -18l3.5 -14q1 -3 15 -43q4 -4 -2 -4q-9 0 -17 -8q-2 0 -3.5 2.5t-0.5 3.5q13 8 8 29l-2 3q-1 2 -2.5 3t-3.5 0l-59 -21q-14 -3 -11 -20q1 -1 -1 -1 l-5 -1q0 17 -6 29q-3 13 -8 24zM1038 543q2 20 17 36t39 13t36 -21.5t9 -42.5q-7 -54 -56 -45q-22 3 -33.5 20.5t-11.5 39.5zM1044 905v10q-1 3 1 4t4 -1q0 -6 18 -11l82 -26l-78 -56q-10 -5 -8 -10q0 -3 -2 -4q-1 2 -2 2q-1 3 -2 11t-2 10q0 2 -1 10.5t-1 11.5q-1 3 1 3 t3 -3q0 -3 4 -5t8 -1l14 10l-6 35l-12 6q-15 0 -12 -16q0 -2 -2 -2l-2 2q-1 2 -2.5 10t-2.5 10zM1047 541q0 -12 10 -22t28 -11q41 -6 48 20q3 32 -39 39q-19 3 -32 -5.5t-15 -20.5zM1057 606v2v10v11q0 8 8 12l39 25v4l-4 4q0 2 -2 2h-21q-14 0 -14 -12q0 -2 -2 -1.5 t-2 3.5q0 2 1 10.5t1 11.5v21q0 3 2 3t2 -3q0 -8 14 -11l64 -2q6 0 10 13q0 1 2 1t2 -1q0 -2 -1 -12.5t-1 -12.5v-20q0 -2 -2 -1.5t-2 3.5t-3 6.5t-5 3.5h-31q-4 0 0 -4l21 -27q5 -8 10 -8q6 0 6 6q0 1 2 1t2 -1v-18v-19q-1 -4 -4 0q0 13 -12 21l-17 20l-4 2l-45 -33l-10 -8 q0 -2 -1 -3q-2 -2 -3 1zM1057 795q0 1 1.5 2t3.5 0.5t3 -2.5q1 -7 2.5 -10t4 -4.5t7.5 -0.5l64 4q6 0 6 9q0 19 -16 22q-6 0 -3 4q1 2 3 2h18q2 0 2 -6q2 -31 4 -41q0 -7 1 -25.5t1 -19.5q0 -4 -2 -4q-8 0 -20 -4q-1 0 -1 3.5t1 4.5q8 1 10 5.5t2 19.5q0 8 -6 8l-62 -4 q-11 -2 -14 -17q0 -6 -4 -3q-2 1 -2 3v27q0 15 -4 27zM1085 895l5 -31l26 19zM1149 530v7l16 -27q5 -6 -1 -11t-9 5z" />
<glyph unicode="'" horiz-adv-x="8529" d="M102 -322l510 2173h7762l-28 -122h82l-484 -2130h-7713l21 79h-150zM145 -287h7707l477 2104h-7688zM498 225q0 112 58.5 210.5t157 157t210.5 58.5q114 0 229 -90v-106q-54 55 -112 80.5t-136 25.5q-132 0 -224.5 -100.5t-92.5 -235.5q0 -136 96 -236t240 -100 q122 0 229 107v-107q-53 -39 -115 -62.5t-114 -23.5q-172 0 -299 125.5t-127 296.5zM852 899v813h141q142 0 197 -55q39 -26 62.5 -74t23.5 -102q0 -98 -80 -164t-184 -66h-72v-352h-88zM940 1339h72q80 0 129 38.5t49 103.5q0 73 -53 107t-144 34h-53v-283zM1241 -180 l371 848l373 -848h-107l-88 229h-354l-90 -229h-105zM1346 1305q0 172 126.5 298t299.5 126q113 0 211 -58t156.5 -156t58.5 -210q0 -113 -58.5 -211t-156.5 -155.5t-211 -57.5q-111 0 -209 56t-157.5 154.5t-59.5 213.5zM1454 1305q0 -139 91.5 -237.5t226.5 -98.5 q143 0 239 100.5t96 235.5q0 146 -94.5 239.5t-240.5 93.5q-134 0 -226 -94.5t-92 -238.5zM1473 137h280l-141 318zM2019 225q0 173 118.5 299.5t287.5 126.5q97 0 180.5 -45t175.5 -133l-74 -70q-71 84 -129.5 121t-136.5 37q-142 0 -238 -100t-96 -236q0 -134 94 -235 t224 -101q115 0 196 71.5t86 176.5h-227v88h334v-16q0 -136 -51 -213q-42 -81 -137.5 -137t-200.5 -56q-169 0 -287.5 124.5t-118.5 297.5zM2249 1712h88l231 -602l246 637l250 -637l227 602h107l-353 -850l-231 656l-264 -656zM2974 -180v813h424v-90h-334v-228h317v-90 h-317v-317h334v-88h-424zM3504 899v813h424v-90h-334v-229h318v-88h-318v-320h334v-86h-424zM3822 225q0 113 58 211t156 156.5t210 58.5q116 0 231 -90v-106q-103 106 -231 106q-143 0 -238.5 -99.5t-95.5 -236.5q0 -136 95.5 -236t238.5 -100q124 0 231 107v-107 q-118 -86 -231 -86t-210.5 57.5t-155.5 155t-58 209.5zM4088 899v813h141q283 0 283 -231q0 -94 -59.5 -153.5t-153.5 -59.5l266 -369h-123l-231 352h-35v-352h-88zM4176 1339h70q80 0 129 38.5t49 103.5q0 79 -51.5 110t-143.5 31h-53v-283zM4651 -180v813h90v-725h232v-88 h-322zM5042 -180l371 848l352 -848h-86l-106 229h-338l-105 -229h-88zM5274 137h264l-125 318zM5855 -180l142 848l299 -672l317 690l125 -866h-86l-72 565l-284 -600l-267 600l-86 -565h-88zM6932 -180v813h142q79 0 125.5 -12t87.5 -41q69 -69 69 -177q0 -104 -71 -167.5 t-176 -63.5h-88v-352h-89zM7021 260h71q178 0 178 143q0 73 -36 105q-24 24 -52 29.5t-90 5.5h-71v-283zM7530 590q0 82 61.5 146.5t151.5 64.5q78 0 136.5 -65.5t58.5 -145.5q0 -94 -59.5 -153.5t-153.5 -59.5q-81 0 -138 60.5t-57 152.5zM7567 590q0 -78 45.5 -128 t112.5 -50q79 0 128.5 49t49.5 129q0 68 -47.5 122t-112.5 54q-74 0 -125 -50.5t-51 -125.5zM7672 465v248h53q72 -10 72 -72q0 -29 -14 -49.5t-40 -20.5l72 -106h-35l-73 88v-88h-35zM7707 606h18q24 1 30.5 7.5t6.5 23.5v4q0 12 -1 18t-10 12.5t-26 6.5h-18v-72z" />
<glyph unicode="(" horiz-adv-x="1314" d="M0 721l1315 346v-690z" />
<glyph unicode=")" horiz-adv-x="1314" d="M0 377v690l1315 -346z" />
<glyph unicode="*" d="M102 608q0 101 71.5 173.5t172.5 72.5t173.5 -72.5t72.5 -173.5t-72 -172t-174 -71q-101 0 -172.5 71t-71.5 172z" />
<glyph unicode="+" horiz-adv-x="6148" d="M102 0v1194h443v-449l262 449h465v-422l354 565h-153l606 273l262 -273h-180l-861 -1337h-446v444l-264 -444h-488zM1141 -127h190l846 1321h750v-1194h-445v174h-409l-197 -301h162l-608 -274zM2214 418h268v413zM2470 -330l20 197h43l-22 -197h-41zM2558 -330l20 197 h39l80 -131l13 131h43l-23 -197h-41l-78 125l-12 -125h-41zM2777 -330l23 197h39l77 -131l15 131h41l-23 -197h-41l-76 125l-14 -125h-41zM2994 -238q0 46 29 77.5t72 31.5q44 0 71 -25.5t27 -68.5q0 -44 -28 -77.5t-75 -33.5q-40 0 -68 27t-28 69zM3037 -238 q0 -21 15.5 -38t37.5 -17q27 0 44.5 21t17.5 47q0 55 -55 55q-25 0 -42.5 -20t-17.5 -48zM3041 139v893q0 72 44.5 117t107.5 45h1071v-428h-766v-340h295v80h-125v151h596v-505q0 -41 -8 -66t-33 -47q-39 -39 -94 -39h-932q-67 0 -111.5 36.5t-44.5 102.5zM3207 -133h41 l29 -127l61 127h43l-96 -197h-33zM3351 -330l96 195h37l45 -195h-45l-9 33h-65l-14 -33h-45zM3428 -260h41l-12 67zM3533 -174l4 41h119l-6 -41h-35l-19 -156h-41l17 156h-39zM3656 -330l22 197h43l-24 -197h-41zM3740 -133h41l28 -127l62 127h45l-96 -197h-35zM3916 -330 l22 197h105l-6 -41h-60l-6 -37h59l-6 -39h-57l-4 -41h61l-6 -39h-102zM4125 -238q0 45 28 76t72 31q39 0 57 -16l-4 -46l-2 3q-22 18 -49 18t-44 -19.5t-17 -46.5q0 -24 14 -39.5t37 -15.5t51 21l-6 -50q-24 -12 -47 -12q-37 0 -63.5 26.5t-26.5 69.5zM4303 -238 q0 46 28.5 77.5t71.5 31.5t71 -25.5t28 -68.5q0 -44 -28 -77.5t-75 -33.5q-40 0 -68 27t-28 69zM4346 -238q0 -22 14.5 -38.5t38.5 -16.5q26 0 42.5 20.5t16.5 47.5q0 25 -13 40t-40 15q-25 0 -42 -20t-17 -48zM4385 152v892q0 62 44 106t105 44h918q63 0 106 -44t43 -106 v-892q0 -63 -43 -107.5t-106 -44.5h-918q-62 0 -105.5 44.5t-43.5 107.5zM4524 -330l23 197h36l82 -131l13 131h41l-23 -197h-41l-76 125l-14 -125h-41zM4743 -330l23 197h39l79 -131l15 131h41l-23 -197h-41l-75 125l-15 -125h-43zM4831 420h318v328h-318v-328zM4964 -330 l23 197h102l-6 -41h-59l-4 -37h57l-4 -39h-57l-7 -41h62l-6 -39h-101zM5110 -238q0 45 27.5 76t72.5 31q39 0 57 -16l-4 -46l-2 3q-22 18 -49 18t-44 -19.5t-17 -46.5q0 -24 14 -39.5t37 -15.5t51 21l-6 -50q-24 -12 -47 -12q-37 0 -63.5 26.5t-26.5 69.5zM5276 -174l4 41 h116l-4 -41h-34l-19 -156h-43l19 156h-39zM5396 -330l25 197h41l-23 -197h-43zM5480 1376q0 83 58 140t141 57q80 0 137.5 -57t57.5 -140q0 -81 -57.5 -137.5t-137.5 -56.5q-83 0 -141 56t-58 138zM5482 -238q0 46 29 77.5t72 31.5q44 0 71 -25.5t27 -68.5 q0 -44 -27.5 -77.5t-74.5 -33.5q-41 0 -69 27t-28 69zM5519 1376q0 -66 46.5 -111.5t113.5 -45.5q65 0 111.5 45.5t46.5 111.5q0 67 -46.5 113.5t-111.5 46.5q-67 0 -113.5 -46t-46.5 -114zM5526 -238q0 -22 14.5 -38.5t38.5 -16.5q27 0 44 21t17 47q0 24 -14 39.5t-41 15.5 q-25 0 -42 -20t-17 -48zM5614 1266v229h65q35 0 57 -18q23 -16 23 -50q0 -33 -23 -53q-13 -9 -28 -12l69 -96h-53l-61 92h-6v-92h-43zM5657 1389h14q41 0 41 34q0 35 -41 35h-14v-69zM5706 -330l20 197h39l82 -131l12 131h41l-22 -197h-41l-76 125l-14 -125h-2h-39z M5911 -313l20 34q21 -14 41 -14t20 19q0 11 -18 22q-43 30 -43 62q0 25 16.5 43t44.5 18q27 0 54 -18l-19 -37q-23 14 -35 14q-7 0 -12.5 -5t-5.5 -11q0 -10 18 -21q2 -1 12 -8.5t16 -12.5t12 -16t6 -22q0 -27 -19.5 -47.5t-48.5 -20.5q-18 0 -35.5 7.5t-23.5 13.5z" />
<glyph unicode="," horiz-adv-x="2023" d="M51 498v20q0 202 76 385.5t205 315.5t307 210t373 78t373 -78t306.5 -210t204.5 -315.5t76 -385.5v-20h-1921zM70 518h1882q0 199 -74.5 378.5t-200 309t-299.5 205.5t-366 76t-366 -76t-300.5 -205.5t-201 -309.5t-74.5 -378zM113 686l8 35q6 23 26 20q17 -5 17 -16 q5 10 18 8q17 -4 21 -2l-4 -14q-9 0 -11 2q-20 3 -24 -10l-4 -21l30 -6l-2 -14zM127 696l23 -6l6 23q1 6 -2 10t-9 4q-10 5 -14 -10zM160 846l4 10l26 -10q-5 8 -2 18q4 12 15.5 16t21.5 -1q28 -12 19 -35q-9 -13 -17 -15l9 -2l-5 -10zM162 791q8 25 37 18q12 -5 17 -15 t1 -22q-10 -26 -37 -16q-12 3 -17 13t-1 22zM172 788q-5 -13 12 -22q20 -4 25 10q5 13 -14 21q-20 5 -23 -9zM193 922l6 12l24 -14q-5 8 0 18q12 24 39 8q9 -5 13.5 -15t0.5 -20q-8 -12 -18 -12l6 -4l-4 -10zM197 860q-6 -15 12 -22t24 8q5 12 -12 20q-17 7 -24 -6zM199 580 q0 16 16 16t16 -16q0 -6 -4.5 -11.5t-11.5 -5.5q-6 0 -11 5t-5 12zM227 643q30 194 138.5 351t278 249t368.5 92q149 0 284.5 -53.5t237 -146.5t170.5 -220t92 -272h-1569zM231 932q-10 -13 11 -23q13 -10 24 4q6 15 -10 23q-20 10 -25 -4zM250 662h1524q-23 138 -92 259.5 t-169 208.5t-230.5 137t-270.5 50t-270.5 -50t-230.5 -137t-169 -208.5t-92 -259.5zM256 997q13 18 25 11l24 -13q4 -2 6 0v2l8 -4l-2 -6q-3 -9 -10 -6q3 -9 -4 -20q-8 -16 -22 -9q-16 8 -7 27q8 16 2 18q-7 5 -12 -6q-7 -11 2 -14l-6 -10q-17 8 -4 30zM281.5 971 q-0.5 -3 3.5 -8q7 -2 12 8q5 11 -2 16l-8 4q0 -4 -2.5 -10.5t-3 -9.5zM285 1036l6 11l6 -5q-4 11 2 19q11 19 27 6l30 -20l-6 -11l-28 19q-10 8 -17 -2q-8 -11 4 -19l27 -18l-6 -10zM328 1133l8 10l2 -21l-4 -8zM342 1085q-14 14 2 33q13 17 27 6l20 -18q3 -3 6 0l2 2l7 -6 q-2 -5 -7 -8.5t-10 0.5q3 -11 -9 -22.5t-22 -2.5q-11 9 -1.5 25.5t5.5 19.5q-4 4 -12 -4t-2 -14zM363 1087q0 -2 4 -8q6 -6 13 6q5 10 -1 15l-6 6q-1 -3 -5.5 -10t-4.5 -9zM382 1160.5q5 11.5 16 15.5t20 -2l-8 -11q-3 3 -8 1.5t-8.5 -6t-0.5 -7.5q4 -3 19 7.5t24 2.5 t3.5 -21t-16.5 -18t-22 2l9 9q5 -3 10.5 0t9 9t0.5 9q-4 3 -20 -7.5t-25 -2.5q-8 8 -3 19.5zM403 616h15l20 -59l19 59h14l-27 -75h-14zM412 1221l10 8l16 -23h2q-3 8 6 17q20 17 39 -6q8 -8 8.5 -18.5t-8.5 -18.5q-13 -8 -20 -6l4 -7l-8 -6zM451 1214q-11 -11 2 -24 q12 -15 24 -6q11 11 -2 24q-12 15 -24 6zM467 1266l10 8l8 -8l-10 -9zM481 1249l8 8l37 -43l-10 -8zM496 541v55h12v-55h-12zM496 606v10h12v-10h-12zM510 1272l37 26l6 -8l-6 -49l26 19l7 -7l-41 -28l-4 8l6 47l-25 -16zM537 541v8l30 37h-28v10h45v-8l-33 -37h35v-10h-49z M559 1307l8 6l-8 12l10 6l9 -12l10 6l6 -8l-10 -6l16 -25q7 -7 14 0l4 -8q-15 -15 -26 -2l-19 27l-8 -5zM608 559h13q0 -12 16 -10q9 2 10 6q0 6 -18.5 10t-18.5 17q0 12 12 16t23.5 -1.5t11.5 -16.5h-14q1 5 -4 7.5t-10.5 1t-5.5 -6.5t18 -8.5t18 -16.5q0 -12 -12.5 -17 t-25.5 0t-13 19zM612.5 1328.5q2.5 11.5 14.5 17.5q25 12 39 -13q13 -25 -13 -41q-23 -13 -37 15q-6 10 -3.5 21.5zM627 1311q3 -7 9.5 -9.5t12.5 1.5q15 6 6 24q-11 15 -24 10q-11 -8 -4 -26zM655 766v344h125q69 0 92 -12q39 -24 39 -72q0 -56 -51 -78q32 -6 49 -28.5 t17 -55.5q0 -41 -27.5 -69.5t-77.5 -28.5h-166zM680 1350q-5 11 4.5 19.5t21 8t17.5 -9.5l-12 -6q-1 5 -7 5.5t-11 -3t-3 -8.5q1 -4 19 0.5t24 -6.5q6 -19 -16 -29.5t-31 8.5l12 6q5 -11 19 -2q6 4 4 8q-2 5 -19 1.5t-22 7.5zM684 569q0 11 7 20t18 9q9 0 16 -10v8h12v-53 q0 -25 -26 -25q-25 0 -25 19h12q0 -9 13 -9q14 0 14 13v10q-7 -10 -16 -10q-25 0 -25 28zM696 569q0 -18 15 -18q14 0 14 18q0 19 -14 19q-15 0 -15 -19zM700 805h115q31 0 48.5 16.5t17.5 44.5q0 58 -76 58h-105v-119zM700 963h93q39 0 56 13.5t17 41.5q0 32 -19 42.5 t-54 10.5h-93v-108zM766 555q0 14 18.5 17.5t18.5 7.5q0 9 -11.5 8.5t-11.5 -8.5h-12q0 12 12 17t23.5 0.5t11.5 -15.5v-27q0 -7 3 -7q2 1 3 1v-8q-5 -3 -10.5 -1.5t-5.5 5.5q-7 -9 -23 -6.5t-16 16.5zM772 1403l12 2l25 -37l2 45l12 2l-4 -57l-14 -4zM778 555q0 -5 6 -6 t12.5 1.5t6.5 8.5v8q-2 -1 -7 -2t-8.5 -1.5t-6.5 -3t-3 -5.5zM782 604l11 14h14l-14 -14h-11zM815 0v344h203v-29h-174v-122h164v-29h-164v-137h176v-27h-205zM838 1440l12 2l2 -10l-12 -2zM842 1419l12 2l10 -53l-12 -4zM846 541v75h12v-75h-12zM874 1446l13 2l10 -76 l-12 -2zM887 567q0 31 28 31q13 0 21 -8.5t8 -22.5q0 -12 -8 -20t-21 -8q-28 0 -28 28zM899 567q0 -7 4.5 -12.5t11.5 -5.5t12 6t5 12q0 8 -5 14.5t-12 6.5q-16 0 -16 -21zM907 604l11 14h14l-17 -14h-8zM915 1452h13l4 -76h-12zM948 1393q-1 8 4 12t12.5 5t13.5 3t5 6 q0 6 -10 6q-12 0 -12 -8l-13 -2q0 10 7.5 15.5t17.5 5.5q22 0 22 -15l2 -28q0 -4 2 -4h5v-9q-15 -5 -19 4q-7 -10 -22 -7.5t-15 16.5zM961 1393q0 -7 10 -7q5 0 9.5 3t4.5 6l-2 12q-1 -1 -5.5 -2t-8.5 -2t-6.5 -3.5t-1.5 -6.5zM991 766v344h45v-172l176 172h60l-146 -139 l150 -205h-57l-125 174l-58 -53v-121h-45zM1020 1380l2 56h12v-9q6 9 17 9q12 0 16 -11q6 9 16 9q19 0 19 -19l-2 -39h-13l3 33q0 14 -11 16q-12 0 -12 -14l-2 -33h-12l2 35q3 12 -8 12q-5 2 -9 -2t-4 -10l-2 -33h-12zM1034 0l82 129l-76 119h33l60 -94l59 94h33l-76 -119 l82 -129h-33l-65 104l-66 -104h-33zM1108 541l31 75h14l29 -75h-15l-6 20h-31l-8 -20h-14zM1122 1399q7 30 33 24q13 -1 19.5 -10.5t3.5 -21.5q-4 -28 -31 -25q-28 6 -25 33zM1133 571h24l-12 33zM1135 1399q-4 -20 12 -23q18 -3 18 17q4 19 -12 22q-13 3 -18 -16zM1137 623 l10 16h14l-14 -16h-10zM1194 1378l10 -4q-2 -6 4 -10t12.5 -3.5t8.5 3.5q2 5 -14 14.5t-13 20.5q3 12 15.5 12t22 -8.5t5.5 -18.5l-12 5q2 4 -2.5 7.5t-9.5 3.5t-7 -3q-2 -5 6 -9t16 -10t5 -16q-3 -11 -16.5 -12.5t-24 7t-6.5 21.5zM1206 541v75h13v-75h-13zM1251 541v75h13 v-75h-13zM1288 1329l29 70l12 -4l-10 -27q6 6 18 2q11 -4 14.5 -15.5t-1.5 -21.5q-12 -27 -33 -18q-14 9 -14 16l-5 -8zM1292 567q0 14 7.5 22.5t19.5 8.5q13 0 21 -8.5t8 -22.5q0 -12 -8 -20t-21 -8q-12 0 -19.5 8t-7.5 20zM1305 567q0 -18 14 -18q16 0 16 18q0 21 -16 21 q-14 0 -14 -21zM1311 1350q-7 -18 6 -25q13 -5 22 12q4 20 -8 25q-13 6 -20 -12zM1319 766v344h47v-344h-47zM1368 1325q6 11 17 14.5t22 -2.5q10 -6 12 -18.5t-6 -22.5l-35 21q-7 -15 4 -23q11 -4 17 2l10 -6q-14 -14 -31 -4q-25 13 -10 39zM1376 541v55h13v-8q3 10 16 10 q9 0 16 -10q7 10 17 10q18 0 18 -18v-39h-12v32q0 15 -10 15q-11 0 -11 -15v-32h-12v34q0 13 -10 13q-5 0 -8.5 -4.5t-3.5 -10.5v-32h-13zM1382 1323l25 -12q4 13 -6 18q-12 8 -19 -6zM1415 1268l31 47l8 -6l-4 -11q9 9 20 2l3 -2l-7 -10q-16 12 -26 -6l-15 -20zM1466 1268 q6 10 17 12.5t22 -4.5q10 -7 10.5 -19.5t-8.5 -21.5l-32 22q-11 -11 2 -20q10 -6 16 0l10 -8q-17 -13 -30 0q-23 16 -7 39zM1479 1266l24 -17q8 11 -4 19q-9 9 -20 -2zM1485 555q0 14 18.5 17.5t18.5 7.5q0 9 -11.5 8.5t-11.5 -8.5h-12q0 12 11.5 17t23.5 0.5t12 -15.5v-27 q0 -7 3 -7q2 1 3 1v-8q-4 -3 -10 -1.5t-6 5.5q-5 -5 -14.5 -6.5t-17 3t-7.5 13.5zM1497 555q0 -5 6.5 -6t12.5 1.5t6 8.5v8q-2 -1 -7 -2t-8.5 -1.5t-6.5 -3t-3 -5.5zM1503 604l10 14h15l-17 -14h-8zM1507 1202l35 45l8 -8l-4 -6q9 3 19 -4q16 -12 4 -27l-25 -31l-10 9l22 26 q8 11 0 19q-10 6 -20 -4l-20 -25zM1563 559h12q0 -12 17 -10q9 2 10 6q0 6 -18.5 10t-18.5 17q0 12 11.5 16t23.5 -1.5t12 -16.5h-15q1 5 -4 7.5t-10.5 1t-5.5 -6.5t18.5 -8.5t18.5 -16.5q0 -12 -13 -17t-25.5 0t-12.5 19zM1577 1141q-19 19 2 39q21 21 37 2q12 -8 8 -19 l21 19l8 -8l-56 -54l-8 8l6 7q-12 -3 -18 6zM1585 1147q10 -13 25 2q14 13 2 25q-10 10 -25 -5q-13 -13 -2 -22zM1620 1105q1 11 10 19t21.5 7.5t19.5 -9.5t5 -21t-13 -20l-27 33q-12 -12 -2 -22q5 -8 15 -5l8 -10q-19 -7 -31 8q-7 9 -6 20zM1642 1118l19 -22q11 11 2 20 q-3 5 -9.5 5.5t-11.5 -3.5zM1653 1057l8 4l49 -6l-16 24l6 6l26 -36l-8 -7l-47 7l19 -27l-9 -6zM1702 981q-15 25 10 39q9 7 20 6t19 -10q7 -12 3 -23.5t-15 -17.5l-23 35q-15 -11 -6 -23q6 -9 16 -6l7 -10q-19 -6 -31 10zM1722 1014l17 -25q11 11 4 21q-8 12 -21 4z M1734 925q-13 21 5 33l6 -10q-5 -5 -4 -11.5t6.5 -11.5t9.5 -3q5 4 -1.5 22t3.5 25q9 6 19 -3t11.5 -20.5t-7.5 -17.5l-6 10q3 3 2.5 8t-4.5 9.5t-9 2.5q-4 -3 3 -21t-3 -24q-18 -9 -31 12zM1751 1026h18l9 -12l-23 4zM1765 866q-13 26 15 37q27 12 39 -12q4 -10 -2 -21 t-17 -16l-18 37q-14 -7 -8 -21q3 -8 14 -8l4 -10q-20 -3 -27 14zM1784 827l71 27l5 -12l-41 -15l28 -14l6 -14l-26 14l-25 -35l-6 15l21 24l-11 6l-18 -8zM1790 895l12 -27q13 9 6 19q-3 13 -18 8zM1806 580q0 6 5 11t12 5q16 0 16 -16q0 -6 -4.5 -11.5t-11.5 -5.5 q-6 0 -11.5 5t-5.5 12zM1810 741q-3 12 3 22t18 13q29 8 35 -16q4 -12 -3.5 -22.5t-19.5 -12.5l-12 39q-6 -2 -9.5 -7.5t-0.5 -11.5q3 -10 12 -10l4 -12q-20 0 -27 18zM1827 682q-5 14 10 18l31 7l-2 10l10 2l2 -10l16 4l2 -13l-16 -4l2 -10l-10 -2l-2 10l-27 -6 q-6 -2 -4 -12l-10 -2zM1839 766l8 -27q6 1 9.5 6.5t1.5 10.5q-3 14 -19 10z" />
<glyph unicode="-" horiz-adv-x="1368" d="M51 0l320 1450h946l-320 -1450h-946zM143 330h906l241 1100h-903zM184 475l37 35q15 12 86 57t107 80h-72l-25 -24l-12 22l39 39q15 10 39 10h66q31 40 63 72q-3 0 -8.5 -1t-9.5 -1q-26 0 -65.5 19.5t-63.5 19.5q-33 0 -76 -29l-6 10l34 35q42 31 82 31q27 0 66.5 -19.5 t64.5 -19.5q17 0 47 9.5t37 10.5l19 5l-49 -50q-36 -7 -60 -29.5t-51 -62.5q25 0 59 -6l35 35l-12 -47l-37 -37q-41 5 -86 8q-62 -65 -133 -110l27 4q42 0 97 -36t93 -36q12 0 25 3t19.5 5.5t22.5 10.5t21 10l6 -11l-37 -36q-9 -3 -28 -12t-33.5 -13t-32.5 -4q-41 0 -96 36 t-92 36q-10 0 -43.5 -8t-54.5 -21zM195 76h8q0 8 6 8q2 0 15 -4t28 -4q31 0 46 15.5t15 35.5q0 34 -28 45l-35 18q-16 8 -21.5 13.5t-5.5 15.5q0 11 8.5 17t18.5 6q20 0 32.5 -14t16.5 -31h6v53h-6q-4 -8 -8 -8q-3 0 -16 4t-23 4q-31 0 -43 -15.5t-12 -33.5q0 -30 43 -51 l16 -9q27 -13 27 -30q0 -4 -1 -8.5t-8.5 -11.5t-21.5 -7q-41 0 -49 51h-8v-59zM330 80h143l6 59h-6q-6 -25 -19 -36t-27 -13t-48 -2l94 154v4h-131l-4 -49h6q16 33 31 36q10 5 49 5l-94 -154v-4zM379 1311q7 30 14 45l53 53q-10 -26 -16 -51q35 -2 89.5 -6.5t97.5 -6.5 t92 -2q60 0 116 11q-3 -6 -10 -18.5t-10 -18.5l-37 -37l-8 8q1 3 2.5 5.5t3 5.5t2.5 4q-39 -7 -94 -7q-53 0 -80 2l-47 -122h178q-33 -41 -68 -74l-8 8l15 18h-134q-26 -66 -45 -139l-51 -53q6 31 15 62t14 45.5t18.5 47.5t14.5 37h-7l11 11l49 131l29 28q-20 1 -90.5 6.5 t-108.5 6.5zM553 80h104l11 51h-6q-5 -12 -10 -15t-25 -3h-37l39 37q28 28 28 53q0 26 -15 36.5t-30 10.5q-33 0 -55 -51h6q11 22 31 22q29 0 29 -31q0 -15 -10.5 -33t-22 -30.5t-37.5 -40.5v-6zM645 733l8 27l56 53q-8 -25 -13 -31l-2 -6l-2 -8q0 -6 13 -6l36 6h101h6v-6 q0 -2 1 -7t1 -7q0 -15 -15 -31t-18 -23q-8 -21 -30.5 -65t-33 -76.5t-10.5 -71.5v-12h21q18 0 24 4l203 227l6 13l58 55l-11 -27q-14 -37 -42 -94t-47.5 -106t-28.5 -101q10 2 24 11l6 -11l-34 -37q-21 -9 -48 -12q8 46 22.5 89.5t24.5 65.5t40 81l-183 -185 q-20 -20 -49 -20h-33v22q0 32 9 64.5t19.5 55.5t35.5 72.5t41 84.5h-94q-4 0 -16 -2.5t-21 -3.5t-17 3t-8 15zM688 217q4 1 9 2.5t8 2.5t4 1q10 0 10 -18v-94q0 -10 -1 -14t-7.5 -7.5t-20.5 -3.5v-6h92v6q-17 0 -21.5 5t-4.5 18v141h-4l-64 -27v-6zM803 162q0 -37 16 -61.5 t39 -24.5q25 0 40 25t15 61q0 42 -16.5 65t-38.5 23q-21 0 -38 -23t-17 -65zM827 1305q0 5 1.5 9.5t3.5 7.5t5.5 8t4.5 7l37 37l8 -8q-2 -4 -10 -12q-3 -6 -3 -13q0 -20 29 -20q36 0 138.5 10t197.5 10l18 -10q-10 -24 -51 -61l-8 6q10 15 2 18l-115 -2q-9 -23 -23.5 -65.5 t-28.5 -75.5t-32 -64q-1 -3 -22 -30.5t-21 -48.5q0 -3 1.5 -6.5t5.5 -7.5l6 -6t7.5 -6t6.5 -5l-43 -43q-31 22 -31 39q0 18 7.5 34t23 37t19.5 29q16 27 27 54.5t23.5 63.5t20.5 56l45 45q-3 0 -37 -4.5t-83 -9t-89 -4.5q-41 0 -41 31zM842 135v55q0 52 16 52t16 -52v-55 q0 -27 -4 -39q0 -12 -12 -12q-16 0 -16 51zM895 745q3 14 5.5 21.5t4 13.5t6.5 11.5t7.5 8.5t12.5 12.5t17 16.5q9 9 23 9q31 0 162 -19l-46 -45q-18 2 -46.5 6.5t-52.5 7.5t-48 3z" />
<glyph unicode="." horiz-adv-x="1419" d="M102 725q0 159 48 303.5t129.5 249.5t194.5 167t237 62q166 0 305.5 -105t220 -285t80.5 -392q0 -211 -80.5 -391t-220 -285.5t-305.5 -105.5q-124 0 -237 62.5t-194.5 167.5t-129.5 249.5t-48 302.5zM127 725q0 -207 79 -382t213.5 -275.5t291.5 -100.5 q118 0 225.5 59.5t186 160.5t125 242t46.5 296t-46.5 296t-125 242t-186 160.5t-225.5 59.5q-157 0 -291.5 -100.5t-213.5 -275.5t-79 -382zM147 799q0 19 12 31t31 12t32.5 -12.5t13.5 -30.5q0 -19 -13.5 -32t-32.5 -13t-31 13t-12 32zM150 657v17l77 2l2 -14l-36 -3 l36 -24v-17l-30 23l-47 -27v17l34 20l-12 8zM156 803q6 -17 20 -17q6 0 13.5 12.5t21.5 12.5l14 -2q-4 11 -14.5 18t-20.5 7q-12 0 -22 -9.5t-12 -21.5zM158 571q-3 31 35 37q20 3 32 -6q10 -6 13 -20q3 -30 -35 -37q-42 -3 -45 26zM168 514l76 21l6 -23q0 -4 1 -7l1 -3 q0 -21 -16 -27q-13 -3 -23 10l-31 -26l-4 16l29 23v2l-2 4v4v2l-35 -10zM168 573q4 -12 16 -12q6 -3 15 0q15 1 21.5 6t4.5 13q0 17 -30 14q-27 -3 -27 -21zM186 440l74 27l16 -45l-10 -4l-12 33l-18 -9l10 -26l-13 -4l-10 26l-20 -6l12 -35l-10 -4zM207 381l82 12l8 -16 l-61 -53l-9 12l17 14l-11 23l-20 -4zM215 512l2 -10q2 -6 6 -10q3 -3 8 0q9 0 9 8q0 4 -2 8l-2 10zM233 1116q0 5 4 11t7 6q1 0 3 -1.5t3 -1.5l6 11l8 -6l-4 -7q1 0 4 1t4 1q13 0 16.5 -12t-2.5 -23.5t-18 -11.5q-16 0 -16 21l-4 -6l-8 6l4 6zM236 727q0 128 36.5 244.5 t98.5 202t148.5 136t182.5 50.5q129 0 237 -85.5t170 -231t62 -316.5t-62 -316t-170 -230t-237 -85q-96 0 -182.5 50.5t-148.5 135t-98.5 201t-36.5 244.5zM242 309l67 37l10 -18l-36 -49l49 28l6 -12l-68 -39l-8 12l41 60l-55 -31zM246 375l8 -19l29 25zM250 727 q0 -168 61 -310t165 -224t226 -82q123 0 228 82t166 224t61 310q0 169 -61 311.5t-166 225t-228 82.5q-122 0 -226 -82.5t-165 -225t-61 -311.5zM256 1155l6 10l21 -12l2 4l10 -4l-2 -6l16 -10l-6 -11zM262 1106l2 -8q2 0 5 3t3 7q0 2 -1 4.5t-1 3.5h-2q-2 0 -4.5 -3.5 t-1.5 -6.5zM279 1081l4 11l8 -5l22 41l11 -6l-29 -49zM305 1161l8 10l11 -6l-9 -10zM324 182l61 51l14 -18q7 -7 7 -8q11 -19 -5 -29q-9 -9 -22 -2l-19 -37l-10 13l17 32v2l-5 4l-2 3v2l-26 -23zM369 201l6 -8q2 -2 4.5 -4t3.5 -3q6 0 10 2q4 9 2 11q0 4 -4 8l-6 8zM383 121 l49 61l37 -30l-6 -11l-27 23l-14 -17l22 -18l-6 -8l-22 16l-15 -16l29 -23l-8 -10zM410 782v37h122q6 55 43.5 97.5t90.5 54.5l-4 110l16 25q-17 2 -31 12t-10 27q3 16 18 22v4l-12 29v55q0 30 18.5 50t49.5 20q32 0 49.5 -19.5t17.5 -50.5v-55l-12 -29v-4q18 -8 19.5 -25 t-15.5 -28q-16 -8 -27 -8l17 -25l-4 -114q50 -13 83.5 -54t39.5 -94h116v-37h-116q-6 -52 -40.5 -92.5t-84.5 -54.5l4 -268q45 23 74.5 75.5t29.5 94.5q-18 30 -18 69q0 51 41 86q10 27 30 27q23 0 33 -27q41 -35 41 -86q0 -30 -16 -59q0 -38 -9.5 -65.5t-18.5 -42.5t-9 -21 q0 -18 10.5 -27.5t23.5 -11.5t23.5 -8t10.5 -17q0 -13 -12.5 -18t-30 -7.5t-23.5 -6.5q-23 -16 -43 -35.5t-46 -51t-36 -42.5h-55l-13 12h-69l-12 -12h-56q-10 11 -36 42.5t-46 51t-43 35.5q-6 4 -23 6.5t-29.5 7.5t-12.5 18q0 11 10.5 17t23 8t23 11.5t10.5 27.5 q0 7 -9 21.5t-18 42t-9 65.5q-17 31 -17 59q0 51 41 86q10 27 33 27q21 0 31 -27q41 -35 41 -86q0 -37 -19 -69q0 -41 31 -94t76 -76l4 266q-55 10 -93.5 51.5t-44.5 97.5h-122zM416 831v146h26v-66l47 66h31l-43 -57l47 -89h-28l-37 66l-17 -23v-43h-26zM432 354 q0 -4 8 -6.5t19 -4t12 -1.5q20 -4 46 -27.5t60 -64t37 -43.5h43l13 12h82l12 -12h43q3 3 37 43.5t60 64t46 27.5q1 0 12 1.5t19 4t8 6.5q0 6 -16.5 10t-33.5 16t-17 36q0 9 18 46.5t18 78.5v10q17 25 17 55q0 48 -37 78q-7 21 -23 21q-13 0 -20 -21q-37 -30 -37 -78 q0 -33 19 -65q0 -62 -38.5 -118.5t-95.5 -78.5l-4 287q-12 -2 -28 -2q-19 0 -27 2l-4 -275v-12q-57 22 -96 79t-39 118q18 30 18 65q0 48 -37 78q-7 21 -20 21q-16 0 -23 -21q-37 -30 -37 -78q0 -30 17 -55v-10q0 -41 18.5 -78.5t18.5 -46.5q0 -24 -17 -36t-34 -16t-17 -10z M457 109q22 36 51 18q12 -9 12 -21q2 -4 -2 -16l-12 6q6 14 -4 21q-14 9 -31 -15q-15 -25 0 -34q11 -8 18 6h3l-13 8l6 10l23 -14l-21 -33l-8 6l2 4q-6 -2 -18 4q-26 16 -6 50zM469 610q0 19 10 32t25 13q33 0 33 -43q0 -22 -9 -36t-30 -13q-29 3 -29 47zM475 1382l53 31 l15 -22l4 2l6 -11l-31 -16l6 -10l23 12l12 -20l-10 -7l-6 11l-43 -23l-6 10l20 11l-6 10l-27 -14l-6 10l51 28l-6 13l-43 -27zM483 610q0 -29 17 -32q22 0 22 34q0 29 -18 29q-7 0 -14 -8.5t-7 -22.5zM512 33l35 71l14 -6l-35 -71zM555 37l14 -2q-2 -9 9 -17q11 -3 14 7 q3 8 -8 16q-11 5 -13 10q-8 8 -4 19q10 24 33 14q23 -7 16 -27l-12 2q0 12 -8 15q-9 3 -12 -6q-3 -6 2 -9q0 -3 6 -6q6 -4 12 -10q7 -10 4 -20q-10 -24 -35 -15q-12 3 -16 15q-5 5 -2 14zM569 782q6 -51 44.5 -84.5t91.5 -33.5t92 33.5t45 84.5h-273zM569 819h273 q-6 52 -45 86.5t-92 34.5q-44 0 -80 -26t-50 -66v-2q-6 -12 -6 -27zM602 287v37h21v-7h-13v-8h11v-6h-11v-16h-8zM627 305q0 19 14 19t14 -19q0 -18 -14 -18t-14 18zM635 59v13l59 -4l-2 -13l-20 2l-6 -65h-15l6 65zM635 305q0 -12 6 -12t6 12t-6 12t-6 -12zM657 233v7h7v20 h-7v6l9 2h6v-28h6v-7h-21zM657 1204l13 -30v-48h8v127q0 41 33 41q32 0 32 -41v-127h9v48l12 30v49q0 58 -53 58q-54 0 -54 -58v-49zM662 301v23h8v-27q0 -4 4 -4q6 0 6 4v27h8v-23q0 -14 -14 -14q-12 0 -12 14zM678 1077l2 -104q8 2 25 2q12 0 36 -4l4 106l-20 29l-2 78 h-12h-13l-2 -78zM680 258q0 12 14 12q13 0 13 -18q0 -19 -15 -19q-10 0 -10 7l6 2q2 -2 4 -2q6 0 6 10q-4 -4 -6 -4q-12 0 -12 12zM688 258q0 -6 6 -6l4 2q0 10 -4 10q-6 0 -6 -6zM692 1198h19h18v55q0 27 -18 27q-19 0 -19 -27v-55zM696 287v37h11l10 -23v23h8v-37h-8 l-12 26v-26h-9zM707 68l49 2v-11l-35 -4l2 -20l29 2v-10l-29 -2l2 -25l37 4v-12l-51 -4zM713 252q0 18 14 18q10 0 10 -6l-6 -2q-2 2 -4 2q-6 0 -6 -10q4 4 6 4q12 0 12 -12q0 -13 -14 -13q-12 0 -12 19zM721 250q0 -10 4 -10q6 0 6 6t-6 6zM733 287v37h10q7 0 12 -5t5 -14 q0 -18 -17 -18h-10zM741 293q11 0 11 12t-11 12v-24zM743 252q0 18 13 18q12 0 12 -18q0 -19 -12 -19q-13 0 -13 19zM752 252q0 -12 4 -12t4 12t-4 12t-4 -12zM766 287v37h22v-7h-14v-8h10v-6h-10v-10h14v-6h-22zM772 72l23 6h10q9 1 15.5 -4t8.5 -13q3 -12 -10 -22l23 -33 l-15 -2l-22 31l-6 -2h-4l6 -35l-15 -2zM788 63l5 -20l10 2q6 2 8 4q4 2 4 8q-3 9 -8 9h-10zM795 287v37h10q16 0 16 -19q0 -18 -16 -18h-10zM803 293q10 0 10 12t-10 12v-24zM831 1366l11 16l10 -6l-4 -6l41 -27l-6 -10zM838 1399v10q10 0 15.5 1.5t7 2.5t11.5 8l9 -8 q-4 -4 -4 -12q0 -2 2 -6.5t2 -5.5l-11 -5q-4 8 -4 17v2q-7 -4 -28 -4zM885 612q0 43 33 43q15 0 24.5 -13t9.5 -32q0 -47 -32 -47q-35 0 -35 49zM887 831v146h59q19 0 31 -12.5t12 -28.5q0 -25 -26 -35l30 -70h-28l-29 64h-21v-64h-28zM889 1360q12 20 16 24h-4h-6v13h6 q9 0 14 8l11 -8q-5 -8 -13.5 -21.5t-13.5 -21.5zM893 104q0 9 12 21q26 16 49 -16q21 -35 -4 -54q-26 -16 -49 17q-10 21 -8 32zM899 612q0 -34 21 -34q18 0 18 32q0 14 -6 22.5t-14 8.5q-19 0 -19 -29zM911 115q-14 -10 2 -35q17 -23 29 -14q9 6 6 20l-6 12q-16 26 -31 17z M915 915h21q25 0 25 21q0 18 -25 18h-21v-39zM946 150l35 28l8 -8l-24 -20l12 -17l20 17l7 -11l-19 -16l21 -27l-11 -8zM1044 248q13 17 31 6l-8 -12q-8 8 -14 -2q-7 -8 0 -15q7 -2 10 -1t10 6t10 6q12 4 21 -5q19 -13 2 -36q-18 -18 -35 -7l8 13q10 -7 19 2q7 10 -2 16 q-5 5 -21.5 -5.5t-27.5 -0.5q-19 16 -3 35zM1071 281l6 12l27 -14l14 24l-26 14l6 13l69 -37l-6 -12l-33 16l-14 -25l33 -16l-8 -14zM1077 1139l33 20l-4 6l10 6l33 -51l16 10l-26 44l10 6l31 -56l-25 -14l4 -4l-10 -8l-4 6l-33 -19zM1094 1135l22 -35l4 4l-22 33zM1108 346 l6 14l72 -34l-6 -13zM1108 1143l22 -33l9 4l-21 35zM1122 377l11 22l10 15q9 9 24 2q10 -3 13 -13q3 -9 -2 -22l-7 -12l27 -13l-6 -14zM1139 385l22 -10l4 10q2 4 2 10q0 2 -6 8q-6 2 -14 -2q0 -1 -1 -3t-1 -3l-2 -2zM1149 440l6 25q3 13 8 18q10 10 23 4q11 0 14 -10 q5 -8 2 -20l-4 -15l31 -8l-4 -12zM1163 453l25 -7l2 11q2 7 0 10q0 6 -8 6q-3 2 -7.5 1.5t-5.5 -3.5q0 -1 -1 -3t-1 -3v-4zM1167 508l4 14l76 -14l-2 -14zM1174 539l4 20l61 16l-57 9l4 14l76 -14l-2 -15l-70 -20l63 -10l-2 -15zM1188 647q0 13 8 21q4 2 16 6l2 -15 q-16 -3 -16 -12q0 -17 29 -20q28 0 28 18q3 11 -14 14h-2v-16l-10 2v27h39v-10l-6 -3q6 -3 6 -16q0 -31 -41 -31q-19 0 -30 10t-9 25zM1194 793q0 19 13 31t32 12t31 -12t12 -31t-12 -32t-31 -13t-32 13t-13 32zM1202 793q9 -13 21 -13q5 0 14.5 12.5t22.5 12.5l10 2 q-8 20 -31 20q-15 0 -26 -9.5t-11 -24.5z" />
<glyph unicode="/" horiz-adv-x="1769" d="M102 725q0 159 62 304t167 249.5t250 166.5t304 62t304 -62t249.5 -166.5t166.5 -249.5t62 -304t-62 -303.5t-166.5 -249t-249.5 -166t-304 -61.5t-304 61.5t-250 166t-167 249t-62 303.5zM113 725q0 -209 103.5 -386.5t281 -280.5t387.5 -103t387.5 103t281 280.5 t103.5 386.5q0 157 -61 300t-164.5 246.5t-246.5 164.5t-300 61t-300 -61t-246.5 -164.5t-164.5 -246.5t-61 -300zM139 670q0 32 23 49l12 -12q-16 -13 -16 -37q0 -19 12 -31t31 -12q20 0 32.5 12t12.5 31q0 18 -8.5 28.5t-22.5 10.5v-29h-16v47h14q21 0 36 -15t15 -42 q0 -26 -18.5 -44t-44.5 -18t-44 18t-18 44zM143 784l2 19l119 -8l-2 -19zM158 889q0 27 28 39l4 -17q-16 -6 -16 -20t12 -14q10 0 21 16q17 22 37 22q17 0 27 -11t10 -27q0 -19 -15.5 -31.5t-29.5 -9.5v18q11 0 19.5 6.5t8.5 16.5q0 20 -18 20q-16 0 -27 -18 q-13 -21 -33 -21q-11 0 -19.5 9.5t-8.5 21.5zM162 551l16 4l12 -47l29 8l-12 45l16 4l10 -47l41 10l-12 47l17 5l16 -64l-117 -29zM186 981l25 68l16 -5l-10 -26l96 -37l-6 -14l-96 34l-8 -26zM219 393q-16 32 14 47q25 13 41 -8l31 55l8 -18l-28 -55l4 -6l45 22l8 -14 l-106 -56zM233 399l9 -14l32 16l-6 13q-10 20 -26 12q-18 -9 -9 -27zM240 1098l18 30q19 29 45 15q13 -7 17 -20.5t-1 -20.5l64 4l-10 -19l-62 -4l-4 -6l43 -26l-8 -15zM262 1104l33 -19l8 15q4 9 1.5 17t-9.5 11q-14 7 -25 -10zM283 725q0 123 47.5 234.5t128.5 192 t192.5 128t233.5 47.5t233.5 -47.5t192.5 -128t128.5 -192t47.5 -234.5q0 -122 -47.5 -233.5t-128.5 -192.5t-192.5 -128.5t-233.5 -47.5t-233.5 47.5t-192.5 128.5t-128.5 192.5t-47.5 233.5zM293 725q0 -160 79 -296.5t215.5 -216t297.5 -79.5t297.5 79.5t215.5 216 t79 296.5q0 161 -79 297.5t-215.5 215.5t-297.5 79t-297.5 -79t-215.5 -215.5t-79 -297.5zM336 1208q0 27 17.5 45.5t43.5 18.5t45 -19t19 -45t-18.5 -43.5t-45.5 -17.5q-26 0 -43.5 17.5t-17.5 43.5zM354 1208q0 -19 12 -31t31 -12q20 0 32.5 12t12.5 31q0 20 -12.5 32.5 t-32.5 12.5q-19 0 -31 -12.5t-12 -32.5zM377 731q0 119 50.5 229t139.5 193q74 70 121 70q35 0 63 -35.5t19 -69.5q-27 -27 -27 -55q0 -42 36 -63.5t75 -6.5l2 56q-29 17 -29 51q0 39 33 53l2 123l23 8l22 -8l2 -123q33 -14 33 -53q0 -34 -29 -51l2 -56q39 -15 75 6.5 t36 63.5q0 28 -27 55q-9 34 19 69.5t63 35.5q47 0 121 -70q90 -83 140.5 -193t50.5 -229q-18 7 -26 20t-17 42q-11 -15 -27 -15q-11 0 -19.5 10t-11.5 20l-2 9q-18 -6 -26 -6q-22 0 -35 39q-15 -12 -27 -12q-23 0 -35 41q-7 -13 -20 -13q-28 0 -45 43q-32 -14 -60 -14 q-13 0 -26 7t-19 9l-49 -2q-29 16 -33 33l7 -229l106 59q10 7 10 21t-15 21.5t-26 -3.5l-16 -6q-7 -8 -20 -5t-13 15q0 7 7.5 14.5t17.5 10.5q7 20 26 20q8 0 17 -6q29 7 52.5 -11.5t23.5 -47.5q0 -37 -60 -66l-108 -55q40 -23 65 -54t25 -55q0 -41 -21 -69.5t-65 -59.5 q61 -20 61 -78q0 -35 -28 -57q33 -33 79 -33q30 0 57 16.5t40 45.5l-21 41l146 86v-154l-66 4q-52 -69 -135.5 -105t-175.5 -36t-176 36t-136 105l-65 -4v154l145 -86l-20 -41q13 -29 39.5 -45.5t56.5 -16.5q47 0 80 33q-29 23 -29 57q0 32 19 51t43 27q-44 31 -65 59.5 t-21 69.5q0 24 25 55t65 54l-109 55q-59 29 -59 66q0 29 23.5 47.5t52.5 11.5q9 6 16 6q20 0 27 -20q9 -3 16.5 -10.5t7.5 -14.5q0 -12 -12.5 -15t-20.5 5l-16 6q-10 11 -25.5 3.5t-15.5 -21.5t10 -21l107 -59l6 229q-4 -17 -33 -33l-49 2q-6 -2 -19 -9t-26 -7q-27 0 -59 14 q-17 -43 -45 -43q-15 0 -21 13q-12 -41 -35 -41q-5 0 -11.5 3t-10.5 6l-4 3q-13 -39 -35 -39l-27 6q-8 -39 -33 -39q-15 0 -26 15q-7 -20 -10 -28.5t-11.5 -18.5t-21.5 -15zM418 188q0 5 4 9t8 4t8 -4t4 -9q0 -4 -4 -8t-8 -4t-8 4t-4 8zM522 1376l15 8l61 -102l-14 -8z M586 1411l69 27l7 -17l-27 -10l35 -96l-17 -6l-35 96l-26 -10zM690 0l29 98l-21 6l13 13l28 -6l-32 -117zM702 1329l41 135l74 -116l-18 -2l-17 26l-51 -8l-10 -31zM735 1380l39 6l-26 39zM780 12q0 22 19 31q-11 7 -11 23q0 14 10 24t23 10q14 0 24.5 -10.5t10.5 -23.5 q0 -23 -18 -27q16 -6 16 -27q0 -15 -11 -26t-26 -11t-26 11t-11 26zM795 557q0 -27 10.5 -44t36.5 -38l4 158q-51 -34 -51 -76zM797 12q0 -20 20 -20q21 0 21 20q0 9 -6 15t-15 6q-20 0 -20 -21zM805 66q0 -17 16 -17q19 0 19 17q0 18 -19 18q-16 0 -16 -18zM807 360 q0 -25 16 -41q17 25 17 68v16q-33 -11 -33 -43zM852 1473h16l6 -103h37v-16l-53 -2zM903 16q0 14 10 39l21 41l18 2l-22 -45q4 4 16 4q15 0 27 -12t12 -29t-12 -29t-29 -12t-29 12t-12 29zM920 16q0 -10 7 -17t17 -7q11 0 18 7t7 17t-7.5 17.5t-17.5 7.5t-17 -7t-7 -18z M924 633l4 -158q26 21 36.5 38t10.5 44q0 42 -51 76zM930 387q0 -44 16 -68q17 17 17 41q0 32 -33 43v-16zM950 1350l19 118l18 -2l-20 -118zM1008 1341l90 109l22 -137l-18 4l-6 33l-49 12l-21 -25zM1020 92l4 17l29 6l26 -115l-16 -4l-23 100zM1057 1374l37 -8l-9 45z M1143 1300l65 111l31 -125l41 72l16 -8l-65 -107l-29 125l-43 -76zM1282 1235q0 26 17.5 44.5t43.5 18.5t45 -18.5t19 -44.5t-18.5 -43.5t-45.5 -17.5q-26 0 -43.5 17.5t-17.5 43.5zM1300 1235q0 -19 12 -31t31 -12q20 0 33 12t13 31q0 20 -13 32.5t-33 12.5 q-19 0 -31 -12.5t-12 -32.5zM1323 188q0 5 4 9t8 4q5 0 9 -4.5t4 -8.5t-4 -8t-9 -4t-8.5 4t-3.5 8zM1415 1069l113 59l-39 -120l72 36l8 -14l-111 -57l43 123l-78 -41zM1438 424l28 59l107 -53l-29 -59l-14 8l20 43l-26 12l-21 -43l-14 8l20 43l-36 19l-21 -43zM1475 952 l139 -26l-111 -86l-4 18l25 21l-13 49l-30 6zM1481 516l14 53l117 -28l-4 -17l-101 25l-12 -37zM1503 614l2 19l31 6l8 51l-26 19l4 18l114 -78zM1503 780l125 60v-19l-84 -39l88 -28v-19zM1528 924l10 -37l35 28zM1552 643l45 12l-38 27z" />
<glyph unicode="0" horiz-adv-x="2363" d="M104 819v17h37v6h166q3 0 17.5 3t21.5 3l2 2v360q-6 19 -16 31q-17 14 -41 14v19h-2v6h182v-4h35v-33h-35l-16 -8l-9 -14v-379q39 -17 66 -60h76q5 2 22 19q9 9 21 37l18 -2v-23q11 18 13 31l20 -2v-92q13 0 18 8q11 8 11 18v488q-2 7 -13 18q-14 14 -43 14v15h15 q37 0 90 16v-14q9 4 31 8v-381q8 43 51 86q29 26 55.5 36.5t65.5 12.5q4 0 14.5 1t19.5 1h17q48 0 78 -18v8h32v2h154v-27q-4 2 -10 2t-8 -2q-9 -6 -9 -14q0 -1 1 -4t1 -4l86 -201l70 176q4 12 4 17q0 23 -24 30l-29 2v19h26v2h119v-21q-5 -1 -14 -10q-9 -12 -12 -28 l-13 -35q11 23 31 49q51 51 117 59q10 2 28 2q47 0 70 -6v189q0 11 -8.5 18.5t-20.5 7.5h-4l-2 -2l-4 21q22 2 51 8q22 5 50 16v-14q7 2 24 12v-520q0 -23 8 -33q15 -18 37 -18h2v-17h-28v-8h-101v47q-48 -35 -80 -43v-102q0 -11 11 -14h100l-14 -37h-23l-8 -15h-68v-157 q0 -28 17 -45q20 -29 51 -29q2 0 7.5 1t8.5 1v-16q-12 -10 -30 -17q-12 -14 -35 -20q-20 -4 -27 -4q-19 0 -39 14q-18 13 -26 35v235h-35l28 47v115q-48 17 -73 62q-33 45 -33 108q4 41 12 55q-24 -56 -46.5 -111.5t-34.5 -85t-24 -58.5t-18 -42t-12.5 -26t-12 -18.5 l-12.5 -12.5q-17 -17 -45 -24q-25 -14 -59 -17v21q-4 -2 -10 -2q-12 0 -12 10h-7v-21q-1 -1 -3 -1.5t-3.5 -1t-1.5 -1.5q0 -8 -2 -12q-3 -40 -16 -59q-19 -26 -45 -45q-1 0 -2 -1.5t-2 -1.5l-31 -14q-27 -13 -90 -24h-4q0 -5 2 -9v-4q0 -26 30 -26h127q17 -2 41 -19 q14 -14 19 -24q8 16 8 22v180q8 4 16 4h15v9q12 4 16 4q3 0 7.5 1t6.5 1t8 -1t9 -1v-183q10 -14 26 -20v27l17 2l12 -27v41l19 2q6 -19 15 -28t30 -19q20 -10 39 -10h12q4 0 6 4v2q12 12 12 33q0 30 -24 51q-6 8 -16 12.5t-24 8t-20 5.5q-9 6 -26 13.5t-28.5 15.5t-18.5 21 q-13 23 -13 43q0 18 4 28q1 6 3.5 11.5t4.5 8.5t6 7.5t6 6.5t7.5 7t7.5 6q61 33 123 33q25 0 37 -2q8 -3 18 -10t15 -10v-60h-23q0 3 1 8t1 7t-4 14q0 2 -4 6v-47h-20q0 2 1 6t1 6t-2 8l-3 9q-14 14 -18 16l-8 4q-20 10 -33 10q-12 0 -18 -2q-3 -2 -15 -14q-6 -12 -6 -27 q0 -12 2 -18q4 -11 13 -18.5t23.5 -14.5t19.5 -10q11 -6 36 -10.5t37 -14.5q31 -24 35 -51q4 -16 4 -22q0 -24 -20 -54q-21 -35 -47 -43q-33 -24 -89 -30q-54 0 -88 20v16h-26q0 -2 6 -2v-14h-82q2 -8 2 -22q0 -36 -8 -52q-8 -24 -20.5 -36.5t-36.5 -26.5l-7 -4 q-32 -24 -34 -25q-26 -17 -74 -26q-14 -2 -37 -2q-32 0 -70 14q-16 7 -25 12.5t-19.5 15.5t-18.5 25q-12 21 -12 41v10q0 47 36 66q15 10 25 12q0 2 4 6q-12 6 -18 23q-6 12 -6 20q0 14 16 27q11 6 16 25v8q-38 22 -55 63q-8 28 -8 41q0 11 2 17l-25 -9l-53 -22h-18l-17 -15 h-110q-4 -8 -4 -22v-10q0 -24 24 -58l4 -4q30 -35 74 -43q12 -4 33 -4q22 0 41 8h4q19 7 33 19v-21q-32 -24 -50 -30q-44 -25 -79 -27h-15q-66 0 -104 33l6 -8h-47l16 -17h-98l-201 266v-200q0 -16 16 -25.5t35 -9.5h11v-19h-37v-16h-164v16h10q11 0 21 7q12 12 12 30v430 q-7 14 -12 19q-16 16 -37 16h-13zM119 0v29h2033v-29h-2033zM123 1376v29h2031v-29h-2031zM147 831h5q39 0 57 -38v-424q0 -15 -14 -27t-31 -14v-4h153v4h-8q-41 0 -55 41v436l78 14q9 6 18 6q19 0 31 -18q4 -4 4 -16t-7.5 -23t-19.5 -14l2 -11h86v-59q-22 -33 -32 -43 q-22 -29 -64 -43l-53 -4l205 -266h80l-213 264q33 6 53 16.5t43 34.5q23 22 33.5 44t13.5 54h141q12 0 21 9v88h-8q-5 -15 -17 -33q-18 -21 -45 -29h-96q-28 46 -68 62v385l11 18l18 6h31v23h-166v-13q20 0 35 -14t18 -35v-358q-36 -3 -63 -14h-177v-5zM162 57v17h2036v-17 h-2036zM166 1434v16h2034v-16h-2034zM262 590l31 2l-8 8l55 4q16 8 35 27q22 26 31 45v55h-84l-5 19q11 3 19 13.5t8 20.5q0 5 -4 13q-5 10 -18 14l-23 -6l-37 -6v-209zM381 586l162 -203q-17 35 -17 74q0 20 2 32q5 39 13.5 62.5t31.5 46.5q43 49 121 59q24 7 41 7 q22 0 53 -17q44 -23 58 -65l6 -23q13 35 57 59q25 17 47 23q16 6 56 14q8 0 20 1t17 1q25 0 45 -10q14 -4 30 -20h74v-17q19 0 29 4v7q12 0 18 2l8 6q41 28 41 76v14l-120 272q-4 7 -7.5 12t-10.5 11t-9 8q-17 14 -35 20l16 -14q35 -42 35 -113q0 -43 -14.5 -73.5 t-48.5 -59.5q-43 -40 -88 -47q-20 -9 -60 -12q-42 0 -70 10.5t-53 38.5q-31 31 -38 59v-47q10 -22 38 -26h2v-17h-34v-10h-125v12q-5 -8 -19 -8h-10q-8 -8 -25 -8h-102q-8 -49 -47 -88q-35 -40 -84 -51zM567 467q0 -48 31 -90q47 -58 125 -58h12q49 5 92 37v9 q-36 -23 -71 -23q-11 0 -35 4q-47 12 -76 45q-33 42 -33 72v6q0 29 29 39h127l8 12h-155q-9 15 -9 27q0 28 41 69q31 23 58 23h6q49 -8 71 -49q21 -30 21 -55v-9l39 17q0 18 -8 39q-13 39 -54 61q-25 14 -53 14q-13 0 -37 -4q-46 -10 -86 -47q-35 -37 -41 -104 q-2 -12 -2 -35zM621 547q0 -14 6 -23h143q0 21 -18 51q-25 43 -66 43h-16q-5 0 -13 -8q-13 -9 -24.5 -27t-11.5 -36zM698 1300q37 0 52 -38v-480q-2 -12 -13 -21t-24 -9v-7h112v7q-26 3 -41 30v533q-47 -15 -86 -15zM823 881q0 -56 43 -99q40 -43 107 -43h12q60 0 113 47 q59 56 59 129v13q0 58 -33 96q-42 47 -112 47h-15q-68 -3 -118 -47q-51 -48 -54 -117q-2 -8 -2 -26zM868 905q0 3 1 11t1 12q3 31 9 48.5t22 37.5q22 22 40 31.5t46 9.5h8q46 0 88 -56q29 -40 29 -110q-3 -56 -27 -84q-23 -39 -65 -47q-15 -6 -29 -6q-9 0 -33 8 q-24 10 -38 24.5t-29 42.5q-23 48 -23 78zM872 246q0 -20 15 -47q6 -13 15.5 -22t18 -13.5t27.5 -13.5q34 -15 62 -15q11 0 39 4q41 6 73 27q18 10 27.5 16.5t20 19t16.5 29.5q8 21 8 48q-3 43 -31 65q-18 16 -37 21h-131q-15 0 -24.5 10t-9.5 24q0 1 -1.5 4.5t-1.5 4.5 q0 9 7.5 15.5t17.5 6.5h16q1 0 12 1.5t12.5 1.5t10.5 1.5t11.5 2t9.5 2.5t11 4l10 5t11 7q36 17 48 39q13 25 16 59q0 3 1 10t1 10t-1 10t-1 11h25q4 -9 8 -10q4 0 8 2v35h-70q-16 16 -30 22q-20 10 -43 10q-19 0 -29 -2q-1 0 -4 -1t-4 -1h-6q-38 -7 -60 -22 q-25 -15 -38.5 -29t-20.5 -37q-2 -8 -2 -22q0 -21 8 -45q15 -44 55 -62v-12q-5 -18 -20 -25q-15 -12 -15 -24q0 -2 5 -17q9 -15 24 -20h131q41 -20 51 -29q18 -11 23 -29q4 -8 4 -22q0 -18 -6 -33q0 -1 -1 -2t-1 -2q-18 -48 -78 -63q-21 -7 -35 -7q-23 0 -47 15 q-46 19 -61 59q-11 19 -11 37v18q2 20 17 37v4q-31 -10 -43 -32q-10 -14 -13 -39zM874 911q0 -43 23 -80q12 -27 26 -41.5t38 -23.5q18 -6 34 -6h13q19 9 45 39q20 32 20 86v22q0 49 -24 84q-23 29 -40.5 42t-43.5 16q-30 -8 -58 -39q-27 -32 -33 -82v-17zM918 262 q0 -18 8 -39q7 -22 20.5 -33.5t38.5 -21.5q32 -14 51 -14q7 0 27 4q17 7 22 10q6 4 23 29q8 28 8 36q0 15 -4 23q-2 7 -5.5 12.5t-6.5 9t-9.5 8t-8.5 5.5l-11 5.5t-10 4.5q-4 2 -11.5 4t-11.5 4h-106q-6 -9 -14 -33v-2v-12zM928 545q0 34 14 55q18 26 51 37q8 2 21 2 q14 0 22 -2q30 -11 51 -40.5t21 -61.5v-9q-3 -32 -18 -51q-18 -27 -46 -33q-8 -2 -22 -2q-24 0 -53 19q-41 30 -41 86zM936 545q0 -57 37 -80q25 -19 47 -19q10 0 22 3q7 7 13 16q13 17 16 47q0 34 -16.5 63.5t-48.5 42.5h-2q-12 3 -23 3h-10q-11 -4 -23 -25 q-12 -14 -12 -51zM1128 1055q24 -5 54 -25q16 -13 24 -35l123 -268v-8q0 -54 -43 -86q-26 -17 -53 -17v-34q34 0 65 24q10 11 18 23t11 18t11 25t10 24l127 312q0 15 12 30l12 11v6h-104v-2l24 -4q27 -7 27 -35q0 -7 -4 -19l-78 -196q0 -6 -10 -6t-15 8l-90 219q-2 2 -2 8 q0 8 7 15.5t14 7.5h4v12h-144v-8zM1217 334l2 -8h84v4q-27 16 -37 30v181h-23l-12 -4v-170q-3 -15 -6 -21zM1323 555q0 -19 12 -43q8 -13 18.5 -20t32 -14t25.5 -9q7 -5 27.5 -12t31.5 -17q27 -27 27 -57q-3 -22 -12 -33q-10 -17 -43 -24q-4 -2 -15 -2q-17 0 -38 12 q-37 13 -50 45h-6v-57q33 -17 66 -17h18q38 3 61.5 13.5t39.5 37.5q20 27 20 52q0 4 -4 20q-6 27 -35 49q-11 9 -37.5 14.5t-36.5 10.5q-6 4 -20 10.5t-22.5 14t-12.5 20.5q-4 16 -4 22q0 16 8 29q13 22 45 27q6 2 19 2t39 -11l8 -4q22 -15 22 -39v-6h9v52q-6 4 -15 9.5 t-14 8.5q-24 6 -39 6q-3 0 -11 -1t-12 -1q-10 -1 -18.5 -3.5t-13 -4.5t-14 -8t-15.5 -9q-27 -15 -37 -38q-4 -16 -4 -25zM1485 893q0 -49 26 -92q19 -24 35 -36t43 -22v-118l-26 -35h34v-238q6 -18 21 -30q18 -15 39 -15q6 0 22 4t33 19v4h-10q-36 0 -55 31q-17 23 -17 49 v178h99l10 26h-97q-10 0 -10 15v110q52 20 94 56q3 6 11 6q12 0 12 -10v-2v-43h90v4q-28 7 -37 20q-10 13 -10 27q0 6 2 10v510q-22 -9 -43 -14l-41 -7l2 -8q18 0 27 -12q6 -12 6 -20v-207q-47 24 -80 24q-3 0 -11 -1t-12 -1q-67 -9 -110 -57q-26 -27 -35.5 -51t-11.5 -60 v-14zM1524 897q0 3 1 9t1 9q0 92 57 125q29 19 57 19q21 0 33 -4q53 -17 74 -64v-137q-5 -25 -23 -49q-35 -35 -84 -35l-10 21l-24 -13q-25 9 -37.5 19.5t-22.5 31.5q-22 31 -22 68zM1532 901q0 -40 18 -70q10 -18 20.5 -27.5t28.5 -17.5l7 5l2 -7l26 13l13 -21h14 q15 8 29 25q22 28 22 47v137q-19 47 -70 62q-16 4 -20 4q-24 -9 -35 -17q-32 -18 -43.5 -46.5t-11.5 -72.5v-14zM1714 453q0 5 1 16.5t1 17.5q6 70 43 109q32 32 70 45q14 9 45 16q35 5 37 5q28 0 61 -17q40 -23 56 -63q8 -24 8 -45l-25 -11v-2l-55 -24v6l-6 -6h-15l-12 -13 h-121q0 -2 -1 -4.5t-1 -3.5q-2 -4 -2 -14q0 -15 4.5 -27.5t10.5 -20.5t18 -22q27 -37 72 -45q14 -4 39 -4q29 0 71 25v-19l-31 -22q-37 -32 -92 -35h-16q-80 0 -127 61q-33 41 -33 97zM1745 471q0 -52 33 -96q44 -58 123 -58h16q29 1 48.5 9.5t43.5 29.5v6q-34 -22 -72 -22 q-10 0 -34 4q-45 10 -80 45l-4 4q-25 36 -25 62v12q0 17 6 27q7 9 21 12h129l8 12h-154l-10 6v15q0 47 41 75q33 23 63 23q47 -9 72 -49q17 -26 17 -53v-11l43 17q0 11 -7 39q-17 39 -55 61q-28 14 -57 14q-9 0 -37 -4q-46 -8 -82 -47q-24 -24 -33 -46t-12 -58q0 -5 -1 -15 t-1 -14zM1798 528l8 -6h150q0 27 -19 49q-25 44 -67 47h-21q-1 -3 -12 -10q-34 -22 -39 -63v-17zM1841 1075v19q7 17 10 39q7 25 7 34l38 17v-13l27 11q-3 -37 -18 -62q-3 -7 -6 -12t-7 -9.5t-6.5 -7t-8.5 -7.5t-9 -7v17q4 12 4 14q-7 -13 -31 -33zM1870 977q0 14 6 29 q2 5 4.5 9.5t5 7.5t6.5 7l6 6t7.5 6.5t7.5 6.5q28 19 65 22q8 2 23 2h10h2q4 0 12.5 1t12.5 1q15 0 33 -6q18 -7 30 -20v-60h-20q0 3 1 9t1 8t-4 14l-2 2v-35h-23q0 2 1 6t1 6q0 10 -6 19q-4 10 -14 14l-8 4q-13 8 -31 11q-25 -6 -35 -27q-10 -10 -10 -25q0 -4 4 -20 q3 -11 10.5 -18t23.5 -14.5t21 -10.5q9 -4 34.5 -9t39.5 -16q25 -19 35 -49q2 -8 2 -20q0 -28 -19 -56q-19 -37 -71 -51q-24 -12 -62 -12h-20q-34 0 -70 16v70h18q0 -2 11 -23v29l14 2q7 -20 17.5 -29.5t31.5 -17.5q20 -10 33 -10q8 0 14 2q6 3 15 12q10 12 10 31v6 q0 22 -23 49q-10 7 -30.5 14.5t-28.5 12.5q-7 3 -22 9t-22.5 9.5t-17.5 11t-16 17.5q-14 28 -14 47zM1872 1087q20 16 29 35q13 24 16 52l-27 -11q-4 -24 -6 -30q-8 -30 -12 -39v-7zM1905 981q0 -23 12 -41q7 -14 17 -21.5t31 -14.5t24 -9q5 -3 27.5 -10.5t31.5 -18.5 q29 -29 29 -53v-10q-3 -17 -15 -29q-12 -17 -39 -24q-2 0 -7 -1t-7 -1q-15 0 -39 12q-42 17 -49 45h-8v-57q35 -17 84 -17q39 5 62 15.5t40 37.5t17 50q0 12 -5 22q-5 29 -30 49q-11 7 -35.5 12.5t-36.5 12.5q-5 2 -18 7.5t-18 8.5t-12 10t-11 17q-4 16 -4 22q0 17 10 29 q16 23 41 29q8 2 20 2q16 0 39 -13l6 -2q25 -12 25 -36v-9h10v52q-14 11 -31 16q-19 8 -38 8q-3 0 -11 -1t-12 -1q-37 -6 -61 -25q-29 -19 -35 -38q-4 -16 -4 -25zM2021 596v25h27v10q36 0 51 10l2 2q9 6 15 6t18 -6l2 -27q0 -10 2 -14l8 6q13 16 27 23l27 12q16 8 34 8 q20 0 39 -8l-14 -59q-10 0 -25 6l-2 -21q-19 3 -34 21q-8 2 -19 2q-12 0 -16 -2q-13 -13 -17 -23q-4 -16 -4 -20v-174q-2 -4 -2 -11q0 -6 8 -18q13 -16 29 -16h8v-19h-24v-16h-138v14q16 3 25 12v7h4q8 11 8 24v228q-4 16 -18 16zM2052 612l19 -2q16 0 20 -20v-221 q0 -40 -37 -50v-4h127v4q-23 0 -35 21q-10 10 -10 27v180q0 11 6 20q7 27 39 37q20 4 25 4q2 0 7.5 -1t8.5 -1q4 -4 16 -12l15 -4l12 49q-15 6 -31 6q-19 0 -32 -8q-6 -3 -29 -21l-27 -30q-8 5 -10 10q-4 12 -4 14v6l-6 23q-2 2 -8 2q-4 0 -12 -4.5t-13 -5.5q-32 -4 -41 -4 v-15zM2146 309h15h-15z" />
<glyph unicode="1" horiz-adv-x="2314" d="M102 725q0 153 59.5 292.5t160 240t240 160t292.5 59.5q51 0 76 -4l2 -226h-2q-35 6 -74 6q-143 0 -264.5 -71t-192.5 -193t-71 -266t71 -265.5t192.5 -192t264.5 -70.5q51 0 74 4v-224q-50 -4 -76 -4q-153 0 -292.5 60t-240 161t-160 240.5t-59.5 292.5zM930 1247h2h-2z M1382 723q0 153 60 292t161 240t240.5 160.5t292.5 59.5q14 0 76 -5v-225q-37 6 -74 6q-189 0 -333.5 -117.5t-184.5 -299.5h440v-224h-440q39 -182 184 -301t334 -119q30 0 74 7v-224q-50 -4 -76 -4q-153 0 -292.5 60t-240.5 161t-161 240.5t-60 292.5z" />
<glyph unicode="2" horiz-adv-x="1595" d="M102 725q0 158 62 303t167 250t250 167t304 62q179 0 337 -76.5t271 -211.5l-156 -129q-81 101 -199 159t-253 58q-118 0 -226 -46.5t-186 -124.5t-124 -185.5t-46 -225.5q0 -158 77.5 -292.5t212 -213t292.5 -78.5q134 0 252.5 58.5t199.5 158.5l156 -127 q-113 -135 -271 -211.5t-337 -76.5q-159 0 -304 62t-250 166.5t-167 249.5t-62 304zM391 598l146 41q22 -114 131 -201v201l-265 254q43 129 158 223t258 111v-305h-151v90q-53 -44 -78 -82l229 -221v-488q-144 18 -267 119.5t-161 257.5zM956 223v1004q78 -10 154 -49 t140 -100.5t103.5 -154t39.5 -198.5q0 -175 -117 -324l-113 97q60 71 72 149h-129v-379q-50 -31 -150 -45zM1106 797h129q-26 127 -129 211v-211z" />
<glyph unicode="3" horiz-adv-x="1708" d="M102 725q0 153 59.5 292.5t160 240t240 160t292.5 59.5t292.5 -59.5t240 -160t160 -240t59.5 -292.5t-59.5 -292.5t-160 -240t-240 -160t-292.5 -59.5t-292.5 59.5t-240 160t-160 240t-59.5 292.5zM186 725q0 -182 89.5 -336t243 -243t335.5 -89q183 0 337 89t243.5 243 t89.5 336t-89.5 336t-243.5 243t-337 89q-182 0 -335.5 -89t-243 -243t-89.5 -336zM367 522v82h446v615h82v-615h448v-82h-976zM528 365v84h654v-84h-654zM672 207v84h364v-84h-364z" />
<glyph unicode="4" horiz-adv-x="1878" d="M102 725l418 725h838l418 -725l-418 -725h-838zM203 725l368 -637h736l368 637l-368 637h-736zM475 535q0 62 29 113.5t80 84.5q-50 33 -79.5 85.5t-29.5 113.5q0 100 69.5 169.5t168.5 69.5t172 -73l-70 -56q-41 41 -102 41q-62 0 -106 -44t-44 -107q0 -62 44.5 -106 t105.5 -44h75v-98h-75q-62 0 -106 -43t-44 -106t44 -107.5t106 -44.5t102 43l70 -57q-75 -72 -172 -72q-98 0 -168 70t-70 168zM981 291v96q9 0 16.5 1.5t14 6t11.5 8t11.5 12t9 12.5t9 14.5t8.5 13.5q25 45 49 86q-59 97 -88 133q-14 14 -41 14v94q41 1 71 -15t44.5 -34.5 t42.5 -60.5q6 -12 24 -39q46 71 76 104q41 48 111 45v-94q-27 0 -39 -14q-35 -37 -92 -137q55 -96 90 -136q9 -10 16.5 -13t24.5 -1v-96q-31 -1 -54.5 6.5t-43.5 26.5t-31 33.5t-31 45.5q-5 7 -23 39q-48 -75 -73 -104q-48 -50 -113 -47z" />
<glyph unicode="5" horiz-adv-x="1769" d="M102 725q0 159 62 304t167 250.5t250 167.5t304 62t304 -62t250.5 -167.5t167.5 -250.5t62 -304t-62 -304t-167.5 -249.5t-250.5 -166.5t-304 -62t-304 62t-250 166.5t-167 249.5t-62 304zM121 725q0 -155 60.5 -296.5t163 -244t244 -163t296.5 -60.5t297 60.5t244.5 163 t163.5 244t61 296.5t-61 297t-163.5 244.5t-244.5 163.5t-297 61t-296.5 -61t-244 -163.5t-163 -244.5t-60.5 -297zM137 725q0 153 59 291.5t159 239t239 160t291 59.5t291 -59.5t239 -160t159.5 -239t59.5 -291.5t-59.5 -291.5t-159.5 -238.5t-238.5 -159t-291.5 -59 t-291.5 59t-238.5 159t-159 238.5t-59 291.5zM162 924q7 25 28 82zM166 725q0 -146 57 -279.5t153 -229.5t229.5 -153t279.5 -57t279.5 57t230 153t154 229.5t57.5 279.5t-57.5 279.5t-154 230t-230 154t-279.5 57.5t-279.5 -57.5t-229.5 -154t-153 -230t-57 -279.5z M268 1034q0 2 4 10l39 68q18 29 45 29q18 0 34 -12t16 -35q0 -17 -11 -39l-8 -19q21 -16 31 -16q2 0 7 4t11 4q8 0 8 -10q0 -4 -2 -6l-20 -39q-6 -12 -14 -12q-7 0 -7 8v6q0 8 -4 10l-96 51h-2q-3 0 -9 -6t-11 -6q-11 0 -11 10zM313 1075l54 -28q12 12 12 30q0 11 -10.5 20 t-24.5 9q-18 0 -31 -31zM399 1208q0 6 9 15q13 16 44 43.5t52 38.5q5 -1 10 -4.5t7.5 -6.5t7.5 -9.5t6 -8.5q2 -2 2 -8q0 -8 -7 -8q-6 0 -17 5t-17 5q-12 -2 -39 -27q-2 -2 -2 -8v-4q3 -3 8 -10t9.5 -10t10.5 -3h4q9 4 9 21v8q0 2 4 2h4q7 -3 12.5 -8t13.5 -15.5t9 -11.5 q2 -2 2 -6q0 -8 -9 -8h-4q-12 6 -16 6t-6 -2q-6 -3 -6 -8q0 -1 2.5 -5t3.5 -7q21 -25 29 -25h2q3 3 15 11t15 14q4 8 4 14q0 4 -5 13t-5 13q0 6 8 9h2q4 0 7 -2.5t6.5 -7.5t5.5 -7q1 -3 5 -8t6.5 -9.5t2.5 -8.5q0 -2 -4 -6l-90 -74q-8 -4 -10 -4q-6 0 -6 10l6 10q0 1 1 3 t1 3t-1 2t-1 2l-72 78q-2 2 -6 2q-2 0 -7 -1t-7 -1q-9 0 -9 4zM406 889q0 4 3.5 7.5t9.5 7.5t9 7q53 7 155.5 15t143.5 14l2 4q-21 5 -85.5 5t-110.5 5t-46 23q0 13 17 27q17 0 45 -7.5t35 -7.5q13 0 38.5 6t36.5 6q18 0 44 -5t40 -5q24 0 48 8l14 39q-7 2 -17 2 q-7 0 -26 -5t-27 -5q-16 0 -38.5 7t-34.5 7q-8 0 -38 -7t-46 -7q-21 0 -39 12l34 37q22 1 50.5 7t40.5 6q14 0 39 -6.5t36 -6.5q15 0 42 6.5t42 6.5l17 38h-15q-16 0 -43.5 -5t-40.5 -5t-42 7.5t-44 7.5q4 13 62 29t86 16q36 0 51 -6q3 3 16 26t23 29q13 -5 26 -30t21 -25h4 q21 6 39 6q27 0 82.5 -19.5t58.5 -32.5q-7 -1 -19 -4.5t-21.5 -5.5t-18.5 -2q-14 0 -42 6t-44 6q-15 0 -23 -2q-2 -4 -2 -8t6 -13t9 -15h8q11 0 20 -3q8 -1 29.5 -7.5t34.5 -6.5q15 0 45 8.5t45 8.5q22 0 39 -9t45 -34v-9l-4 -8q-15 0 -21 -2q-11 1 -33 5.5t-34 4.5 q-15 0 -44 -7t-42 -7q-11 0 -33 7t-33 7h-4v-6q0 -10 14 -33q50 -12 72 -12q11 0 36.5 2t45.5 2h21q7 0 20.5 -3t20.5 -3q37 0 49 10l8 4h2q24 -10 24 -24q11 -14 11 -21q0 -6 -15 -6h-20q-31 -8 -51 -8q-13 0 -35 4t-41 4h-8q-15 0 -44 -7t-44 -7q-2 0 -8 1t-9 1l17 -21 l307 -26l6 -6v-2q0 -4 -9 -14t-9 -15v-2q-2 -2 -7.5 -2.5t-5.5 -3.5q4 -6 13 -11t12 -22q2 -8 2 -20q0 -5 -2 -7h-6q-18 0 -36.5 8.5t-25.5 8.5q-19 0 -61 -39l-12 -12h8q12 0 37.5 4t40.5 4q31 0 59 -17q6 -3 6 -24q0 -17 -6 -23q-15 0 -39 8.5t-37 8.5q-22 0 -80 -15h-6 q-4 0 -10.5 1t-9.5 1q-13 0 -21 -18l-4 -10q27 -8 55 -8q16 0 42.5 4t39.5 4q24 0 68 -21l-12 -43q-30 15 -60 15q-16 0 -42 -6.5t-42 -6.5q-12 0 -18 2q-44 11 -47 11q-2 0 -6.5 -1.5t-6.5 -1.5q5 -10 5 -20v-8q0 -6 2 -8q3 -2 41.5 -8.5t44.5 -6.5q52 13 82 13 q23 0 36 -13l-16 -41q-10 2 -27 2q-14 0 -43 -3t-43 -3q-31 0 -47 6h-12q-8 0 -10 -2v-6q0 -16 6 -28l47 -15q2 0 7 -1t7 -1q14 0 43 6t43 6h6l-26 -47q-8 -3 -17.5 -5t-20.5 -4t-17 -3h-9q-9 0 -28 4t-21 4h-2q-4 0 -4 -8q0 -4 1 -9l1 -5q1 -11 10 -17t16.5 -7.5t22.5 -2 t17 -0.5q-10 -14 -49 -45v-6q0 -6 2 -19t2 -16q0 -10 -11 -10q-10 0 -18 4q-4 2 -15.5 11t-25.5 20.5t-16 13.5q-4 0 -14 -1t-15 -1q-15 0 -45.5 6t-48.5 6q-12 0 -36 -6t-34 -6q-19 0 -48 8t-42 8q-8 0 -29 -5t-43 -5q-9 0 -19 1t-16 1t-18.5 -8t-23.5 -16t-24 -18l-13 -11 q-7 -17 -13 -17q-18 0 -18 56q0 21 -21.5 39t-23.5 24q8 -4 28 -4q15 0 23 2l16 68q-4 4 -10 4q-2 0 -6 -1t-6 -1h-10q-13 0 -37.5 5.5t-36.5 6.5h-16q-16 0 -21 10l-12 33q8 4 28 4q15 0 49.5 -5t51.5 -5q12 0 28 4q9 14 9 41q-7 0 -22.5 -3t-22.5 -3q-16 0 -47 6t-48 6 q-8 0 -25 -2t-20 -2l-14 43q15 12 43 12q17 0 58 -5t61 -5q23 0 41 6l-2 37q-9 0 -30 -3t-28 -3q-8 0 -33 6t-44 6q-12 0 -37 -3t-37 -3l-10 41q62 12 92 12q12 0 41 -3t53 -3h18q-19 20 -29 29.5t-25.5 17t-33.5 7.5q-19 0 -54 -6.5t-52 -6.5h-8l4 47q5 2 40.5 7.5 t41.5 5.5v4l-68 67q-22 14 -22 23zM594 1350q0 9 12 12l111 39h4q6 0 10 -8q12 -30 12 -43q0 -9 -6 -9q-7 0 -17 12.5t-20 14.5q-2 0 -5 1t-5 1q-8 0 -33 -10l41 -105q2 -7 11.5 -8t11.5 -4q0 -1 1 -3t1 -3q0 -5 -8 -8l-41 -19q-6 -2 -10 -2q-11 0 -11 6q0 3 5.5 9t5.5 10v4 l-41 100q0 4 -7 4q-2 0 -6 -1t-6 -1q-4 0 -6 2q-4 4 -4 9zM655 719q0 -97 68.5 -165.5t165.5 -68.5t166 68.5t69 165.5t-69 166t-166 69t-165.5 -69t-68.5 -166zM659 307v4h11q12 0 34 -5t33 -5q9 0 36 6t44 6q20 0 42.5 -8t33.5 -8q13 0 41 6t41 6q14 0 39 -6t37 -6 q11 0 31 4.5t30 5.5q-22 -22 -76 -37q-40 -8 -59 -8h-10q-12 0 -36.5 -7t-37.5 -7q-8 0 -36 6t-58 6t-73 16.5t-67 30.5zM666 719q0 94 64.5 159.5t158.5 65.5t159.5 -65.5t65.5 -159.5t-65.5 -158.5t-159.5 -64.5t-158.5 64.5t-64.5 158.5zM705 676h30v22h17q19 0 32 13 t13 30t-13 29t-30 12h-49v-106zM735 723v35h13q8 0 13 -6t5 -13q0 -16 -18 -16h-13zM748 641l20 -57l16 6q18 -15 50 -29t57 -14t56.5 14t49.5 29l17 -6l20 57l-59 4v-20q-34 -25 -62 -29v139h43v39h-43v27q35 16 35 53q0 25 -16 41t-41 16t-41 -16t-16 -41q0 -38 34 -53 v-29h-43v-37h43v-139q-27 3 -61 29v20zM782 401q3 0 9.5 1t9.5 1q17 0 46.5 -7t49.5 -7q10 0 34.5 5t33.5 5q4 0 19 -2t32 -2q-2 2 -4 2q-49 43 -64 43q-8 0 -29 -5t-28 -5q-11 0 -24 3t-17 3t-35 -16.5t-33 -18.5zM801 1407l2 6q12 6 39 6q32 0 32 -10q0 -4 -6 -9t-6 -9 v-64q0 -6 4 -6q3 0 15 12l2 2l2 2q35 39 37 56q-1 1 -4.5 3t-5 4t-1.5 5v4q3 6 23 6q27 0 39 -4q6 0 6 -6q0 -5 -7 -8.5t-7 -7.5v-107q0 -4 9 -11t9 -11q0 -9 -10 -9q-5 0 -21.5 1t-29.5 1t-13 11q0 4 8.5 9t8.5 9v68q-46 -52 -58 -70q4 -11 13 -14l-4 -11q-9 0 -27 -1 t-27 -1h-12q-6 6 -6 9q0 2 9 8t9 14v105q0 6 -11 9.5t-11 8.5zM817 143v4q5 13 47 13q16 49 29 49q11 0 27 -49q25 0 34.5 -2.5t10.5 -10.5v-4q0 -12 -14 -19.5t-15 -10.5q0 -2 4 -19t4 -24q0 -13 -8 -13t-23 12t-20 21q-5 -9 -21 -22t-24 -13t-8 15q0 7 4 24t4 19 q-2 1 -8 5l-10.5 7t-8.5 8t-4 10zM866 854q0 11 7.5 19t17.5 8t17 -8t7 -19t-7 -18t-17 -7q-11 0 -18 7.5t-7 17.5zM989 729q0 -25 16.5 -41t41.5 -16q19 0 32 10l-18 23q-9 -3 -14 -3q-10 0 -17.5 8t-7.5 19t7.5 19t17.5 8q6 0 14 -4l18 24q-15 10 -32 10q-25 0 -41.5 -16 t-16.5 -41zM1042 1272q0 -29 23.5 -51.5t52.5 -22.5q21 0 34 13t13 24q0 6 -6 6t-18 -12t-23 -12q-15 0 -25 9.5t-10 26.5q0 35 21.5 64t38.5 29q16 0 24 -19q2 -4 2 -14q0 -13 -4 -33l9 -6l10 2q4 6 26 49v2q-8 10 -12 10q-4 -4 -8 -4q-2 0 -6 4q-28 31 -58 31 q-41 0 -67 -41q-17 -27 -17 -55zM1221 1137v4q0 4 6 4q2 0 6 -1t6 -1h2l78 82v6v2q-4 4 -10 4h-13q-20 -8 -30 -14q-2 -2 -6 -2q-5 0 -5 2q-4 4 -4 6l2 4q9 15 21 24l18 17h4q7 0 13 -6l86 -82q2 -2 2 -6q0 -7 -2 -9q-4 -4 -11 -12.5t-13 -14t-13 -9.5q-6 0 -12 6 q0 7 9 17.5t9 17.5q0 16 -8 24h-6l-76 -80q-2 -2 -2 -8v-8q0 -8 -8 -8h-2l-39 34q-2 2 -2 7zM1327 1022l4 2q3 0 9.5 -4t9.5 -4q1 0 2 1t2 1l92 57l2 4q0 2 -2 7t-2 8q0 4 2 6q3 6 8 6q7 0 14 -10l39 -68q9 -22 9 -31q0 -8 -7 -22q-17 -25 -41 -25q-12 0 -24 6 q-19 10 -29 29l-12 16q-25 -10 -29 -18q-2 -4 -2 -12q0 -4 -2 -8q0 -5 -6 -5t-10 7l-23 39q-4 4 -4 18zM1421 1014q6 -18 21 -27q4 -2 12 -2q18 0 31 19q2 2 2 10q0 10 -12 30z" />
<glyph unicode="6" horiz-adv-x="1685" d="M102 502v442q0 31 21.5 52.5t52.5 21.5h227v358q0 31 20.5 51.5t51.5 20.5h739q31 0 51.5 -20.5t20.5 -51.5v-358h223q31 0 52.5 -21.5t21.5 -52.5v-442q0 -31 -21.5 -51.5t-52.5 -20.5h-223v-358q0 -31 -20.5 -51.5t-51.5 -20.5h-739q-31 0 -51.5 20.5t-20.5 51.5v358 h-227q-31 0 -52.5 20.5t-21.5 51.5zM170 520q0 -11 8.5 -18.5t20.5 -7.5h1288q11 0 18.5 8t7.5 18v408q0 10 -7.5 18t-18.5 8h-1288q-12 0 -20.5 -7.5t-8.5 -18.5v-408zM240 723q0 66 45.5 112t111.5 46q38 0 74 -19l-20 -39q-30 13 -54 13q-47 0 -79.5 -33t-32.5 -80 q0 -46 32.5 -78.5t79.5 -32.5q28 0 54 13l20 -39q-35 -21 -74 -21q-66 0 -111.5 46.5t-45.5 111.5zM467 90q0 -10 8.5 -18.5t18.5 -8.5h702q10 0 18.5 8.5t8.5 18.5v340h-756v-340zM467 1018h756v340q0 10 -8 18t-19 8h-702q-11 0 -19 -8t-8 -18v-340zM526 575v297h193v-45 h-148v-63h117v-47h-117v-96h148v-46h-193zM758 575v297h102q44 0 63 -19t19 -42q0 -43 -16 -61q49 -22 49 -80q0 -95 -105 -95h-112zM803 639q0 -7 5.5 -12.5t12.5 -5.5h60q20 0 33.5 13.5t13.5 35.5q0 20 -13.5 33.5t-33.5 13.5h-78v-78zM803 764h61q14 0 23.5 9t9.5 22 t-9.5 22.5t-23.5 9.5h-43q-7 0 -12.5 -5.5t-5.5 -12.5v-45zM1010 575v297h192v-45h-147v-63h119v-47h-119v-96h147v-46h-192zM1212 721q0 65 47 111.5t111 46.5q40 0 74 -21l-19 -39q-30 15 -55 15q-46 0 -79.5 -33.5t-33.5 -79.5t33.5 -79.5t79.5 -33.5q29 0 53 15l21 -39 q-34 -21 -74 -21q-64 0 -111 46.5t-47 111.5z" />
<glyph unicode="7" d="M102 608q0 101 71.5 173.5t172.5 72.5t173.5 -72.5t72.5 -173.5t-72 -172t-174 -71q-101 0 -172.5 71t-71.5 172z" />
<glyph unicode="8" horiz-adv-x="978" d="M102 143q0 49 37 115h90q-2 -2 -6 -5.5t-7.5 -7t-6.5 -7.5q-39 -39 -39 -93q0 -25 10 -43q10 -24 37 -43.5t74 -19.5q31 0 67 12q22 9 39.5 24t27 27.5t26.5 38.5l8 15q28 46 65 77q63 58 152 58q44 0 84 -15q54 -22 85.5 -69.5t31.5 -104.5q0 -59 -33 -118h-86l4 4 q19 23 28.5 36.5t19 36t9.5 45.5q0 42 -35 79.5t-108 37.5q-37 0 -60 -10q-21 -9 -41.5 -29t-31 -35t-29.5 -43l-6 -10q-24 -36 -43 -55q-71 -74 -172 -74q-38 0 -68 10q-18 6 -35.5 16t-39 29t-35 50.5t-13.5 70.5zM102 1358q0 32 8.5 55.5t28.5 59.5h90l-20 -21 q-39 -39 -39 -92q0 -21 10 -41q10 -25 37 -45.5t74 -20.5q14 0 27.5 2.5t25 6t14.5 4.5q22 9 40.5 25.5t27.5 29t27 39.5l6 10q32 49 65 80q64 57 152 57q45 0 84 -16q52 -20 84.5 -68.5t32.5 -105.5q0 -61 -33 -117h-86q20 23 30.5 36.5t20.5 37t10 47.5q0 42 -35 80.5 t-108 38.5q-30 0 -60 -13q-12 -5 -23.5 -13.5t-19 -15t-19 -21.5t-16 -20.5t-16.5 -24t-14 -21.5q-26 -39 -43 -56q-70 -73 -172 -73q-44 0 -68 12q-24 7 -49 22t-49.5 53t-24.5 89zM113 500v63l759 156v-76l-155 -27v-161l155 -29v-74zM113 799v98q0 33 1 47.5t8 37.5 t23 42q47 53 162 53q93 0 142 -47q24 -30 32 -43q23 53 58 76q50 31 129 31q94 0 149 -41q1 -1 8 -9t12 -14.5t12 -18t11 -22.5q12 -31 12 -78v-112h-759zM174 866h277q0 83 -21 109q-32 35 -123 35q-4 0 -13.5 -1t-14.5 -1q-60 0 -89 -31q-16 -18 -16 -72v-39zM244 532 l413 -71v145zM508 866h305q2 14 2 41q0 60 -37 90q-20 14 -43 23q-25 6 -59 6q-77 0 -121 -29q-23 -11 -35 -36q-12 -24 -12 -95z" />
<glyph unicode="9" horiz-adv-x="1224" d="M104 637q0 31 23 125h102q-34 -74 -34 -113q0 -38 17 -68.5t43 -50t65.5 -34t75.5 -22t83 -11.5t77.5 -5t68.5 -1t61.5 0.5t71 4t79.5 10t72 20t64.5 32.5t41.5 49t17 68q0 45 -35 121h93q32 -78 32 -131q0 -266 -497 -266q-521 0 -521 272zM111 895v98h1005v-98h-1005z M111 1192v315h84v-225h358v219h80v-219h397v225h88v-315h-1007zM113 0v96h917v215h88v-311h-1005z" />
<glyph unicode=":" horiz-adv-x="1552" d="M154 750q0 98 5 178.5t18 166t38 149.5t62 116.5t93.5 80t129.5 27.5q115 0 186.5 -67.5t112.5 -200.5l-135 -47q-9 50 -25.5 88t-52 67t-84.5 29q-35 0 -64 -13t-50 -33.5t-37.5 -55t-27.5 -66t-18.5 -79.5t-11 -83.5t-5.5 -89.5t-2.5 -85t-0.5 -82q0 -84 1 -140.5 t5.5 -129t13 -120t24.5 -98t38 -79.5t55.5 -47.5t75.5 -18.5q45 0 79.5 24t52.5 63t27 81.5t9 87.5q0 6 -0.5 29t-1 84.5t-0.5 158.5h-197v123h328l-2 -389q0 -70 -15 -134.5t-47.5 -125.5t-95.5 -98t-148 -37q-51 0 -94 15t-75 40t-57.5 65t-42.5 81.5t-29 99t-18.5 108 t-10.5 118t-5 119t-1 120.5zM1053 0v1450h139v-1325h309v-125h-448z" />
<glyph unicode=";" horiz-adv-x="1603" d="M205 0v1450h186q86 0 139 -11.5t105 -54.5q51 -41 76.5 -110.5t25.5 -194.5q0 -178 -92 -272q-27 -27 -80 -62q38 -17 58.5 -27.5t46 -31.5t43.5 -49q57 -92 57 -248q0 -108 -21 -173t-61 -110q-58 -58 -113 -82t-157 -24h-213zM336 111h47.5t49 1t41 4.5t43 10.5 t35 20.5t34.5 32.5q53 70 53 195q0 151 -53 231q-9 16 -27.5 35t-44.5 31q-30 13 -66.5 17.5t-111.5 4.5v-583zM336 803q158 0 207 43q63 53 63 231q0 9 -1 28.5t-1 29.5q0 112 -57 165q-24 21 -63 27t-115 6h-33v-530zM854 1450h135q49 -287 86 -473q63 -332 80 -426 q26 -157 51 -334l209 1233h137l-290 -1450h-115z" />
<glyph unicode="&#x3c;" horiz-adv-x="2230" d="M0 721l1315 346v-299h917v-92h-917v-299z" />
<glyph unicode="=" d="M102 608q0 101 71.5 173.5t172.5 72.5t173.5 -72.5t72.5 -173.5t-72 -172t-174 -71q-101 0 -172.5 71t-71.5 172z" />
<glyph unicode="&#x3e;" horiz-adv-x="2230" d="M-2 676v92h917v299l1315 -346l-1315 -344v299h-917z" />
<glyph unicode="?" d="M102 608q0 101 71.5 173.5t172.5 72.5t173.5 -72.5t72.5 -173.5t-72 -172t-174 -71q-101 0 -172.5 71t-71.5 172z" />
<glyph unicode="@" horiz-adv-x="1736" d="M121 0l348 1448h1126l-321 -1448h-1153zM469 106q25 -2 74 -2q215 0 358.5 88t183.5 211q19 59 19 99q0 44 -19 88t-41.5 75t-68.5 85l-29 32q-38 39 -59 63t-47.5 69t-26.5 79q0 11 4 27q13 38 42 67t71.5 45.5t81 27t90.5 14.5t78.5 5t66.5 1v133q-50 4 -76 4 q-113 0 -220.5 -32t-188.5 -95.5t-105 -145.5q-16 -39 -16 -83q0 -65 37.5 -129t114.5 -160q43 -44 60.5 -63t40.5 -49t30.5 -53.5t7.5 -51.5q0 -25 -6 -52q-19 -48 -69.5 -81.5t-120 -50t-134 -23t-133.5 -6.5v-136z" />
<glyph unicode="A" horiz-adv-x="1724" d="M51 723q0 19 12 31l771 770q10 10 28 10q16 0 29 -10l770 -770q12 -12 12 -31q0 -17 -12 -29l-770 -770q-12 -12 -29 -12q-16 0 -28 12l-771 770q-12 12 -12 29zM152 723l710 -711l711 711l-711 711zM434 483q0 17 10 47l68 267q19 73 63 73q43 0 62 -73l68 -267 q10 -30 10 -47q0 -25 -12.5 -39t-32.5 -14q-35 0 -43 37l-4 20h-97l-4 -20q-8 -37 -41 -37q-21 0 -34 14t-13 39zM516 963q0 43 39 43h623q39 0 39 -48q0 -45 -39 -45h-269v-49q23 -10 40.5 -29.5t23.5 -34.5l6 -14l-70 -65v-16q34 -11 64.5 -44t30.5 -92q0 -49 -26.5 -84 t-68.5 -49v-51q0 -26 -12.5 -39.5t-32.5 -13.5q-43 0 -43 55v49q-56 16 -94 84l94 92v25q-84 41 -84 113q0 38 23.5 71t60.5 47v47h-266q-39 0 -39 48zM549 578h51l-25 108zM1014 483q0 5 1.5 14t3.5 19t3 14l68 267q19 73 63 73q45 0 64 -73l67 -267q1 -3 5.5 -21.5 t4.5 -25.5q0 -25 -13 -39t-34 -14q-31 0 -41 37l-6 20h-94l-4 -20q-8 -37 -43 -37q-20 0 -32.5 14t-12.5 39zM1126 578h54l-27 108z" />
<glyph unicode="B" horiz-adv-x="1730" d="M102 1112q0 157 110.5 262t268.5 105h766q159 0 269 -105t110 -262v-20q0 -109 -33 -170l-432 -816q-85 -163 -297 -163q-210 0 -295 163l-434 816q-15 30 -23 64.5t-9 58t-1 67.5zM178 1092q0 -89 25 -136l432 -811q66 -127 229 -127t232 127l430 811q13 23 19 53 t6.5 47.5t0.5 55.5q0 125 -89 208t-216 83h-766q-127 0 -215 -83t-88 -208v-20zM557 399v858h369q46 0 99 -8t75 -24q40 -28 67 -79t27 -120q0 -60 -18 -109t-32 -65.5t-22 -22.5q22 -20 36 -38t27 -59.5t13 -96.5q0 -47 -26 -100t-82.5 -94.5t-128.5 -41.5h-404zM700 549 h179q56 0 76.5 2t33.5 12q2 1 7.5 4.5t7 4.5t6 4.5t6 5.5t5 6t5 7.5t3.5 9t3 11.5t1.5 14t0.5 17q0 60 -55 84q-16 8 -70 8h-209v-190zM700 903h199q73 0 104 20t31 76q0 54 -32.5 73.5t-92.5 19.5h-209v-189z" />
<glyph unicode="C" d="M102 608q0 101 71.5 173.5t172.5 72.5t173.5 -72.5t72.5 -173.5t-72 -172t-174 -71q-101 0 -172.5 71t-71.5 172z" />
<glyph unicode="D" horiz-adv-x="1769" d="M102 727q0 163 65 309t172.5 248.5t252 162.5t299.5 60q212 0 391.5 -108.5t282 -288t102.5 -385.5t-102.5 -385.5t-282 -288t-391.5 -108.5q-126 0 -244.5 38.5t-216.5 110t-172 167t-115 216.5t-41 252zM233 729q0 -180 90.5 -330.5t241 -235.5t324.5 -85 q132 0 252 53.5t206 142t136.5 207.5t50.5 246t-50 246t-135 207t-205.5 141t-254.5 53q-128 0 -248 -49.5t-210 -134.5t-144 -206t-54 -255zM580 381q0 14 11 23.5t25 9.5v618q-13 0 -24.5 9.5t-11.5 23.5q0 15 9.5 24t24.5 9h293q149 0 253 -112t104 -263 q0 -150 -104.5 -262.5t-252.5 -112.5h-291q-16 0 -26 11t-10 22zM758 414h106q97 0 159 60.5t62 152.5v192q0 94 -61.5 153.5t-159.5 59.5h-106v-618z" />
<glyph unicode="E" horiz-adv-x="8882" d="M102 -137l314 1988h7760l-52 -331h215l-297 -1921h-7675l41 264h-306zM215 -72h7588l283 1792h-7584zM694 172l66 422h110l-67 -422h-109zM778 883l68 422h239l-14 -93h-131l-10 -71h123l-15 -92h-123l-12 -74h131l-14 -92h-242zM926 172l67 422h111l160 -258l41 258h110 l-67 -422h-109l-162 260l-41 -260h-110zM1161 883l68 422h110l-53 -330h131l-14 -92h-242zM1491 502l14 92h291l-14 -92h-90l-54 -330h-108l51 330h-90zM1513 883l68 422h240l-15 -93h-131l-10 -71h123l-14 -92h-123l-13 -74h131l-14 -92h-242zM1821 172l65 422h242l-14 -92 h-132l-12 -70h125l-14 -94h-125l-10 -72h129l-15 -94h-239zM1905 1055q0 54 24.5 104.5t67.5 87.5q77 70 170 70q47 0 98 -23l-22 -131q-24 47 -89 47q-52 0 -92.5 -40.5t-40.5 -96.5q0 -43 27.5 -69.5t71.5 -26.5q54 0 102 45l-22 -131q-70 -19 -99 -19q-93 0 -149 62 q-47 50 -47 121zM2179 172l68 422h163q60 0 95 -25t35 -77t-31 -93t-84 -53l106 -174h-137l-78 162h-2l-24 -162h-111zM2327 406h10q86 0 86 65q0 39 -70 39h-10zM2361 1212l15 93h293l-17 -93h-90l-51 -329h-111l51 329h-90zM2619 342q0 54 24 105.5t67 89.5q79 69 172 69 q47 0 96 -22l-21 -131q-24 47 -88 47q-53 0 -93 -41.5t-40 -100.5q0 -41 26 -65.5t72 -24.5q59 0 101 45l-21 -133q-70 -18 -100 -18q-90 0 -148 61q-47 47 -47 119zM2716 883l67 422h164q58 0 92.5 -25.5t34.5 -77.5t-30 -93.5t-83 -53.5l105 -172h-135l-78 161h-2 l-25 -161h-110zM2863 1116h10q35 0 60.5 15t25.5 49q0 41 -69 41h-11zM3041 348q0 103 81.5 181.5t191.5 78.5q85 0 142.5 -51.5t57.5 -132.5q0 -106 -80.5 -186t-191.5 -80q-91 0 -146 52t-55 138zM3158 367q0 -45 28.5 -74t71.5 -29q56 0 99 43.5t43 100.5 q0 39 -29.5 66.5t-73.5 27.5q-52 0 -95.5 -39.5t-43.5 -95.5zM3172 883l66 422h110l-67 -422h-109zM3437 1053q0 113 90 194q80 70 172 70q45 0 96 -23l-21 -131q-27 47 -90 47q-52 0 -92.5 -40.5t-40.5 -96.5q0 -43 27.5 -69.5t71.5 -26.5q57 0 102 45l-21 -131 q-74 -19 -100 -19q-90 0 -149 62q-45 48 -45 119zM3580 172l67 422h109l160 -258h2l41 258h108l-65 -422h-111l-160 260h-2l-41 -260h-108zM3834 883l229 422h121l92 -422h-117l-16 73h-151l-41 -73h-117zM4035 1040h92l-23 134h-2zM4125 172l65 422h111l160 -258h2l41 258 h108l-65 -422h-111l-160 260h-2l-41 -260h-108zM4385 883l67 422h109l-51 -330h131l-15 -92h-241zM4669 172l66 422h242l-17 -92h-129l-12 -70h125l-17 -94h-122l-13 -72h131l-14 -94h-240zM5036 342q0 114 90 195q79 69 172 69q47 0 96 -22l-20 -131q-27 47 -88 47 q-53 0 -93 -41.5t-40 -100.5q0 -41 26 -65.5t70 -24.5q60 0 102 45l-20 -133q-70 -18 -100 -18q-90 0 -148 61q-47 47 -47 119zM5468 502l14 92h291l-14 -92h-90l-53 -330h-109l51 330h-90zM5798 172l67 422h109l-66 -422h-110zM6040 348q0 103 81 181.5t191 78.5 q85 0 143 -52t58 -132q0 -105 -81 -185.5t-192 -80.5q-91 0 -145.5 52t-54.5 138zM6156 367q0 -45 29 -74t72 -29q56 0 98.5 43.5t42.5 100.5q0 39 -29 66.5t-73 27.5q-52 0 -96 -39.5t-44 -95.5zM6578 172l68 422h108l160 -258h2l41 258h111l-68 -422h-111l-159 260 l-41 -260h-111zM7109 209l61 88q47 -43 90 -43q23 0 40.5 10.5t21.5 32.5q0 30 -58 47h-2q-51 16 -74.5 35t-23.5 59q0 67 49.5 117.5t120.5 50.5q66 0 127 -35l-57 -86q-26 29 -68 29q-17 0 -33.5 -10t-19.5 -29q0 -21 43 -37l26 -8q88 -29 88 -94q0 -15 -2 -21 q-10 -74 -61 -114q-52 -39 -127 -39q-82 0 -141 47z" />
<glyph unicode="F" horiz-adv-x="1769" d="M102 725q0 159 62 304t167 249.5t250 166.5t304 62t304 -61.5t249.5 -166t166.5 -249t62 -303.5t-62 -304t-166.5 -250.5t-249.5 -167.5t-304 -62t-304 62t-250 166.5t-167 249.5t-62 304zM170 725q0 -146 56.5 -278t152.5 -228t228 -152.5t278 -56.5t278 56.5 t227.5 152.5t152 228t56.5 278t-56.5 278t-152 228t-227.5 152.5t-278 56.5t-278 -56.5t-228 -152.5t-152.5 -228t-56.5 -278zM543 344v762h401v-137h-262v-162h262v-139h-262v-324h-139zM1087 344v762h140v-762h-140z" />
<glyph unicode="G" horiz-adv-x="1859" d="M205 0v1450h1450v-1450h-1450zM301 94h1258v1260h-1258v-1260zM414 766q0 148 89.5 234.5t225.5 86.5q177 0 268 -139l-108 -63q-24 38 -69.5 59t-92.5 21q-83 0 -132.5 -55t-49.5 -140q0 -95 51.5 -151t134.5 -56q62 0 102.5 30.5t59.5 78.5h-164v112h307v-8 q0 -87 -32.5 -160.5t-105 -122.5t-173.5 -49q-136 0 -223.5 90t-87.5 232zM1114 459v612h135v-491h209v-121h-344z" />
<glyph unicode="H" horiz-adv-x="8882" d="M102 -137l398 1988h8081l-65 -331h264l-398 -1921h-8015l65 264h-330zM215 -72h7928l373 1792h-7949zM698 397l367 772h258l80 -772h-205l-8 178h-205l-76 -178h-211zM1038 725h144l-19 297h-2q-22 -63 -61 -156zM1530 637q0 4 3.5 45.5t8.5 65.5l80 421h195l-82 -440 q-9 -52 -9 -90t26.5 -65t74.5 -27h4q56 0 91 43t54 139l82 440h199l-84 -430q-35 -180 -121 -267t-252 -87q-264 0 -270 252zM2310 999l33 170h588l-35 -170h-197l-112 -602h-193l111 602h-195zM2918 711q0 104 37 198t105 160q110 107 293 113q151 -3 234 -90.5t83 -235.5 q0 -109 -35 -202.5t-102 -157.5q-111 -111 -293 -111q-150 0 -236 89.5t-86 236.5zM3125 713q0 -79 36 -122.5t108 -43.5q63 0 108 45q40 46 63 118.5t23 139.5q0 76 -32.5 123t-104.5 47q-66 0 -115 -49q-39 -47 -62.5 -117.5t-23.5 -140.5zM3690 397l191 772h268l15 -497 h4q91 229 110 270l103 227h268l-109 -772h-188l98 594h-2q-58 -139 -137 -309l-127 -268h-160l-22 577h-2q-15 -65 -38 -176.5t-30 -142.5l-63 -275h-179zM4620 397l367 772h258l80 -772h-205l-10 178h-203l-76 -178h-211zM4960 725h144l-19 297h-4q-17 -58 -59 -156z M5464 999l33 170h588l-35 -170h-197l-112 -602h-193l111 602h-195zM6027 397l148 772h194l-147 -772h-195zM6408 711q0 105 36 199t103 159q110 107 293 113q152 -3 236 -90.5t84 -235.5q0 -108 -35.5 -202t-101.5 -158q-114 -111 -293 -111q-151 0 -236.5 89.5t-85.5 236.5 zM6615 713q0 -166 143 -166q64 0 109 45q39 46 62.5 119t23.5 139q0 75 -33 122.5t-104 47.5q-69 0 -115 -49q-40 -46 -63 -116.5t-23 -141.5zM7197 397l143 772h234l69 -233q53 -178 74 -287h2q7 149 37 293l43 227h182l-147 -772h-203q-126 413 -156 539h-4 q-26 -196 -53 -328l-43 -211h-178z" />
<glyph unicode="I" horiz-adv-x="1699" d="M51 1450h1598l-799 -1622zM231 1335l619 -1251l618 1251h-1237zM528 825v138h646v-138h-254v-516h-140v516h-252zM528 1079v138h646v-138h-646z" />
<glyph unicode="J" horiz-adv-x="1857" d="M51 1155v25h557v-25h-557zM53 1214v25h555v-25h-555zM63 1272v24h545v-24h-545zM78 1096v24h530v-24h-530zM88 1335v25h520v-25h-520zM115 1034v25h493v-25h-493zM135 1395v24h473v-24h-473zM154 975v24h454v-24h-454zM188 918v24h420v-24h-420zM219 1452v25h389v-25 h-389zM229 860v25h379v-25h-379zM264 803v24h344v-24h-344zM303 737v25h305v-25h-305zM338 674v24h270v-24h-270zM379 614v25h229v-25h-229zM418 551v24h203v-24h-203zM457 492v24h176v-24h-176zM494 426v25h153v-25h-153zM528 367v24h355v-24h-355zM567 307v25h776v-25 h-776zM608 246v24h703v-24h-703zM639 1034v434h76q62 0 89 -25.5t27 -86.5q0 -65 -49 -92q24 -8 44 -34t20 -73q0 -123 -131 -123h-76zM641 743q0 57 14 82q4 7 11 0q12 -12 31 -35.5t22 -29.5q8 -16 8 -58q0 -2 -4 -2q-3 3 -13 21t-20.5 32.5t-19.5 14.5q-13 0 -13 -14 q0 -28 68 -84l4 -15q-38 20 -74 56q-14 14 -14 32zM643 610v72q49 -39 92 -49l23 -43q-13 0 -33 11t-23 11q-10 0 -10 -12q0 -13 20.5 -23t55.5 -10l6 -10q-54 0 -92.5 15t-38.5 38zM647 184v25h627v-25h-627zM657 543q13 0 56 -13q-52 -13 -54 2zM674 444q0 20 37 50.5 t88 40.5q14 -14 32 -23q-104 -49 -104 -63q0 -11 27 -11q58 0 106 60l10 -4q-23 -27 -36 -40t-34.5 -25.5t-43.5 -12.5q-30 0 -56 9t-26 19zM674 895q28 64 31 74q2 5 7.5 5.5t8.5 -5.5l55 -99q4 -8 4 -18q0 -12 -4 -18l-24 -41q-8 -11 -17 -5q-9 8 -55 54l-2 2 q-18 18 -4 51zM682 123v24h559v-24h-559zM684 1081h31q86 0 86 76q0 78 -86 78h-31v-154zM684 1282h31q30 0 50.5 20t20.5 54q0 65 -71 65h-31v-139zM692.5 874.5q-0.5 -16.5 5.5 -24.5q17 -21 25 -29q6 -6 12 -3t6 11q0 19 -14.5 40.5t-24.5 21.5q-9 0 -9.5 -16.5zM719 61 v25h491v-25h-491zM739 987q-1 1 2 3q18 6 27 0l2 -3q0 -21 8 -57q0 -7 -3 -7q-2 1 -3 1q-13 37 -33 63zM754 696q0 54 27.5 99.5t72.5 72.5q6 6 6 11q0 4 -6 4q-7 0 -22 -6.5t-21 -6.5q-12 0 -12 17q0 30 35.5 69t54.5 39q44 0 69 -18q25 18 70 18q19 0 54.5 -39t35.5 -69 q0 -17 -12 -17q-6 0 -21 6.5t-22 6.5q-6 0 -6 -4q0 -3 4 -11q47 -27 74.5 -72.5t27.5 -99.5q0 -83 -60 -141.5t-145 -58.5t-144.5 58.5t-59.5 141.5zM762 0v25h401v-25h-401zM764 696q0 -78 57 -134t137 -56t137.5 56t57.5 134t-57.5 134.5t-137.5 56.5q-79 0 -136.5 -56.5 t-57.5 -134.5zM791 956q1 6 2 17t2 16q2 6 15 3q5 -3 5 -5q-2 -5 -9 -14.5t-9 -16.5h-6zM809 760q0 51 84 96v-18q-68 -35 -68 -78q0 -28 34 -70t34 -74q0 -28 -21 -59l-12 8q17 31 17 49q0 29 -34 69.5t-34 76.5zM819 410q19 11 40.5 33t31.5 42l4 -2q-6 -13 -19 -37.5 t-16 -35.5h-41zM819 897q0 -4 6 -4q24 0 50 12.5t26 20.5q0 10 -12 10q-16 0 -43 -12t-27 -27zM858 -35h215v-24h-215v24zM864 1034v434h76q62 0 89.5 -25.5t27.5 -86.5q0 -65 -49 -92q24 -8 43.5 -34t19.5 -73q0 -123 -131 -123h-76zM889 410q3 12 13.5 36t12.5 31 q16 -4 43 -4t43 4q2 -7 13 -31t14 -36h-139zM895 895q0 -3 3 -3.5t9 0t13.5 2t18 2.5t19.5 1q7 0 14.5 -0.5t13.5 -1.5l12 -2t10 -1.5t7.5 -0.5t5 1t1.5 3q-5 6 -15.5 14t-27.5 19t-21 14q-57 -40 -63 -47zM909 1081h31q86 0 86 76q0 78 -86 78h-31v-154zM909 1282h31 q30 0 51 20t21 54q0 65 -72 65h-31v-139zM938 537v325h43v-14h-27v-207h27v-16h-27v-70h27v-18h-43zM1016 926q0 -8 26 -20.5t50 -12.5q6 0 6 4q0 15 -27 27t-43 12q-12 0 -12 -10zM1022 483l4 2q10 -20 31.5 -42t40.5 -33h-41q-3 11 -16 35.5t-19 37.5zM1026 555v293 q30 -15 50 -48t20 -69t-16 -63t-38 -37v-76h-16zM1032 367v24h344v-24h-344zM1042 653q15 7 26 31t11 47q0 19 -10 43.5t-27 40.5v-162zM1047 494l10 4q48 -60 106 -60q27 0 27 11q0 13 -105 63q20 10 33 23q51 -10 88 -40.5t37 -50.5q0 -10 -26 -19t-56 -9 q-22 0 -43.5 12.5t-34.5 25.5t-36 40zM1069 1425v45h199v-356q0 -44 -30 -61t-69 -17q-36 0 -60 22t-32 58l45 10q9 -45 47 -45q50 0 50 33v311h-150zM1102 987q-2 3 5 5q13 3 15 -3q1 -5 2 -16t2 -17h-6q-2 7 -9 16.5t-9 14.5zM1137 852q0 10 4 18l55 99q3 6 8.5 5.5 t7.5 -5.5q3 -10 31 -74q14 -33 -4 -51l-2 -2q-46 -46 -55 -54q-9 -6 -17 5l-24 41q-4 6 -4 18zM1139 930q8 36 8 57q0 8 24 4q7 -2 7 -4q-20 -26 -33 -63q-4 -1 -5 0.5t-1 5.5zM1143 557l6 10q35 0 55.5 10t20.5 23q0 12 -11 12q-3 0 -22.5 -11t-32.5 -11l23 43q43 10 92 49 v-72q0 -23 -38.5 -38t-92.5 -15zM1176 829q0 -8 6 -11t12 3l25 29q6 8 5 24.5t-10 16.5q-10 0 -24 -21.5t-14 -40.5zM1188 655l4 15q68 56 68 84q0 14 -13 14q-9 0 -19.5 -14.5t-20.5 -32.5t-13 -21q-4 0 -4 2q0 42 8 58q3 6 22 29.5t31 35.5q7 7 11 0q14 -25 14 -82 q0 -18 -14 -32q-36 -36 -74 -56zM1204 530q43 13 56 13q-1 -1 -3 -11q-2 -14 -53 -2zM1294 426v25h113v-25h-113zM1303 492v24h143v-24h-143zM1307 555v25h170v-25h-170zM1307 614v25h206v-25h-206zM1307 678v24h241v-24h-241zM1307 737v25h272v-25h-272zM1307 803v24h305 v-24h-305zM1307 860v25h344v-25h-344zM1307 918v24h372v-24h-372zM1307 975v24h411v-24h-411zM1307 1034v25h440v-25h-440zM1307 1096v24h477v-24h-477zM1307 1155v25h493v-25h-493zM1307 1214v25h499v-25h-499zM1307 1272v24h491v-24h-491zM1307 1335v25h473v-25h-473z M1307 1395v24h432v-24h-432zM1307 1452v25h342v-25h-342z" />
<glyph unicode="K" horiz-adv-x="2910" d="M205 0v1450h2500v-1450h-2500zM270 63h2372v1323h-2372v-1323zM453 213v1026h116v-418h4l269 418h129l-244 -373l254 -653h-129l-207 537l-76 -117v-420h-116zM1137 215v438h323v-63h-258v-94h182v-66h-182v-149h258v-66h-323zM1137 797v438h323v-64h-258v-96h182v-63 h-182v-152h258v-63h-323zM1624 373v280h64v-280q0 -44 30 -74.5t74 -30.5q43 0 72.5 30.5t29.5 74.5v280h66v-280q0 -69 -49.5 -118.5t-118.5 -49.5q-70 0 -119 49.5t-49 118.5zM1630 797v438h64l100 -178l94 178h70v-438h-66v319h-4l-94 -188l-96 182h-4v-313h-64z M2122 797l141 438h74l135 -438h-76l-24 80h-154l-27 -80h-69zM2132 215v438h213q47 0 81 -33.5t34 -80.5q0 -49 -33.5 -83t-81.5 -34h-8l123 -207h-82l-125 207h-51v-207h-70zM2202 485h143q20 0 35.5 16t15.5 38q0 20 -15.5 35.5t-35.5 15.5h-143v-105zM2232 946h127 l-59 203h-4z" />
<glyph unicode="L" horiz-adv-x="7526" d="M0 262q0 114 69.5 251.5t178.5 256.5q-53 80 -81 176t-28 187q0 90 26.5 160t85 113.5t142.5 43.5h4487v-217h2646v-1016h-2646v-217h-4522q-185 0 -271.5 71t-86.5 191zM127 283q0 -46 19.5 -79t52.5 -50.5t63 -25.5t64 -11q51 168 51 278q0 125 -70 256 q-180 -233 -180 -368zM276 1124q0 -154 99 -309q133 -212 133 -414q0 -120 -47 -284h4303v1216h-4371q-47 0 -82 -59t-35 -150zM4880 350l2220 766h-514l-1706 -596v-170zM4880 643l1352 473h-516l-836 -293v-180zM4880 946l484 170h-484v-170zM5212 336h529l1671 582v184z M6095 336h528l789 272v185zM6975 336h437v149z" />
<glyph unicode="M" horiz-adv-x="2035" d="M51 0l393 1542l189 -403q-106 -108 -164.5 -245.5t-58.5 -283.5q0 -129 45 -245l-93 -365h-311zM463 616q0 139 55.5 265t149.5 217t224.5 144.5t274.5 53.5q139 0 244 -45l-115 -237q-70 20 -141 20q-136 0 -240 -73.5t-153 -194.5h420l-443 -238q28 -144 147.5 -244 t270.5 -100q123 0 227 64l113 -242q-141 -84 -334 -84q-144 0 -274.5 55.5t-223.5 149t-147.5 221.5t-54.5 268zM848 -55q67 -31 154 -48.5t165 -17.5l-147 -321zM999 264l598 1278l388 -1542h-308l-161 643l-166 -367q-89 -47 -197 -47q-86 0 -154 35z" />
<glyph unicode="N" horiz-adv-x="1769" d="M102 725q0 159 62.5 304t167.5 249.5t250.5 166.5t304.5 62q158 0 302.5 -62t249 -166.5t166.5 -249.5t62 -304q0 -158 -62 -303t-166.5 -250t-249 -167t-302.5 -62q-159 0 -304.5 62t-250.5 167t-167.5 250t-62.5 303zM215 725q0 -182 90 -336.5t245 -245t337 -90.5 q180 0 334.5 90.5t244.5 245.5t90 336q0 137 -53.5 261t-143 213.5t-213.5 142.5t-259 53q-183 0 -337.5 -89.5t-244.5 -244t-90 -336.5zM469 1153h184l441 -608h4v559l-76 24v25h262v-25l-72 -24v-715l72 -98h-205l-395 547h-4v-494l72 -27v-22h-258v22l73 27v662z" />
<glyph unicode="O" horiz-adv-x="2664" d="M102 725q0 116 43.5 219t118 181t174.5 142.5t212 108t233 74t234 44t218 13.5t218 -13.5t234 -44t233 -74t212 -108t174.5 -142.5t118 -181t43.5 -219t-44.5 -219t-120 -180.5t-176.5 -142.5t-212.5 -108.5t-230 -74t-227 -44t-205.5 -13.5t-207.5 13.5t-232 44 t-236.5 74t-220 108.5t-183 142.5t-124.5 180.5t-46.5 219zM205 719q0 -99 41 -187.5t111 -155.5t164 -123t198.5 -94.5t216 -65t214.5 -38.5t196 -12t195 12t211.5 38.5t211.5 65t194 94.5t160 123t108 155.5t40 187.5q0 116 -51.5 217t-139.5 174t-201.5 131t-241.5 93 t-254 53t-245 18q-101 0 -208 -12.5t-218 -40t-212.5 -66.5t-191 -96t-155.5 -125t-104.5 -157t-38.5 -189zM434 705q0 135 96.5 231t231.5 96t231.5 -96t96.5 -231t-96.5 -231.5t-231.5 -96.5t-231.5 96.5t-96.5 231.5zM528 705q0 -98 68.5 -168t165.5 -70t166 70t69 168 t-69 167.5t-166 69.5t-165.5 -69.5t-68.5 -167.5zM575 1118q0 19 13 31t33 12t33.5 -12t13.5 -31q0 -20 -13.5 -33.5t-33.5 -13.5q-19 0 -32.5 13t-13.5 34zM893 1118q0 17 14 30t33 13q20 0 33.5 -12t13.5 -31q0 -20 -15 -33.5t-34 -13.5q-18 0 -31.5 13t-13.5 34z M1071 993q0 19 14.5 32t36.5 13q24 0 37 -26l225 -465l226 454q9 20 18 27.5t23 7.5q21 0 36 -13.5t15 -29.5q0 -12 -8 -28l-264 -553q-18 -41 -46 -41q-18 0 -27.5 9.5t-19.5 31.5l-260 557q-6 18 -6 24zM1763 444v525q0 63 33 63h406q20 0 33.5 -14.5t13.5 -36.5 q0 -16 -13.5 -30.5t-33.5 -14.5h-342v-168h294q18 0 31 -15t13 -34q0 -21 -13 -35t-31 -14h-294v-199h342q24 0 38.5 -14.5t14.5 -34.5q0 -18 -15 -31.5t-38 -13.5h-398q-25 0 -33 16.5t-8 50.5z" />
<glyph unicode="P" horiz-adv-x="2555" d="M205 0v1176h536q170 0 267.5 -101.5t97.5 -275.5q0 -37 -8 -80t-33.5 -97.5t-65 -96.5t-109.5 -71.5t-159 -29.5h-280v-424h-246zM451 627h227q52 0 88.5 15t54.5 33.5t27.5 48.5t10.5 46.5t1 40.5q0 85 -50.5 123.5t-164.5 38.5h-194v-346zM637 1241v209h1282v-209h-518 v-1241h-246v1241h-518zM1507 0v1176h547q83 0 148.5 -20t104.5 -51t65 -72.5t35.5 -80.5t9.5 -78q0 -48 -11.5 -88t-25 -63t-38 -44t-36.5 -27.5t-35 -18.5q183 -67 183 -285q0 -68 -27.5 -132t-75.5 -110q-38 -38 -72.5 -58t-108.5 -34t-190 -14h-473zM1743 203h276 q189 0 189 172q0 73 -51 108t-125 35h-289v-315zM1743 715h264q77 0 125.5 32.5t48.5 98.5q0 69 -46 98t-134 29h-258v-258z" />
<glyph unicode="Q" horiz-adv-x="2291" d="M102 1450h136q51 -296 86 -471q52 -269 79 -424q33 -197 52 -332l209 1227h135l-291 -1446h-113zM922 6v1444h172q44 0 77.5 -3t76.5 -12.5t80.5 -32.5t66.5 -59q125 -147 125 -469v-239q0 -181 -34.5 -330.5t-115.5 -218.5q-98 -84 -321 -84q-49 0 -127 4zM1053 125 q14 0 33 -1t26 -1q59 0 105 19t76 45t50.5 76.5t31 89.5t16 109t6 110.5t0.5 117.5v115q0 85 -19 248q-9 70 -27 120t-59 89q-34 34 -76.5 50.5t-71.5 18.5t-91 2v-1208zM1735 0v1450h454v-119h-323v-518h313v-117h-313v-569h321v-127h-452z" />
<glyph unicode="R" horiz-adv-x="1712" d="M102 725q0 153 60 292.5t161 240.5t240.5 161t292.5 60t292.5 -60t240.5 -161t161 -240.5t60 -292.5t-60 -292.5t-161 -240.5t-240.5 -161t-292.5 -60t-292.5 60t-240.5 161t-161 240.5t-60 292.5zM143 725q0 -145 56.5 -277t152 -227.5t227.5 -152t277 -56.5t277 56.5 t227.5 152t152 227.5t56.5 277t-56.5 277t-152 227.5t-227.5 152t-277 56.5t-277 -56.5t-227.5 -152t-152 -227.5t-56.5 -277zM217 575l78 297h117q54 0 75 -53l-6 53h97l4 -127l57 127h80v-129l59 129h346l-20 -88h-135l-49 -209h-103l49 207h-32l-107 -207h-80l-4 132 l-53 -132h-78l-20 179q-1 -6 -3 -15t-18.5 -26t-42.5 -21l51 -117h-100l-39 105l-23 -105h-100zM295 408v10q9 36 43 55q22 16 51 16q37 0 55 -30q11 -18 11 -37q0 -27 -21 -43l-10 14q12 12 12 29q0 15 -8 27q-13 20 -39 20q-21 0 -41 -14q-35 -23 -35 -49q0 -12 9 -27 q11 -17 24 -21q4 -2 12 -2q18 0 31 13l-24 39l16 8l35 -54l-70 -45l-8 11l14 14q-28 3 -47 29q-10 17 -10 37zM346 1098l43 49q16 16 33 16q11 0 24 -10q13 -9 13 -25q0 -8 -2 -12q12 8 22 8t25 -12q16 -13 16 -33q0 -18 -14 -35l-43 -49zM356 754h2q37 0 41 20v6 q0 15 -30 15h-4zM373 1102l37 -31l22 27q10 13 10 22t-8 17q-6 6 -14 6q-11 0 -23 -15zM422 1059l41 -35l29 31q10 13 10 20q0 13 -13 23q-9 6 -16 6q-13 0 -24 -14zM432 229l88 127l88 -61l-10 -16l-72 51l-26 -39l65 -47l-10 -15l-66 45l-30 -43l73 -49l-12 -16zM494 535 v4h14q52 -94 144 -150.5t202 -56.5q111 0 203.5 56.5t144.5 150.5h15l-3 -4q-50 -99 -146.5 -158.5t-213.5 -59.5q-115 0 -210.5 59.5t-149.5 158.5zM494 913l2 2q50 98 146.5 158t211.5 60q116 0 213 -59.5t147 -158.5q1 -2 3 -2h-17q-52 93 -144 149t-202 56 q-108 0 -201 -56.5t-143 -148.5h-16zM532 1264l19 12l127 -107l-19 -10l-36 31l-52 -31l11 -47l-17 -10zM553 1249l14 -71l39 24zM602 125l51 145l64 -20q28 -9 28 -39q0 -10 -2 -16q-3 -13 -15 -24t-26 -11q-4 0 -16 4l-43 16l-22 -63zM649 197l37 -13q6 -2 14 -2 q18 0 23 19q2 4 2 12q0 13 -20 20l-39 15zM694 1335l19 2l18 -96q3 -19 13 -28t22 -9q1 0 4 1t4 1q33 4 33 37q0 2 -1 6t-1 6l-17 97l21 4l16 -101v-10q0 -49 -47 -57q-6 -2 -14 -2q-40 0 -51 47zM815 229l70 2q49 0 49 -38v-7q0 -17 -19 -32q19 -5 21 -27l2 -29 q0 -11 8 -14v-4l-24 -2q-2 6 -4 21.5t-3 17.5q0 26 -22 26l-53 -2l4 -67h-21zM838 211l2 -53l45 4q28 0 28 24v4q0 25 -26 25zM877 1200l79 146l23 -5l29 -161l-23 2l-6 47l-59 10l-23 -43zM930 1255l45 -6l-12 72zM983 246l18 6l35 -92q10 -29 35 -29q10 0 14 2q27 9 27 33 q0 4 -4 20l-35 93l19 6l34 -95q4 -16 4 -22q0 -39 -38 -53q-16 -4 -23 -4q-37 0 -51 36zM983 633q0 10 2 16l27 113h88l-25 -92q0 -21 10 -21q16 0 23 17l22 96h87l-27 -129q-7 -36 -42.5 -54t-78.5 -18q-34 0 -60 20.5t-26 51.5zM999 295l19 6l8 -20l-18 -9zM1032 305l17 6 l8 -20l-19 -6zM1051 1159l79 133l60 -35q27 -15 27 -38q0 -9 -7 -23q-13 -20 -36 -20l2 -2q4 -8 4 -15q0 -6 -6 -18l-15 -25q-4 -8 -4 -10q0 -1 1 -3t1 -3l-2 -4l-20 12q3 14 18 37q6 12 6 16q0 13 -14 21l-43 24l-33 -57zM1112 1221l39 -23q9 -6 18 -6q14 0 21 12q6 9 6 19 q0 13 -14 18l-43 27zM1135 782l22 90h150l16 -155l66 155h110l-149 -297h-95l-36 207h-84zM1145 322l76 67l12 -14l-62 -53l31 -37l55 47l13 -15l-56 -47l48 -53l-15 -12zM1210 1038l103 90l-33 37l14 13l78 -91l-14 -12l-33 37l-102 -88zM1243 414l62 102l16 -10l-25 -43 l117 -70l-10 -16l-119 69l-24 -43z" />
<glyph unicode="S" horiz-adv-x="1769" d="M102 725q0 162 64.5 308t172 249.5t252.5 164t300 60.5q158 0 302 -64.5t247.5 -171t165 -250.5t61.5 -298t-61.5 -297t-165 -249t-248.5 -170t-303 -64q-157 0 -301.5 60.5t-251.5 164t-170.5 249.5t-63.5 308zM233 727q0 -181 90 -331.5t241.5 -236t328.5 -85.5 q133 0 253 53.5t205 142t135 207.5t50 246q0 129 -51 249.5t-137.5 209.5t-207 142.5t-251.5 53.5q-129 0 -249 -50.5t-209.5 -136t-143.5 -207.5t-54 -257zM522 442h109l2 -10q7 -16 26 -16h377q41 0 67.5 25t26.5 65q0 31 -14.5 51.5t-58.5 56.5l-355 285q-96 75 -96 158 q0 62 51 116t121 54h248q63 0 104 -36t48 -108h-107l-4 11l-6 8q-13 8 -60 8h-210q-25 0 -43.5 -14t-18.5 -39q0 -33 43 -68l395 -313q82 -63 82 -170q0 -85 -56.5 -146t-141.5 -61h-377q-63 0 -104.5 37t-47.5 106z" />
<glyph unicode="T" horiz-adv-x="5572" d="M102 807v207h174v436h205v-436h586q104 0 200 -41.5t166.5 -112t112 -169t41.5 -206.5q0 -142 -69 -262.5t-189.5 -192t-265.5 -71.5q-141 0 -262 69t-192.5 190.5t-71.5 266.5q0 182 110 322h-166v-807h-205v807h-174zM741 485q0 -133 93 -226t227 -93t227.5 93 t93.5 226q0 134 -94 228t-227 94t-226.5 -94t-93.5 -228zM1640 -236v1248h207v-131q125 131 320 131q141 0 261 -68t191.5 -190t71.5 -269q0 -138 -67 -257.5t-188.5 -193t-268.5 -73.5q-194 0 -320 129v-326h-207zM1640 -350h207l-2 -146h496q29 0 53 20.5t34 41.5l9 20 l641 1479q14 37 14 78q0 102 -108 102h-1344v205h1344q76 0 134.5 -16t94 -41.5t57.5 -61.5t30 -72t8 -77q0 -46 -10 -96t-20 -76l-11 -27l-641 -1479q-3 -8 -9.5 -22t-31.5 -49t-55 -62t-81 -49t-108 -22q-91 0 -245 -1t-249 -1q-86 0 -146.5 60t-60.5 146v146zM1847 485 q0 -133 93 -226t227 -93t227.5 93t93.5 226q0 134 -94 228t-227 94t-226.5 -94t-93.5 -228zM3142 485v17q4 139 74.5 256.5t190 185.5t259.5 68t260 -68t191 -185.5t75 -256.5v-17q0 -172 -102 -311q-73 -100 -184.5 -157.5t-239.5 -57.5q-127 0 -238 57.5t-184 157.5 q-102 139 -102 311zM3346 485q0 -133 93 -226t227 -93t227.5 93t93.5 226q0 134 -94 228t-227 94t-226.5 -94t-93.5 -228zM4243 0v1450h205v-569q128 131 320 131q140 0 260 -68t191 -185.5t75 -256.5v-17q0 -102 -41 -198t-111 -167.5t-168 -115t-206 -43.5 q-191 0 -320 129v-90h-205zM4448 485q0 -133 93 -226t227 -93t227.5 93t93.5 226q0 134 -94 228t-227 94t-226.5 -94t-93.5 -228zM5112 1264q0 85 60 144.5t145 59.5t144.5 -59.5t59.5 -144.5t-59.5 -145t-144.5 -60t-145 60t-60 145zM5151 1264q0 -69 48.5 -117.5 t117.5 -48.5t117 48.5t48 117.5t-48 117.5t-117 48.5t-117.5 -48.5t-48.5 -117.5zM5249 1149v237h68q40 0 61 -18q23 -16 23 -53q0 -33 -23 -53q-14 -11 -31 -13l74 -100h-55l-66 94h-6v-94h-45zM5294 1276h14q45 0 45 37q0 35 -45 35h-14v-72z" />
<glyph unicode="U" horiz-adv-x="2541" d="M53 1262q0 69 49 114t123 45h1041l362 -966h250l-348 966h446l447 -1192q14 -44 14 -71q0 -70 -51.5 -114t-130.5 -44h-909l-201 532h-76l-119 -532h-446l110 528h-165q-59 0 -110.5 34.5t-72.5 92.5l-194 533q-19 51 -19 74zM549 1087l84 -225h377l-86 225h-375z M2161 1278q0 54 37.5 91.5t91.5 37.5t92.5 -37.5t38.5 -91.5t-38.5 -92.5t-92.5 -38.5t-91.5 38.5t-37.5 92.5zM2171 1278q0 -50 34.5 -84.5t84.5 -34.5t85 35t35 84t-35 84t-85 35t-84.5 -34.5t-34.5 -84.5zM2245 1202v156h55q35 0 35 -41q0 -32 -21 -41q15 -2 19 -31 q0 -33 6 -43h-17q-2 3 -2.5 8.5t-0.5 14.5t-1 14q-1 10 -2.5 15t-5.5 9.5t-12 4.5h-37v-66h-16zM2261 1286h33q26 0 26 27q0 26 -20 26h-39v-53z" />
<glyph unicode="V" horiz-adv-x="2086" d="M102 506q0 75 62 143l747 832q47 53 136 53q80 0 127 -53l749 -832q62 -68 62 -143q0 -66 -42 -118.5t-118 -78.5l-43 -14v-295h-1477v295l-47 14q-75 23 -115.5 76t-40.5 121zM186 510q0 -60 43 -97.5t113 -37.5h1405q67 0 110.5 37.5t43.5 97.5q0 53 -43 102l-715 801 q-42 45 -94 45q-63 0 -107 -47l-715 -801q-41 -44 -41 -100zM379 76h1327v219h-1327v-219zM598 487v400h162q64 0 92.5 -23t28.5 -90v-174q0 -66 -28.5 -89.5t-92.5 -23.5h-162zM670 557h90q47 0 47 35v182q0 35 -47 35h-90v-252zM877 1141q0 14 9 26.5t19 12.5 q11 0 20.5 -5t10.5 -12l111 -264l112 264q7 17 27 17q31 0 31 -39l-134 -326q-3 -8 -14 -15t-22 -7q-22 0 -35 22zM1229 487v396h244q17 0 27.5 -10.5t10.5 -24.5q0 -17 -10.5 -27t-25.5 -10h-168v-88h143q17 0 27 -11.5t10 -25.5q0 -13 -10 -24t-27 -11h-143v-92h168 q16 0 26 -9t10 -26q0 -14 -11.5 -25.5t-26.5 -11.5h-244z" />
<glyph unicode="W" horiz-adv-x="6148" d="M102 0v1194h443v-449l262 449h465v-422l354 565h-153l606 273l262 -273h-180l-861 -1337h-446v444l-264 -444h-488zM1141 -127h190l846 1321h750v-1194h-445v174h-409l-197 -301h162l-608 -274zM2214 418h268v413zM3041 139v893q0 72 44.5 117t107.5 45h1071v-428h-766 v-340h295v80h-125v151h596v-505q0 -41 -8 -66t-33 -47q-39 -39 -94 -39h-932q-67 0 -111.5 36.5t-44.5 102.5zM4385 152v892q0 62 44 106t105 44h918q63 0 106 -44t43 -106v-892q0 -63 -43 -107.5t-106 -44.5h-918q-62 0 -105.5 44.5t-43.5 107.5zM4831 420h318v328h-318 v-328zM5480 1376q0 83 58 140t141 57q80 0 137.5 -57t57.5 -140q0 -81 -57.5 -137.5t-137.5 -56.5q-83 0 -141 56t-58 138zM5519 1376q0 -66 46.5 -111.5t113.5 -45.5q65 0 111.5 45.5t46.5 111.5q0 67 -46.5 113.5t-111.5 46.5q-67 0 -113.5 -46t-46.5 -114zM5614 1266v229 h65q35 0 57 -18q23 -16 23 -50q0 -33 -23 -53q-13 -9 -28 -12l69 -96h-53l-61 92h-6v-92h-43zM5657 1389h14q41 0 41 34q0 35 -41 35h-14v-69z" />
<glyph unicode="X" horiz-adv-x="2072" d="M154 569v881h1218q122 0 233 -47.5t191 -127.5t127 -190.5t47 -232.5v-283q0 -157 -75 -293t-213.5 -220.5t-309.5 -84.5h-620q-120 0 -230 46t-191 125t-129 190.5t-48 236.5zM221 569q0 -146 70.5 -268t192.5 -192t268 -70h620q144 0 266.5 69t194.5 191.5t72 269.5 v283q0 145 -71 267t-194 192.5t-268 70.5h-1151v-813zM287 545q0 184 129.5 314t312.5 130h248v-248h-246q-82 0 -138 -57t-56 -139t56 -138.5t138 -56.5v66q-53 0 -91 37.5t-38 89.5q0 54 38 92.5t91 38.5h246v-572h-248q-180 0 -311 129.5t-131 313.5zM1034 258h13 q3 -8 18 -8t18 22q-4 -4 -18 -4q-25 0 -25 29q3 41 39 41q11 0 19 -8l2 6h10l-16 -72q-1 -12 -11 -19t-22 -7q-11 0 -19 5.5t-8 14.5zM1034 1030q0 118 85 203.5t204 85.5h197v-248h-215q-17 0 -30 -12t-13 -29t13 -29t30 -12h233q120 0 203.5 -84t83.5 -203 q0 -120 -83.5 -203t-203.5 -83h-498v258h514q13 0 23 10.5t10 24.5q0 13 -9.5 22.5t-23.5 9.5h-231q-119 0 -204 84.5t-85 204.5zM1040 160h11q2 -10 9.5 -17.5t18.5 -7.5t18 7t7 14q0 12 -26.5 18t-26.5 21q0 10 12 19t24 9q13 0 23.5 -7.5t11.5 -20.5h-10q0 6 -6.5 11 t-15.5 5q-10 0 -17.5 -4.5t-7.5 -9.5q0 -3 1.5 -5.5t4.5 -4.5t6 -3t8 -2t7 -2q24 -4 24 -24q0 -13 -12.5 -22t-28.5 -9q-32 0 -35 35zM1051 295q0 -16 16 -16q18 0 25 20l2 12q0 6 -4.5 11.5t-10.5 5.5q-10 0 -19 -10.5t-9 -22.5zM1112 295q2 17 13 30t28 13q27 0 27 -31v-6 h-56v-2v-4q0 -16 19 -16q15 0 22 10h11q-6 -21 -37 -21q-11 0 -19 7.5t-8 19.5zM1124 129l15 66h10l-14 -66h-11zM1126 311h43q0 5 -4 13q-4 4 -12 4q-20 0 -27 -17zM1143 209l4 14h10l-4 -14h-10zM1153 156q0 15 11.5 29t29.5 14q27 0 27 -31h-11v4q0 14 -20 14 q-8 0 -16.5 -8.5t-8.5 -21.5q0 -6 5.5 -13.5t11.5 -7.5q11 0 24 17h11q-3 -8 -14 -17.5t-21 -9.5q-12 0 -20.5 9t-8.5 22zM1176 244l22 92h10v-6q11 8 23 8q11 0 17.5 -7.5t6.5 -19.5q0 -17 -10 -30t-28 -13q-6 0 -12.5 4.5t-6.5 8.5h-4l-8 -37h-10zM1200 299q0 -23 17 -23 q18 0 26 23q2 4 2 12q0 17 -18 17q-9 0 -18 -9t-9 -20zM1223 129l22 90h10l-6 -26q6 6 19 6q10 0 16 -5t6 -12q0 -4 -4 -16l-10 -37h-12l12 39q2 6 2 14q0 4 -12 4q-17 0 -23 -16l-10 -41h-10zM1257 270l19 66h10l-2 -8h2q8 10 23 10l-2 -10q-8 0 -17 -6t-12 -15l-10 -37 h-11zM1294 154q2 17 13 30t28 13q27 0 27 -31v-6h-55v-2v-4q0 -17 18 -17q15 0 23 10h10q-6 -20 -37 -20q-11 0 -19 7.5t-8 19.5zM1307 287l10 49h10q-3 -17 -6 -29.5t-3.5 -15.5t-0.5 -4q0 -8 10 -8q18 0 23 14l10 43h12l-16 -66h-10l2 6q-3 -8 -23 -8q-18 0 -18 19z M1309 170h43q0 4 -4 12q-4 4 -13 4q-20 0 -26 -16zM1329 352l4 13h8l-2 -13h-10zM1354 352l4 13h8l-2 -13h-10zM1362 129l18 66h11l-2 -9h2q8 11 22 11l-2 -11q-8 0 -17 -5.5t-12 -14.5l-10 -37h-10zM1380 270l15 60h-11l2 8h11l2 12q6 15 20 15h6l-2 -9q0 2 -4 2 q-2 0 -5 -2.5t-3 -5.5l-2 -12h12l-4 -8h-12l-12 -60h-13zM1409 129l23 90h10l-6 -26q6 6 18 6q10 0 16.5 -5.5t6.5 -11.5q0 -4 -4 -16l-11 -37h-12l12 39q2 6 2 14q0 4 -12 4q-16 0 -22 -16l-11 -41h-10zM1423 330l4 8h13l4 20h10l-6 -20h12l-2 -8h-12l-10 -35v-6q0 -8 4 -8 t12 4l-2 -11q-4 -4 -10 -4t-10.5 5t-4.5 10q0 10 2 12l9 33h-13zM1458 295q2 17 13 30t28 13q27 0 27 -31v-6h-56v-2v-4q0 -16 19 -16q15 0 22 10h11q-6 -21 -37 -21q-11 0 -19 7.5t-8 19.5zM1473 311h43q0 3 -5 13q-4 4 -12 4q-19 0 -26 -17zM1479 154q2 17 13 30t28 13 q26 0 26 -31v-6h-55v-2v-4q0 -17 18 -17q15 0 23 10h10q-6 -20 -37 -20q-11 0 -18.5 7.5t-7.5 19.5zM1493 170h43q0 4 -4 12q-4 4 -12 4q-21 0 -27 -16zM1552 129l15 66h10l-14 -66h-11zM1571 209l4 14h10l-4 -14h-10zM1585 188l2 11h15l4 18h10l-6 -18h14l-2 -11h-14 l-11 -34v-7q0 -8 5 -8q6 0 14 4l-2 -10q-4 -4 -12 -4q-6 0 -10.5 4.5t-4.5 9.5q0 11 2 13l8 32h-12z" />
<glyph unicode="Y" horiz-adv-x="3940" d="M102 283q0 140 27 209q19 43 64 67.5t108 24.5q108 0 148 -62q28 -45 28 -133v-10h-127v35q-3 82 -53 82q-42 0 -51 -47q-8 -33 -8 -132q0 -27 1 -75.5t1 -61.5q3 -92 57 -92q20 0 34 12.5t19 32.5q6 24 6 76v20h127q0 -38 -1 -56.5t-8.5 -48.5t-22.5 -54 q-41 -68 -164 -68q-69 0 -111 29t-58 84t-16 168zM510 1266q0 53 35 96q49 59 133 59h1040l363 -966h250l-349 966h447l446 -1192q15 -41 15 -73q0 -42 -27 -82q-29 -40 -65 -57t-91 -17h-909l-201 532h-73l-121 -532h-447l113 528h-168q-49 0 -100 29q-34 21 -52 42.5 t-30 55.5l-195 533q-14 38 -14 78zM1001 1087l86 -225h375l-84 225h-377zM2613 1278q0 54 38 92.5t93 38.5q54 0 91.5 -38.5t37.5 -92.5t-37.5 -92.5t-91.5 -38.5q-55 0 -93 38.5t-38 92.5zM2623 1278q0 -50 35 -84.5t86 -34.5q50 0 84.5 34.5t34.5 84.5t-34.5 84.5 t-84.5 34.5q-51 0 -86 -34.5t-35 -84.5zM2697 1202v156h56q36 0 36 -41q0 -31 -20 -41q16 -3 16 -31q1 -4 1.5 -15t1.5 -17t5 -11h-18q-2 3 -2.5 8.5t-0.5 14.5t-1 14q-4 29 -21 29h-36v-66h-17zM2714 1286h32q27 0 27 27q0 26 -20 26h-39v-53zM3037 180v395h131v-415 q0 -72 54 -72q29 0 42 17t13 55v415h131v-393q0 -59 -17 -98q-11 -26 -34 -45q-26 -23 -56.5 -31t-87.5 -8q-80 0 -125 39q-51 43 -51 141zM3457 160q0 12 2 24h123v-12q0 -43 14.5 -62.5t46.5 -19.5q29 0 45.5 17.5t16.5 48.5q0 26 -12 41.5t-43 29.5l-82 37q-32 13 -47 25 q-58 42 -58 125q0 85 48.5 129.5t140.5 44.5q170 0 170 -162v-10h-125v10q0 68 -54 68q-51 0 -51 -58q0 -38 27 -53q6 -6 33 -18l77 -37q27 -12 52 -27q57 -35 57 -127q0 -84 -53 -131q-46 -43 -148 -43q-180 0 -180 160z" />
<glyph unicode="Z" horiz-adv-x="1712" d="M102 725q0 153 60 292.5t161 240.5t240.5 161t292.5 60t292.5 -60t240.5 -161t161 -240.5t60 -292.5t-60 -292.5t-161 -240.5t-240.5 -161t-292.5 -60t-292.5 60t-240.5 161t-161 240.5t-60 292.5zM143 725q0 -145 56.5 -277t152 -227.5t227.5 -152t277 -56.5t277 56.5 t227.5 152t152 227.5t56.5 277t-56.5 277t-152 227.5t-227.5 152t-277 56.5t-277 -56.5t-227.5 -152t-152 -227.5t-56.5 -277zM217 575l78 297h117q54 0 75 -53l-6 53h97l4 -127l57 127h80v-129l59 129h346l-20 -88h-135l-49 -209h-103l49 207h-32l-107 -207h-80l-4 132 l-53 -132h-78l-20 179q-1 -6 -3 -15t-18.5 -26t-42.5 -21l51 -117h-100l-39 105l-23 -105h-100zM295 408v10q9 36 43 55q22 16 51 16q37 0 55 -30q11 -18 11 -37q0 -27 -21 -43l-10 14q12 12 12 29q0 15 -8 27q-13 20 -39 20q-21 0 -41 -14q-35 -23 -35 -49q0 -12 9 -27 q11 -17 24 -21q4 -2 12 -2q18 0 31 13l-24 39l16 8l35 -54l-70 -45l-8 11l14 14q-28 3 -47 29q-10 17 -10 37zM346 1098l43 49q16 16 33 16q11 0 24 -10q13 -9 13 -25q0 -8 -2 -12q12 8 22 8t25 -12q16 -13 16 -33q0 -18 -14 -35l-43 -49zM356 754h2q37 0 41 20v6 q0 15 -30 15h-4zM373 1102l37 -31l22 27q10 13 10 22t-8 17q-6 6 -14 6q-11 0 -23 -15zM422 1059l41 -35l29 31q10 13 10 20q0 13 -13 23q-9 6 -16 6q-13 0 -24 -14zM432 229l88 127l88 -61l-10 -16l-72 51l-26 -39l65 -47l-10 -15l-66 45l-30 -43l73 -49l-12 -16zM494 535 v4h14q52 -94 144 -150.5t202 -56.5q111 0 203.5 56.5t144.5 150.5h15l-3 -4q-50 -99 -146.5 -158.5t-213.5 -59.5q-115 0 -210.5 59.5t-149.5 158.5zM494 913l2 2q50 98 146.5 158t211.5 60q116 0 213 -59.5t147 -158.5q1 -2 3 -2h-17q-52 93 -144 149t-202 56 q-108 0 -201 -56.5t-143 -148.5h-16zM532 1264l19 12l127 -107l-19 -10l-36 31l-52 -31l11 -47l-17 -10zM553 1249l14 -71l39 24zM602 125l51 145l64 -20q28 -9 28 -39q0 -10 -2 -16q-3 -13 -15 -24t-26 -11q-4 0 -16 4l-43 16l-22 -63zM649 197l37 -13q6 -2 14 -2 q18 0 23 19q2 4 2 12q0 13 -20 20l-39 15zM694 1335l19 2l18 -96q3 -19 13 -28t22 -9q1 0 4 1t4 1q33 4 33 37q0 2 -1 6t-1 6l-17 97l21 4l16 -101v-10q0 -49 -47 -57q-6 -2 -14 -2q-40 0 -51 47zM815 229l70 2q49 0 49 -38v-7q0 -17 -19 -32q19 -5 21 -27l2 -29 q0 -11 8 -14v-4l-24 -2q-2 6 -4 21.5t-3 17.5q0 26 -22 26l-53 -2l4 -67h-21zM838 211l2 -53l45 4q28 0 28 24v4q0 25 -26 25zM877 1200l79 146l23 -5l29 -161l-23 2l-6 47l-59 10l-23 -43zM930 1255l45 -6l-12 72zM983 246l18 6l35 -92q10 -29 35 -29q10 0 14 2q27 9 27 33 q0 4 -4 20l-35 93l19 6l34 -95q4 -16 4 -22q0 -39 -38 -53q-16 -4 -23 -4q-37 0 -51 36zM983 633q0 10 2 16l27 113h88l-25 -92q0 -21 10 -21q16 0 23 17l22 96h87l-27 -129q-7 -36 -42.5 -54t-78.5 -18q-34 0 -60 20.5t-26 51.5zM999 295l19 6l8 -20l-18 -9zM1032 305l17 6 l8 -20l-19 -6zM1051 1159l79 133l60 -35q27 -15 27 -38q0 -9 -7 -23q-13 -20 -36 -20l2 -2q4 -8 4 -15q0 -6 -6 -18l-15 -25q-4 -8 -4 -10q0 -1 1 -3t1 -3l-2 -4l-20 12q3 14 18 37q6 12 6 16q0 13 -14 21l-43 24l-33 -57zM1112 1221l39 -23q9 -6 18 -6q14 0 21 12q6 9 6 19 q0 13 -14 18l-43 27zM1135 782l22 90h150l16 -155l66 155h110l-149 -297h-95l-36 207h-84zM1145 322l76 67l12 -14l-62 -53l31 -37l55 47l13 -15l-56 -47l48 -53l-15 -12zM1210 1038l103 90l-33 37l14 13l78 -91l-14 -12l-33 37l-102 -88zM1243 414l62 102l16 -10l-25 -43 l117 -70l-10 -16l-119 69l-24 -43z" />
<glyph unicode="[" horiz-adv-x="1777" d="M205 0v1450h127l366 -1147v1147h113v-1450h-123l-369 1120v-1120h-114zM975 1450h137l217 -1233l209 1233h137l-293 -1450h-114z" />
<glyph unicode="\" d="M102 608q0 101 71.5 173.5t172.5 72.5t173.5 -72.5t72.5 -173.5t-72 -172t-174 -71q-101 0 -172.5 71t-71.5 172z" />
<glyph unicode="]" d="M102 608q0 101 71.5 173.5t172.5 72.5t173.5 -72.5t72.5 -173.5t-72 -172t-174 -71q-101 0 -172.5 71t-71.5 172z" />
<glyph unicode="^" d="M102 608q0 101 71.5 173.5t172.5 72.5t173.5 -72.5t72.5 -173.5t-72 -172t-174 -71q-101 0 -172.5 71t-71.5 172z" />
<glyph unicode="_" horiz-adv-x="911" d="M-2 676v92h917v-92h-917z" />
<glyph unicode="`" d="M102 608q0 101 71.5 173.5t172.5 72.5t173.5 -72.5t72.5 -173.5t-72 -172t-174 -71q-101 0 -172.5 71t-71.5 172z" />
<glyph unicode="a" horiz-adv-x="2203" d="M104 739q0 145 50 270t137.5 215.5t206 154.5t256.5 96t288 32q237 0 444 -54.5t408 -182.5v-312q-119 61 -215.5 95.5t-212.5 52.5q-49 6 -94 6q-189 0 -304.5 -109t-117.5 -276q0 -164 111.5 -281.5t271.5 -117.5t290.5 30t256.5 99v-314q-211 -102 -400.5 -151 t-394.5 -49q-104 0 -215 12q-156 18 -296 83.5t-244 166t-165 239.5t-61 295zM141 739q0 -196 99.5 -361t265.5 -265t368 -123q114 -13 203 -13q202 0 385 47.5t383 141.5v231q-207 -106 -512 -106q-175 0 -296.5 128.5t-121.5 307.5q0 184 128 303t331 119q46 0 96 -6 q194 -30 388 -125v231q-182 116 -375 168.5t-434 52.5q-186 0 -350 -49.5t-288.5 -140.5t-197 -231t-72.5 -310zM299 520v334q0 127 84 220t207 93q122 0 205.5 -82t83.5 -208q0 -116 -83 -194.5t-202 -78.5q-29 0 -62 8v162q24 -12 54 -12q52 0 93.5 36.5t41.5 88.5 q0 50 -37.5 88.5t-87.5 38.5q-54 -1 -89.5 -37.5t-35.5 -85.5v-594h-10q-80 0 -125 53q-17 20 -25.5 49.5t-10 52t-1.5 68.5zM1612 743v166h540v-166h-127v-231h-286v231h-127zM1647 780h129v-231h213v231h127v94h-469v-94z" />
<glyph unicode="b" horiz-adv-x="1474" d="M53 995q0 121 51.5 219.5t139.5 161.5t201.5 97t240.5 34q164 0 297 -36.5t268 -120.5v-209q-204 102 -350 102q-126 0 -203 -73t-77 -185q0 -110 73.5 -187.5t182.5 -78.5q109 0 194 19.5t170 66.5v-209q-276 -135 -530 -135q-79 0 -144 8q-217 24 -365.5 170.5 t-148.5 355.5zM78 995q0 -197 141.5 -337t349.5 -164q106 -9 138 -9q250 0 512 125v154q-143 -70 -345 -70q-120 1 -199 86.5t-79 204.5q0 124 85 204.5t220 80.5q72 0 162 -26t164 -64v155q-122 77 -251.5 112.5t-289.5 35.5q-167 0 -303.5 -56t-220.5 -168.5t-84 -263.5z M182 848v223q0 84 58 146.5t139 62.5q79 0 135.5 -56t56.5 -139q-2 -73 -55.5 -127.5t-130.5 -54.5q-21 0 -45 6v109q13 -8 37 -8q33 0 60.5 22.5t27.5 54.5q0 42 -25.5 66.5t-58.5 24.5h-2q-36 -1 -59 -29t-23 -64v-387h-8q-48 0 -80 37q-27 29 -27 113zM254 0l82 211h55 l82 -211h-51l-16 43h-87l-14 -43h-51zM334 80h59l-28 82h-3zM516 0v211h49v-82h41q7 40 37 62t74 22q49 0 79.5 -28.5t30.5 -82.5q0 -51 -28.5 -81.5t-81.5 -30.5q-51 0 -79.5 28t-33.5 74h-39v-92h-49zM653 102q0 -31 15.5 -52t48.5 -21q61 0 61 73q0 33 -16 53.5t-45 20.5 q-30 0 -47 -20.5t-17 -53.5zM864 45v37l84 125h51v-129h25v-33h-25v-45h-45v45h-90zM897 78h57v90zM1061 100q0 107 80 107t80 -107q0 -106 -80 -106t-80 106zM1061 997v111h362v-111h-84v-155h-192v155h-86zM1085 1022h86v-156h144v156h84v61h-314v-61zM1108 96 q0 -16 1 -24.5t3.5 -21t9.5 -18t19 -5.5t19 6.5t10 19.5t3.5 22t0.5 25v4q0 16 -0.5 24.5t-3.5 21t-10 18.5t-19 6t-19 -6t-10 -18.5t-3.5 -21t-0.5 -24.5v-8z" />
<glyph unicode="c" d="M102 608q0 101 71.5 173.5t172.5 72.5t173.5 -72.5t72.5 -173.5t-72 -172t-174 -71q-101 0 -172.5 71t-71.5 172z" />
<glyph unicode="d" horiz-adv-x="1705" d="M100 723q0 153 59.5 292.5t160 240t240 160t292.5 59.5t292.5 -59.5t240 -160t160 -240t59.5 -292.5q0 -264 -163 -468t-413 -263h275v-291h-897v291h270q-251 59 -413.5 262.5t-162.5 468.5zM121 723q0 -200 97.5 -368t265.5 -265.5t368 -97.5t368 97.5t265.5 265.5 t97.5 368t-97.5 368t-265.5 265.5t-368 97.5t-368 -97.5t-265.5 -265.5t-97.5 -368zM178 725v2q0 26 13.5 39.5t35.5 13.5h92v-18h-86q-36 0 -36 -37q0 -35 36 -35h86v-16h-90q-23 0 -37 13t-14 38zM201 573l118 84l5 -20l-2 -2l-99 -68l121 -6l4 -20l-143 12zM201 874l4 19 l117 -31l12 45l14 -4l-29 -106l-16 4l12 45zM272 387l111 78l35 -49q17 -26 0 -47t-41 -7q7 -20 -6 -35t-33.5 -12.5t-34.5 25.5zM297 381l18 -31q12 -17 27.5 -15t19.5 15.5t-6 28.5l-20 29zM334 702v19h18v-19h-18zM334 733v17h18v-17h-18zM346 416l21 -29q9 -14 21.5 -13 t16.5 11t-2 23l-22 32zM373 1188l41 37q17 14 36.5 13t36 -15t27 -32t8.5 -39t-18 -34l-43 -35zM375 260.5q-4 22.5 16 46.5q15 15 32 18t28.5 -4.5t18.5 -20t3 -29t-20 -31.5l-54 51q-20 -20 -4 -40.5t37 -6.5l12 -13q-20 -15 -42.5 -4t-26.5 33.5zM397 1188l66 -80l29 22 q19 15 9.5 42.5t-32 39.5t-45.5 -2zM410 301l41 -39q19 20 0 39q-21 21 -41 0zM426 -29v-250h856v250h-856zM453 188l57 78l12 -8l-6 -14q22 7 31 0l4 -6l-12 -13q-2 4 -4 6q-9 6 -19 3.5t-16 -11.5l-33 -45zM471 -152q0 27 15.5 43.5t41.5 16.5q21 0 35.5 -11.5t14.5 -29.5 h-17q0 9 -10 18t-23 9q-19 0 -30 -14t-11 -34t10.5 -33.5t28.5 -13.5q35 0 35 35h-33v12h52v-59h-13l-2 16q-13 -18 -39 -18q-27 0 -41 17.5t-14 45.5zM494 1284l14 8l74 -114l-15 -11zM512 145l68 119l14 -8l-68 -119zM555 123l45 92l14 -6l-45 -92zM557 1319l18 10 l105 -76l-43 103l18 6l52 -125l-19 -8l-104 74l41 -101l-17 -8zM586 543q0 54 32 92l166 194h-118l-45 45v203h317q50 0 93 -29q43 -28 65 -70q22 -40 22 -87q0 -52 -31 -92l-151 -189h147l43 -47v-182h-374q-60 0 -113 44t-53 118zM596 104l39 95l14 -6l-6 -15q10 6 25 6 t25 -13t3 -32l-26 -65l-15 6l25 59q9 23 -10 31q-20 8 -33 -12q-2 -3 -4 -8l-23 -52zM596 539q0 -64 47 -105l6 8q-16 22 -16 64q0 35 35 84l200 239h-69l-168 -194q-35 -41 -35 -96zM606 -96h84v-15h-67v-34h61v-15h-61v-39h69v-14h-86v117zM606 229l8 17l15 -8l-8 -17z M631 881l35 -35v174l-35 35v-174zM633 1067l41 -39h297q46 0 82 -12q-43 51 -119 51h-301zM678 498q0 -50 33.5 -71t79.5 -21v14q-37 0 -67 17t-30 52h97v17h-97q0 35 30 51t67 16v17q-46 0 -79.5 -21t-33.5 -71zM717 -96h53q14 0 23.5 -9t9.5 -24q0 -35 -35 -35h-35v-49 h-16v117zM723 113l4 16l47 -8l-4 -17zM733 -111v-41h33q20 0 20 23q0 18 -20 18h-33zM805 55v135h59q18 0 28.5 -9.5t10.5 -22.5q0 -24 -20 -29q26 -7 26 -35q0 -16 -12.5 -27.5t-34.5 -11.5h-57zM821 -96h49q39 0 39 -31q0 -21 -16 -29q16 -4 16 -24v-19q0 -10 4 -10v-4 h-20v29q0 20 -21 20h-34v-49h-17v117zM821 1325q0 43 29 61.5t59.5 7.5t34.5 -42h-18q-4 22 -24.5 28t-40 -9t-19.5 -44q0 -33 20 -49t41 -6.5t25 39.5h-41v16h59l-2 -72h-14l-4 17q-13 -19 -38 -21t-46 18t-21 56zM823 70h39q29 0 29 24q0 25 -31 25h-37v-49zM823 133h33 q12 0 18 2q11 5 11 21q0 18 -29 18h-33v-41zM838 -111v-39h34q21 0 21 21q0 18 -21 18h-34zM890 882.5q3 -33.5 28 -61.5q43 -34 84.5 -34t69.5 34q23 28 23 67q0 8 -1 17h-93v-24h64q0 -45 -45 -61q-14 -5 -26 -5q-29 0 -54 25q-19 20 -22 44.5t8.5 43.5t30 31t45.5 8.5 t53 -25.5l18 19q-32 29 -67.5 34t-61 -11.5t-41.5 -42t-13 -59zM899 563h213l-35 37h-149zM936 -96h16v-74q0 -31 31 -31q29 0 29 31v74h16v-76q0 -20 -12.5 -31.5t-32.5 -11.5q-21 0 -34 11.5t-13 31.5v76zM936 158l16 2l2 -17q8 25 31 25v-21q-9 4 -19.5 -4.5t-7.5 -25.5 l9 -56l-17 -2zM963 -68h16v-16h-16v16zM987 1317q17 42 55 48l12 2q30 1 50 -25q14 -17 13 -39q0 -15 -7 -33q-18 -42 -56 -48q-6 -1 -12 -1q-28 0 -48 24q-14 17 -14 38q0 16 7 34zM989 -68h17v-16h-17v16zM1004 143q-2 20 14 33t35 10t26 -24l15 -43q3 -12 14 -6l2 -13 q-23 -14 -29 6q-3 -20 -32.5 -25.5t-34.5 19.5q-3 18 8 28.5t26 16t17 9.5q-6 24 -27 17.5t-18 -26.5zM1006 1309q-14 -33 3 -53.5t44 -14.5t39 37q13 34 -3.5 55t-43 14.5t-39.5 -38.5zM1028 106q3 -17 24 -11q22 7 22 27q0 5 -1 9l-4 12q-2 -3 -22.5 -12.5t-18.5 -24.5z M1057 -96h80v-15h-64v-34h55v-15h-55v-53h-16v117zM1098 207l14 10l8 -14q0 24 24.5 34t41.5 -16l35 -59l-15 -8l-32 55q-10 15 -22 13.5t-20 -14.5t-2 -24l31 -55l-14 -8zM1122 1231l15 -8q-15 -24 10 -45q24 -20 42 -7q17 13 0 33l-3 4l-25 23q-16 15 -10 34.5t25 25.5 t43 -7q27 -18 27 -40q0 -12 -9 -25l-14 8q7 9 3.5 21.5t-16.5 21.5q-13 8 -25.5 4t-14.5 -13.5t6 -19.5l24 -22q21 -20 14.5 -42.5t-29 -26.5t-48.5 15q-24 21 -24 41q0 13 9 25zM1147 -96h94v-15h-39v-102h-16v102h-39v15zM1208 277.5q11 24.5 41 19.5l-30 37l12 10l72 -84 l16 -18l-10 -11l-11 9q3 -28 -25.5 -37.5t-51.5 18.5q-24 32 -13 56.5zM1223 268.5q-3 -15.5 10 -35.5q15 -19 33 -17t21 18t-13 38q-15 17 -31.5 14.5t-19.5 -18zM1225 1096l90 84l-31 32l12 13l74 -82l-12 -13l-31 35l-90 -82zM1289 351q3 27 26 34t55 -16l-43 -56 q13 -12 28 -7t19 17t-4 23l10 12q22 -21 5 -48q-18 -28 -49 -20q-14 4 -25 13q-25 21 -22 48zM1309 362q-14 -18 8 -40l33 43q-24 18 -41 -3zM1341 426l7 12l12 -6q-9 22 0 35q13 30 45 14l59 -30l-8 -15l-51 29q-23 11 -35 -8q0 -3 -0.5 -7.5t-0.5 -6.5t1 -6t3 -6.5t6 -6 t10 -6.5l49 -25l-11 -14zM1354 537l4 14l47 -12q-19 26 1 45.5t50 11.5q38 -10 43.5 -39t-22.5 -41l12 -4l-4 -14zM1403 883l88 20q8 1 14 1q36 0 43 -36q11 -33 -20 -45l-2 19q5 2 7.5 5.5t3 6t-0.5 7.5v5q-5 18 -19 20.5t-24 -1.5q12 -6 18 -25q6 -25 -18 -39 q-9 -12 -29 -12q-32 -6 -47 12q-7 7 -10 17q-1 6 0.5 12t3 9l3.5 7l3 4l-12 -2zM1412.5 548q4.5 -16 25.5 -22q22 -6 36 5.5t9 27t-29 21.5q-20 7 -33 -4.5t-8.5 -27.5zM1417 631l2 16l66 -8q23 -2 24 17q1 20 -19 29q-5 3 -11 3l-54 6l2 17l97 -11l-2 -16l-13 2 q20 -9 12 -38t-36 -25zM1417 786l21 2q0 -14 7 -22t17 -8l60 4l2 -17l-99 -6l-2 17h17q-23 9 -23 30zM1421 844q4 -17 19.5 -20.5t23.5 1.5q40 7 31 35q-5 26 -39 21q-1 0 -7.5 -3t-9 -4t-7.5 -4.5t-7 -6.5t-3.5 -8t-0.5 -11z" />
<glyph unicode="e" horiz-adv-x="3854" d="M104 84q0 24 11 70l137 510q12 49 36 75.5t48 30.5q-11 8 -21 31.5t-10 48.5q0 14 2 22l142 525q14 53 69 53h1184l-88 -330h-862l-52 -194l861 2l-93 -350h-862l-57 -220h860l-96 -358h-1120q-89 0 -89 84zM1534 0l389 1450h385l-389 -1450h-385zM2146 0l97 358h862 l57 220h-860l92 350l860 -2l54 194h-863l88 330h1123q49 0 71.5 -19t22.5 -47q0 -12 -2 -18l-137 -520q-11 -46 -74 -76q13 -2 23 -17t10 -42q0 -20 -6 -47l-142 -529q-6 -21 -7 -25.5t-6 -22t-7.5 -21t-8.5 -16.5t-11 -16t-13.5 -11.5t-17.5 -10.5t-21.5 -6t-27.5 -5 t-33 -1h-1123z" />
<glyph unicode="f" horiz-adv-x="2289" d="M156 723q0 472 161 633q102 102 230 104q17 0 34 -2t39 -7l33 -7.5t38.5 -10.5t33.5 -10v-143q-61 29 -93.5 39t-66.5 10q-83 0 -157 -67q-119 -112 -119 -541q0 -423 119 -535q74 -67 157 -67q34 0 66.5 10t93.5 39v-143q-6 -2 -33.5 -10t-38.5 -10.5l-33 -7.5t-39 -7 t-34 -2q-128 2 -230 104q-161 161 -161 631zM829 723q0 471 162 633q102 102 230 104q17 0 34 -2t39 -7l33 -7.5t38.5 -10.5t33.5 -10v-143q-61 29 -93.5 39t-66.5 10q-84 0 -158 -67q-118 -111 -118 -541q0 -424 118 -535q74 -67 158 -67q34 0 66.5 10t93.5 39v-143 q-6 -2 -33.5 -10t-38.5 -10.5l-33 -7.5t-39 -7t-34 -2q-128 2 -230 104q-162 162 -162 631zM1491 2l278 1446h123l295 -1446h-143l-49 297h-314l-51 -297h-139zM1696 414h280l-143 786z" />
<glyph unicode="g" horiz-adv-x="1769" d="M102 725q0 159 62 303.5t166.5 249.5t249.5 167t305 62q128 0 247.5 -39.5t215.5 -112t168 -169t111.5 -215.5t39.5 -246t-39.5 -246t-111.5 -215.5t-168 -169t-215.5 -112t-247.5 -39.5q-160 0 -305 62t-249.5 167t-166.5 249.5t-62 303.5zM205 725q0 -112 34.5 -216 t97.5 -188t147 -147t187.5 -97t213.5 -34t213.5 34t187.5 97t147 147t97.5 188t34.5 216t-34.5 216t-97.5 188t-147 147t-187.5 97t-213.5 34t-213.5 -34t-187.5 -97t-147 -147t-97.5 -188t-34.5 -216zM336 727q0 147 94 238.5t238 91.5q90 0 165.5 -38t116.5 -106l-112 -65 q-26 38 -73 61t-99 23q-86 0 -138.5 -56.5t-52.5 -144.5q0 -94 53 -152.5t142 -58.5q62 0 105.5 29.5t64.5 81.5h-172v114h323q0 -159 -87 -252.5t-240 -93.5q-148 0 -238 93t-90 235zM1034 412v628h142v-503h219v-125h-361z" />
<glyph unicode="h" horiz-adv-x="2289" d="M156 723q0 472 161 633q102 102 230 104q17 0 34 -2t39 -7l33 -7.5t38.5 -10.5t33.5 -10v-143q-61 29 -93.5 39t-66.5 10q-83 0 -157 -67q-119 -112 -119 -541q0 -423 119 -535q74 -67 157 -67q34 0 66.5 10t93.5 39v-143q-6 -2 -33.5 -10t-38.5 -10.5l-33 -7.5t-39 -7 t-34 -2q-128 2 -230 104q-161 161 -161 631zM829 723q0 471 162 633q102 102 230 104q17 0 34 -2t39 -7l33 -7.5t38.5 -10.5t33.5 -10v-143q-61 29 -93.5 39t-66.5 10q-84 0 -158 -67q-118 -111 -118 -541q0 -424 118 -535q74 -67 158 -67q34 0 66.5 10t93.5 39v-143 q-6 -2 -33.5 -10t-38.5 -10.5l-33 -7.5t-39 -7t-34 -2q-128 2 -230 104q-162 162 -162 631zM1491 2l278 1446h123l295 -1446h-143l-49 297h-314l-51 -297h-139zM1696 414h280l-143 786z" />
<glyph unicode="i" horiz-adv-x="2744" d="M205 0v1450h452q59 0 97.5 -1.5t92.5 -9.5t92 -23t79 -43.5t72 -69.5q67 -87 67 -218q0 -162 -94 -256q-10 -10 -20.5 -17.5t-19 -13t-11.5 -7.5q77 -22 112 -43q156 -92 156 -306q0 -126 -58 -233t-169 -160q-60 -28 -133 -38.5t-203 -10.5h-512zM508 256h205 q41 0 65.5 2t58 9t59 24.5t44.5 46.5q33 47 33 119q0 65 -31 106q-18 25 -42 40.5t-56 21t-53 7t-60 1.5h-223v-377zM512 887h154q61 0 99 13t66 56q29 46 29 99q0 70 -51 110q-21 15 -48.5 23t-46 9t-52.5 1h-150v-311zM1280 1450h344l281 -834q44 -138 57 -190 q12 -46 23 -111q62 228 69 248l297 887h342l-567 -1450h-305z" />
<glyph unicode="j" horiz-adv-x="4952" d="M102 172l209 229q35 -39 56 -60t57.5 -50.5t75.5 -43.5t82 -14q72 0 124 48t52 120q0 43 -25 82q-12 18 -28.5 33.5t-38 28.5t-37.5 21.5t-43.5 21.5t-40.5 20q-142 69 -211 125q-160 129 -160 324q0 187 135 309.5t340 122.5q253 0 418 -197l-201 -225q-12 18 -26.5 35 t-43 43.5t-66 42.5t-77.5 16q-61 0 -105 -37t-44 -96q1 -38 20 -70.5t55.5 -57t61.5 -37.5t64 -29q1 0 3 -1.5t3 -1.5q102 -46 147 -71t88 -60q139 -119 139 -309q0 -140 -68 -247.5t-182 -163.5t-255 -56q-143 0 -256.5 45t-221.5 160zM1069 0l569 1450h334l596 -1450h-340 l-114 293h-601l-108 -293h-336zM1612 567h397l-106 293q-51 144 -68 202.5t-27 131.5q-8 -61 -14 -88q-17 -73 -82 -256q-89 -252 -100 -283zM2695 0v1450h453q48 0 81 -1.5t77.5 -5.5t78.5 -14.5t70.5 -26t68.5 -41.5t58 -61q68 -89 68 -217q0 -162 -95 -254 q-11 -10 -53 -38h2q63 -14 113 -43q155 -92 155 -308q0 -126 -58.5 -232.5t-168.5 -158.5q-59 -29 -131.5 -39t-206.5 -10h-512zM3000 254h203q53 0 87 3.5t75 23t65 55.5q33 46 33 119q0 65 -31 108q-18 25 -41.5 40.5t-55.5 21t-53.5 7t-59.5 1.5h-222v-379zM3004 887h152 q61 0 99.5 13t66.5 56q29 46 29 97q0 73 -52 110q-20 15 -46 23t-43.5 9t-49.5 1h-8h-148v-309zM3867 172l209 229q36 -40 56 -60.5t57 -50.5t75.5 -43.5t81.5 -13.5q72 0 124 48t52 120q0 43 -25 82q-12 18 -28.5 33.5t-38 28.5t-37.5 21.5t-43.5 21.5t-40.5 20 q-142 69 -211 125q-160 129 -160 324q0 187 135 309.5t340 122.5q253 0 418 -197l-200 -225q-12 18 -26.5 35t-43 43.5t-66 42.5t-77.5 16q-61 0 -105.5 -37t-44.5 -96q1 -38 20 -70.5t55.5 -57t61.5 -37.5t64 -29q1 0 3 -1.5t3 -1.5q102 -46 147 -71t88 -60 q140 -120 140 -309q0 -210 -145 -338.5t-361 -128.5q-143 0 -256 45t-221 160z" />
<glyph unicode="k" horiz-adv-x="5345" d="M102 725q0 157 48 294.5t136.5 241.5t223.5 164t299 60q224 0 426 -99v-358q-32 28 -56.5 46.5t-77 50.5t-117.5 49.5t-136 17.5q-191 0 -309.5 -134t-118.5 -341q0 -95 27.5 -177.5t80 -147t136.5 -101.5t190 -37q213 0 381 149l-2 -337q-206 -97 -414 -97 q-212 0 -375.5 97.5t-252.5 269t-89 389.5zM1507 0v1450h824v-283h-510v-286h497v-281h-497v-311h508v-289h-822zM2494 727q0 156 51 294t144.5 242t236 165t314.5 61q198 0 364.5 -81.5t272.5 -250.5l-256 -149q-61 89 -161.5 139.5t-223.5 50.5q-187 0 -308.5 -125.5 t-121.5 -337.5q0 -97 28 -183.5t81 -154t138 -107.5t191 -40q132 0 236.5 67t146.5 187h-387v270l727 -2v-10q0 -244 -94 -425t-259.5 -274.5t-381.5 -93.5q-215 0 -383.5 97t-261.5 269.5t-93 391.5zM4166 0v1450h452q61 0 98 -1.5t92 -9.5t93 -22.5t79 -43.5t72 -70 q68 -89 68 -220q0 -161 -96 -254q-10 -10 -20.5 -17.5t-19 -13t-11.5 -7.5q81 -23 114 -43q156 -92 156 -308q0 -125 -59 -231t-170 -160q-58 -28 -131.5 -38.5t-204.5 -10.5h-512zM4471 254h203q53 0 87 3.5t75 23t65 55.5q33 46 33 119q0 65 -31 108q-18 25 -42 40.5 t-56 21t-53.5 7t-59.5 1.5h-221v-379zM4475 887h151q61 0 99.5 13t66.5 56q29 46 29 97q0 72 -51 110q-20 15 -46 23t-43.5 9t-49.5 1h-156v-309z" />
<glyph unicode="l" horiz-adv-x="7532" d="M0 260q0 114 69.5 251.5t178.5 258.5q-107 167 -107 360q0 139 64 228.5t188 89.5h4491v-219h2649v-1012h-2649v-219h-4526q-185 0 -271.5 71t-86.5 191zM127 279q0 -46 19.5 -79t52.5 -50t64 -25t65 -10q49 157 49 274q0 131 -70 260q-180 -235 -180 -370zM276 1122 q0 -154 99 -309q133 -207 133 -418q0 -127 -45 -280h4305v1216h-4375q-47 0 -82 -59t-35 -150zM4884 1114l3 -782h2531v782h-2534z" />
<glyph unicode="m" horiz-adv-x="4919" d="M102 725q0 153 47 289t134 241.5t223 167.5t303 62q201 0 426 -99v-358q-32 28 -56.5 46.5t-77 50.5t-117.5 49.5t-136 17.5q-193 0 -310.5 -136t-117.5 -339q0 -130 49.5 -233.5t149.5 -166.5t235 -63q202 0 381 149l-2 -337q-199 -97 -414 -97q-211 0 -375 97.5 t-253 269.5t-89 389zM1425 0v1450h285l488 -692q58 -83 102 -155.5t60.5 -105.5t49.5 -102q-12 129 -18 267q-1 22 -2.5 62t-2.5 72.5t-1 61.5l-6 592h295v-1450h-281l-506 721q-80 113 -131 194l-67 113q1 -21 7 -82.5t7 -93.5l18 -852h-297zM3004 0v1450h824v-283h-510 v-286h497v-281h-497v-311h508v-289h-822zM3934 1165v285h934v-281h-309v-1169h-316v1165h-309z" />
<glyph unicode="n" horiz-adv-x="1751" d="M102.5 799.5q-0.5 3.5 0.5 10t1 9.5q0 39 23.5 62.5t62.5 23.5q42 0 66 -24q23 -15 23 -62q0 -11 -5 -41q-122 13 -168 15q-3 3 -3.5 6.5zM123 618v5q7 5 22 10t23 10q4 3 4 53q0 12 6 0q28 -28 33 -32h6q4 1 13.5 5t17.5 6t14 1q4 0 0 -4l-20 -41q-4 -5 4 -13 q8 -10 24 -34q1 -4 -1 -5t-7 0l-4 1q-4 1 -13.5 4t-15 4t-14.5 0q-4 -5 -10.5 -15t-11.5 -17t-7 -7q-8 0 -8 18q-2 12 -2 31q-8 7 -28 12.5t-25 7.5zM125 823l2 -4l131 -10q2 4 2 10q0 25 -21.5 42.5t-50.5 17.5q-28 0 -45.5 -16.5t-17.5 -39.5zM134 954q1 1 1 2q3 8 7.5 24 t8 28t7.5 20q7 7 18 -16q0 -4 -2 -6q-12 -12 -12 -35q8 -6 45 -17q5 4 7.5 9.5t5 15.5t3.5 12q4 8 8 6q2 -2 7 -5.5t7.5 -6t0.5 -6.5q-15 -25 -13 -33q8 -6 25 -10t21 -6q5 -1 8.5 3t6 13t3.5 15.5t2 15.5q0 8 2 10q9 0 14 -10q1 -1 2 -3t2 -3q-4 -28 -22 -76q-3 -3 -10 0 q-50 26 -135 49q-6 2 -15 2q-6 3 -3 8zM162 430q12 4 20 6l117 56q14 9 18 8q3 -3 8 -14.5t11 -25.5t8 -18q6 -3 6 -6q2 -4 2 -14q-10 -5 -24 0q-1 3 -4.5 13t-7 18.5t-7.5 11.5q-25 -7 -43 -19q-2 -2 -2 -4q0 -8 8.5 -23t8.5 -22q-10 -6 -23 -2q-3 5 -7 18.5t-9 18.5 q-7 -2 -29 -11.5t-23 -12.5q3 -12 15 -28.5t14 -21.5q4 -4 -2 -4q-11 -3 -20 0q-9 9 -22.5 38t-12.5 38zM174 1069q24 55 53 92q3 0 8 -5.5t7 -6.5q0 -7 -9.5 -18t-9.5 -19q94 -65 129 -74q0 -4 -2 -8.5t-5.5 -10t-4.5 -7.5q-4 -4 -6 -2q-20 18 -119 75q-8 5 -12 -4l-13 -26 q-11 0 -16 14zM217 309q0 5 6.5 12t12.5 7q8 0 8 -13t8 -20.5t16 -7.5q30 0 30 40q0 8 -1 17q-3 27 10.5 43t38.5 16q19 0 34 -16.5t15 -28.5q0 -14 -16 -14q-8 0 -8 4q0 1 -2.5 12t-7.5 16t-15 5q-23 0 -24 -36q0 -9 2 -19q2 -26 -13 -44t-45 -18q-19 0 -34 18.5t-15 26.5z M299 1247q6 12 20 19q40 -12 123 -31q4 -1 4 2q-51 64 -73 78q2 8 18 20q8 0 8 -6q0 -1 1.5 -2t3.5 -2.5t4 -3.5q14 -20 47 -56t55 -53q0 -3 -2 -5.5t-3.5 -4t-5.5 -3.5t-5 -3q-1 -2 -7 0q-9 1 -56 14t-58 15q-7 2 -6 -2q1 -1 2 -4q8 -16 33 -42.5t34 -31.5l-14 -21 q-6 0 -12 9q-4 8 -23.5 29.5t-42 44t-25.5 26.5t-10 7t-10 7zM315 190q-1 4 2 7.5t8 6.5t7 5q18 17 82 90q4 4 0 8q-3 5 -14.5 11.5t-14.5 11.5q0 4 2.5 5.5t8 3.5t7.5 3q6 3 15 -6q30 -26 67 -64q0 -3 -2 -5.5t-4 -3.5l-5 -2.5l-5 -2.5q-5 0 -15.5 12.5t-13.5 12.5 q-7 0 -51.5 -50.5t-48.5 -58.5q0 -2 -2 -2t-4 2q-4 1 -19 16zM360 152q0 2 9 6q14 6 145 86q1 0 3.5 1t4 1t2.5 -2q0 -2 -1 -6.5t-1 -6.5q-5 -22 -22 -77t-21 -86q-2 -2 -2 -7q-2 -2 -6 2q-2 1 -5 3t-5 3t-4.5 3t-3.5 3t-2.5 3.5t-1.5 3.5v4q5 5 8.5 12.5t6 18t3.5 12.5 q-4 8 -18.5 18t-18.5 15q-7 3 -25.5 -14.5t-25.5 -14.5q-14 9 -19 19zM410 551q0 62 43 111q-11 22 -11 43q0 23 10 39t29 16q16 0 25.5 -7t11.5 -14q29 20 29 68q0 17 -23 49q2 13 13 31l-13 6q-11 -33 -51 -33q-24 0 -39.5 21t-15.5 47q0 34 26.5 54.5t61.5 25.5v11 q0 33 15 55q18 26 47 35t61.5 9t60.5 -12v10q0 46 26 68q20 18 57 19q15 0 32 -3q0 32 23.5 67.5t45.5 35.5t46 -35.5t24 -67.5q17 3 32 3q38 -1 58 -19q26 -23 25 -68v-10q28 11 60.5 11.5t61.5 -8.5t47 -35q15 -23 15 -55v-11q35 -5 61.5 -25.5t26.5 -54.5 q0 -26 -15.5 -47t-39.5 -21q-40 0 -51 33l-13 -6q11 -18 13 -31q-23 -32 -23 -49q0 -48 29 -68q2 7 11.5 14t25.5 7q19 0 29 -16t10 -39q0 -21 -11 -43q43 -49 43 -111q0 -71 -40 -118.5t-119 -92.5q10 -20 10 -25q0 -1 -3 -3.5t-5 -2.5t-15.5 -2t-25.5 -3t-29 1 q-10 3 -35 -18q-27 -27 -35 -27q-4 0 -6.5 4.5t-4.5 12.5t-3 10q-14 32 -33 32q-4 0 -4 -2q0 -1 6.5 -12t6.5 -18q0 -12 -11.5 -26t-29.5 -17q4 -4 4 -15q0 -37 -28.5 -58t-64.5 -21q-38 0 -65 20.5t-27 58.5q0 11 4 15q-18 3 -29.5 17t-11.5 26q0 7 6.5 18t6.5 12q0 2 -4 2 q-19 0 -33 -32q-1 -2 -3 -10t-4.5 -12.5t-6.5 -4.5q-8 0 -35 27q-25 21 -35 18q-17 -2 -29 -1t-25.5 3t-15.5 2t-5 2.5t-3 3.5q0 5 10 25q-79 45 -119 92.5t-40 118.5zM446 1339q0 34 24 57t56 23q36 0 60 -29.5t24 -68.5q0 -41 -26 -64q-21 -18 -49 -18q-35 0 -62 31.5 t-27 68.5zM449 553q0 -57 41.5 -113.5t103.5 -77.5l8 7q-93 52 -102 159q-25 21 -25 39q0 10 4.5 17.5t9.5 7.5q3 0 11 -3t12 -3q11 0 20 8.5t9 21.5q0 11 -7.5 19t-19.5 8q-28 0 -46.5 -27.5t-18.5 -62.5zM451 176q2 -1 7 -5.5t8 -6.5t7 -2q2 4 14 39q-27 -17 -36 -25z M461 928q0 -13 7.5 -22t20.5 -9q14 0 22 17.5t11 17.5q12 0 31 -11.5t16 -19.5l-8 -20q1 -3 11 -29t10 -33q0 -37 -19 -74t-51 -53q-1 0 -2 -1t-2 -1l-2 2l-4 2q0 27 -8 27t-13.5 -6t-5.5 -15q0 -22 27 -22q11 0 39 14q62 40 65 127q0 71 -35 121q-17 33 -53 33 q-22 0 -39.5 -13t-17.5 -32zM471 1339q0 -30 25 -51.5t49 -21.5q43 0 43 43v8q-2 29 -23.5 51.5t-52.5 22.5q-41 0 -41 -52zM494 47q-7 5 4 21q35 60 63 133q1 1 1.5 4t1.5 4t3 0l13 -5q12 -5 15 -6.5t12.5 -7t13 -10t7 -12t3.5 -16.5q0 -14 -6 -23q-10 -19 -31 -23 q11 -14 6.5 -36t-18.5 -33q-18 -15 -47 -8q-4 2 -19 7.5t-22 10.5zM522 553q2 -2 12.5 -9t10.5 -16q0 -90 73 -137h9q40 35 86 35q25 0 52.5 -10t29.5 -10t30 18t49 18t49.5 -18t30.5 -18t29.5 10t52.5 10q46 0 86 -35h8q74 47 74 137q0 9 10.5 16t12.5 9v4q-20 3 -35 10 q-27 18 -27 49q0 15 7 31.5t16 20.5q-5 3 -33 24q-55 55 -55 127q0 48 28 125q11 26 11 27t-6.5 17t-6.5 26q0 6 4 18l-6 2q-83 -49 -131 -49q-91 0 -119 102q-28 -102 -118 -102q-48 0 -131 49l-7 -2q5 -15 5 -18q0 -10 -6.5 -26t-6.5 -17t11 -27q28 -77 28 -125 q0 -72 -55 -127q-28 -21 -33 -24q9 -4 16 -20.5t7 -31.5q0 -31 -27 -49q-15 -7 -35 -10v-4zM528 68q-5 -10 4 -15q9 -6 21.5 -1t17.5 16q7 12 4 29t-20 20q-18 -25 -27 -49zM545 1028q0 -12 7.5 -24.5t18.5 -12.5q15 0 15 17q-21 9 -21 26q0 13 13.5 26t27.5 13 q10 0 61 -24.5t89 -24.5q36 0 57 26t21 62q0 27 -15.5 42t-40.5 15q-22 0 -34.5 -12.5t-12.5 -28.5q0 -9 8.5 -16.5t20.5 -7.5q5 0 12.5 4.5t13.5 5.5q5 -5 5 -12q0 -14 -14 -27.5t-34 -13.5t-62.5 14.5t-64.5 14.5q-29 0 -50 -17.5t-21 -44.5zM559 131l4 -4q15 -4 25 2 q12 11 14.5 26t-12.5 23q-1 2 -5 1.5t-5 -3.5q-2 -7 -10 -22.5t-11 -22.5zM584 1448q9 7 39 16q9 2 17 2q26 0 40 -24q16 -25 -4 -60q-5 -7 2 -14q55 -38 61 -43q0 -3 -4 -7.5t-8 -4.5q-16 4 -41.5 23t-40.5 24q7 -43 21 -60q0 -8 -17 -14q-1 0 -4 -1q-7 0 -8 3 q-6 36 -22.5 84.5t-30.5 75.5zM600 4v2q35 65 55 158q5 3 16.5 -2t14.5 -8q-34 -77 -49 -138q0 -9 10 -12q12 -4 39 -4q3 -5 0 -8q-11 -16 -14 -17q-9 1 -38 10.5t-32 10.5q0 2 -1 4.5t-1 3.5zM614 569q0 4 29.5 39t36.5 35q4 0 4 -35q0 -45 8.5 -62t32.5 -28v248h-43v47h45 q-31 37 -31 68q0 26 15 41.5t41 15.5t40.5 -15.5t14.5 -41.5q0 -14 -8.5 -31t-17.5 -27l-9 -10h45v-47h-43v-248q24 11 32.5 28t8.5 62q0 35 4 35t20.5 -18t30.5 -36l15 -18l63 179q1 3 -3.5 5t-9.5 3.5t-5 3.5v39q0 10 12 10q21 0 29 4l20 12q-45 16 -45 56q0 23 15 39 t38 16t39.5 -16t16.5 -39q0 -41 -43 -56l20 -12q8 -4 29 -4q12 0 12 -10v-39q0 -2 -9.5 -5.5t-8.5 -6.5l63 -181q6 -15 6 -28q0 -24 -31 -54t-53 -30q-11 0 -23 6t-18 6t-18 -6t-23 -6q-22 0 -53 30t-31 54q0 5 1.5 10t4 9.5t3.5 6.5q-21 0 -23 -8q-8 -40 -49.5 -76.5 t-60.5 -36.5t-61 36.5t-50 76.5q-1 6 -13 7.5t-12 2.5zM621 1434q9 -36 18 -52q7 -2 16 11q9 15 2 32t-30 17q-8 -4 -6 -8zM629 340q1 -1 20 0.5t25 -0.5q1 0 8.5 -15.5t13.5 -15.5l9 6q12 19 33.5 31t43.5 12q15 0 27 -9t12 -25q0 -3 -6 -9q-3 -1 -8.5 -3t-8 -3t-6 -3.5 t-5 -6.5t-1.5 -10q0 -14 12 -21.5t27 -7.5l4 -8q-10 -5 -10 -23v-8q8 -35 55 -35q48 0 56 35v8q0 18 -10 23l4 8q15 0 27 7.5t12 21.5q0 7 -3 12t-5.5 6.5t-10.5 4t-10 3.5q-6 6 -6 9q0 16 12 25t27 9q22 0 43.5 -12t33.5 -31q5 -6 9 -6q6 0 13.5 15.5t8.5 15.5q6 2 25 0 t20 0q3 3 -2 8q-17 20 -42.5 32.5t-47.5 12.5q-25 0 -57 -13t-35 -13q-1 0 -21.5 19.5t-40.5 19.5t-40 -19.5t-21 -19.5q-3 0 -35 13t-57 13q-22 0 -47.5 -12.5t-42.5 -32.5q-5 -5 -2 -8zM698 -33q0 5 3.5 12.5t3.5 10.5q1 3 11.5 45t16.5 59q6 15 6 35q0 1 1 3t1 3 q5 3 21 -2q4 0 8 -4v-2l-6 -12q-25 -91 -35 -144q0 -8 -2 -10q-12 -2 -29 6zM725 1430q-11 27 2.5 47.5t32.5 23t28 -1.5q5 -15 5 -20h-21q-22 0 -27 -11q-6 -14 2 -23.5t22 -14.5t28.5 -15.5t19.5 -23.5q8 -23 -3 -43t-30 -27q-36 -11 -41 18l2 7q33 -9 48 6 q14 14 -0.5 27.5t-39 27t-28.5 23.5zM731 881q0 -9 6 -15t15 -6q20 0 20 21q0 20 -20 20q-21 0 -21 -20zM768 -25q6 2 9 0.5t11.5 -5t16.5 -3.5q9 0 15.5 8t6.5 17q0 16 -27.5 37.5t-27.5 46.5q0 22 15.5 36.5t37.5 14.5q18 0 27 -6l4 -4q-1 -5 -0.5 -9.5t0 -9t-3.5 -6.5 q-4 1 -13.5 6.5t-17.5 5.5t-15 -6.5t-7 -13.5q0 -14 27.5 -37.5t27.5 -46.5q0 -24 -15.5 -40.5t-37.5 -16.5q-16 0 -33 10q-3 8 0 22zM834 1335q-12 5 0 23q1 14 3 50.5t2 49.5t-1 49q22 6 28 -4q-6 -18 -2 -59h2q4 5 23.5 24.5t25.5 32.5q10 10 33 2v-4q-39 -39 -57 -67 q0 -7 25.5 -44.5t35.5 -50.5l-4 -8q-3 1 -11.5 1t-14.5 1.5t-9 5.5q-32 65 -51 74q-4 -12 -4.5 -36.5t2.5 -37.5q-6 -9 -26 -2zM842 1192q0 -13 7 -29.5t14.5 -26.5t10.5 -10t11 10t15 26.5t7 29.5q0 23 -9.5 41t-23.5 18t-23 -18t-9 -41zM868 119q4 2 29 2q2 -2 2 -4v-9 q0 -17 2 -55q0 -8 10 -8q5 1 16.5 1t20.5 1.5t15 5.5v16q0 27 -5 50q0 4 2 5t6.5 1.5t6.5 1.5q15 0 16 -4q-1 -22 -1 -43q0 -62 9 -109q2 -8 2 -18q-2 -4 -7 -5.5t-9.5 -0.5t-9.5 0q-1 1 -3 1.5t-3 1.5t0 3q4 15 0 63q-3 6 -10 8t-13.5 1t-13.5 0q-2 -1 -8.5 -1t-11 -2 t-7.5 -6q0 -43 6 -67q-5 -10 -18 -6q-13 0 -14 4v57q0 45 -9 115zM909 553q0 -4 4 -4q3 0 11 -0.5t14 -1t12 1.5t8 6q27 64 27 88q0 11 -22 62l-50 -138q-4 -12 -4 -14zM915 1112q0 -36 21 -62t57 -26q38 0 89 24.5t61 24.5q14 0 27.5 -13t13.5 -26q0 -17 -21 -26 q0 -17 15 -17q11 0 18.5 12.5t7.5 24.5q0 27 -21 44.5t-50 17.5q-22 0 -64.5 -14.5t-62.5 -14.5t-34 13.5t-14 27.5q0 7 5 12q6 -1 13.5 -5.5t12.5 -4.5q12 0 20.5 7.5t8.5 16.5q0 16 -12.5 28.5t-34.5 12.5q-25 0 -40.5 -15t-15.5 -42zM963 1327q5 8 10 27.5t14 60.5t14 60 q1 2 1 7t1 9t5 6q19 -3 73 -16l2 -4q-6 -24 -29 -13.5t-28 2.5q-2 -3 -12 -47l22.5 -4.5t24.5 -5.5q5 -7 -8 -20q-6 -2 -11.5 -1t-16 4.5t-15.5 4.5q-9 -23 -9 -35q-4 -23 14.5 -27.5t39.5 0.5l2 -4q0 -4 -6 -10q-4 -8 -11 -8q-2 -2 -19 1.5t-35.5 8t-22.5 4.5zM979 756 q0 -12 7.5 -35t14.5 -35q25 44 25 70q0 12 -8.5 18t-16.5 6t-15 -6t-7 -18zM979 885q0 -21 20 -21q9 0 15 6t6 15q0 20 -21 20q-20 0 -20 -20zM989 549h25q0 7 -3 21t-7 24l-3 10q-12 -39 -12 -55zM1008 129l6 6q1 0 65 17l5 -2q5 -1 6 -5q0 -7 -11 -18q-3 -1 -12 -1.5 t-15.5 -1.5t-11.5 -5q0 -7 2 -15t6 -16.5t5 -13.5q9 -4 12.5 -4t15.5 4.5t21 5.5q4 -3 4 -8t-2 -11t-2 -8q-3 -3 -5.5 -3t-5.5 1.5t-4 1.5q-3 -1 -8.5 -2.5t-9.5 -3.5t-6 -6q0 -13 8 -37q3 -16 8 -16q22 3 41 16q13 6 15 2q0 -2 -0.5 -7t-1 -7t-1.5 -5t-3 -4.5t-5 -2.5 q-8 -3 -31.5 -9.5t-31.5 -9.5q-8 0 -8 4q-20 98 -45 164zM1018 643q0 -27 26 -88q3 -5 10.5 -6.5t21 -0.5t14.5 1q4 0 4 4q0 2 -4 14l-50 138q-22 -51 -22 -62zM1104 156q11 -17 12 -19l55 -112q1 -2 2 -7.5t3.5 -9t7.5 -4.5q4 2 17 8t19.5 9.5t15 11t13.5 16.5q1 2 3 10 t3 9q10 24 -2 61l-4 6q-17 45 -59 51q-6 1 -12 1q-29 0 -66 -19q-8 -8 -8 -12zM1130 1274q3 23 16 90.5t15 83.5q3 8 10 0q13 -3 17 -14q1 -2 -0.5 -6t-1.5 -5q-13 -47 -23 -114q10 9 28 25t31 28.5t25 26.5q1 1 1.5 4.5t2 6t4.5 3.5q14 -3 25 -14q4 -8 -10 -15 q-7 -5 -27.5 -24.5t-32.5 -28.5q-53 -49 -61 -55q-5 -1 -19 8zM1139 150q0 5 6 12q11 4 22 4q30 0 54 -31q14 -26 14 -48q0 -18 -10 -34q-13 -21 -29 -18zM1143 819q3 -87 65 -127q28 -14 39 -14q27 0 27 22q0 9 -5.5 15t-13.5 6t-8 -27l-4 -2l-2 -2q-1 0 -2 1t-2 1 q-32 16 -51 53t-19 74q0 7 10 33t11 29l-8 20q-3 8 16 19.5t31 11.5q3 0 11 -17.5t22 -17.5q13 0 20.5 9t7.5 22q0 19 -17.5 32t-39.5 13q-36 0 -53 -33q-35 -50 -35 -121zM1147 369l8 -7q62 21 103.5 77.5t41.5 113.5q0 35 -18.5 62.5t-46.5 27.5q-12 0 -19.5 -8t-7.5 -19 q0 -13 9 -21.5t20 -8.5q4 0 12 3t11 3q5 0 9.5 -7.5t4.5 -17.5q0 -18 -25 -39q-9 -107 -102 -159zM1190 1247q8 4 14 10q54 61 90 117h6q23 -16 60 -49q-3 -7 -14 -12q-5 0 -13 8q-5 5 -28 18q-9 -10 -18.5 -21t-10.5 -11q-3 -9 8 -15q1 -1 11 -9.5t14 -14.5q0 -3 -2 -4.5 t-6.5 -3.5t-6.5 -3h-6q-2 1 -6 5q-9 18 -25 18q-4 -1 -15.5 -16t-14.5 -23q-1 -4 17 -17t30 -16q2 -2 2 -6q-22 -11 -27 -10q-42 28 -57 43q0 2 -1 6t-1 6zM1274 225q-3 11 4 37q0 6 14 -8q13 -13 86 -96q2 -2 6 -4.5t6.5 -4.5t4 -6t0.5 -8q-12 -12 -19 -12 q-10 15 -45.5 53.5t-40.5 46.5q-3 3 -8 1t-8 1zM1274 1186q5 4 29 25.5t33.5 30.5t26.5 26.5t30 34.5q3 -3 14 -12.5t18 -17.5t9 -16q5 -13 2 -32q-3 -16 -25 -29q-14 -6 -39 -6q-4 -2 -6 -6.5t-3.5 -11t-2.5 -9.5q-6 -39 -6 -51q0 -6 -6 -6q-10 0 -13 6q-3 17 2 48t4 44 q-6 0 -20 -14q-3 -3 -7.5 -7t-7 -6.5t-5 -6t-3.5 -7.5q-5 -5 -10 0q-16 15 -14 23zM1311 291q0 14 13.5 29.5t27.5 15.5q29 0 47 -33q1 -2 3 -8.5t5 -7.5q26 0 42.5 -17.5t16.5 -42.5q0 -21 -13.5 -33t-37.5 -12q-13 0 -27.5 12.5t-15.5 26.5q-2 2 -3 9.5t-7 9.5 q-18 0 -35 14q-16 16 -16 37zM1333 293q0 -10 8 -19.5t19 -9.5q10 0 16.5 6.5t5.5 16.5t-10.5 17t-17.5 7q-21 0 -21 -18zM1356 1092q0 6 4 6q19 12 40.5 27.5t47 36t33.5 26.5l8 8h4v-2q12 -8 16 -23q-2 0 -2 -4q-10 -2 -55 -34q-13 -11 -37 -28t-29 -22q-1 -1 -4.5 -7 t-7.5 -7q-8 3 -18 23zM1356 1223q22 -25 47 0q15 15 6 34l-10 9zM1382 387q21 -41 68 -100q16 -19 37 -19q18 0 32.5 14.5t14.5 32.5q0 21 -15.5 38.5t-35.5 17.5q-26 0 -43 -23h-4q-18 18 -41 64q-15 -15 -13 -25zM1389 233q0 -9 9 -16.5t21 -7.5q25 0 25 20q0 19 -12 25 q-9 6 -21 6q-22 0 -22 -27zM1395 1042q18 6 66.5 31.5t64.5 36.5q-1 1 -10.5 14.5t-10.5 20.5q12 12 29 2l45 -88q0 -8 -4 -8q-2 0 -6 -0.5t-7 -0.5t-6 1q-2 3 -3 6t-1.5 6.5t-1.5 5.5q-5 11 -8 12q-4 2 -33 -12q-46 -20 -82 -43q-4 -1 -11 -7.5t-11 -4.5q-10 25 -10 28z M1415 985q0 6 4 8q33 -3 94 -3.5t86 -2.5q3 0 5 -2q-14 -16 -39 -41q-83 -79 -90 -88q-7 -4 -9 -2q-10 17 -10 27v6q2 2 13.5 8t17.5 12q12 12 8 19l-6 18q-4 17 -14 21q-15 4 -43 -4q-7 0 -17 24zM1436 487q-3 6 1 14t11 5l72 -33q10 -7 16 4q4 13 16 6q6 -3 4 -10 q-5 -14 5 -16l18 -9t18 -8q4 -17 -10 -24q-22 7 -35 16q-11 7 -14 -2q-17 -38 -22 -47q-2 -1 -6 -1t-5 1l-63 90q-4 8 -6 14zM1456 322q0 10 8 17t19 7t19.5 -9.5t8.5 -21.5q0 -9 -7.5 -15.5t-18.5 -6.5q-10 0 -19.5 8t-9.5 21zM1466 821q0 13 2 19q3 6 25 6q5 -2 0.5 -13.5 t-4.5 -13.5q0 -31 24 -31q17 0 33 31q18 35 35 39q24 8 46 -5.5t22 -37.5q0 -19 -4 -27q-18 -9 -25 0q6 12 6 27q0 21 -22 21q-13 0 -22 -11t-13.5 -24t-18 -24t-34.5 -11q-24 0 -37 16t-13 39zM1475 602q5 4 30 33q1 8 -9 29.5t-9 25.5q4 0 25 -8.5t28 -7.5q7 4 31 33l6 -2 q-3 -43 -2 -52q12 -8 39 -22q1 -1 4 -3t4 -3q-1 -2 -25.5 -8.5t-29.5 -14.5q0 -35 -8 -45q-13 13 -23 37q-6 6 -25 6q-20 -4 -34 -6q-6 0 -2 8zM1482 459q0 -2 1 -4l20 -33q1 -2 3.5 -2t2.5 2q1 2 2.5 6t3 7.5t1.5 6.5q0 4 -5 7l-20 10q-9 6 -9 0zM1510 948q4 -8 8 -8 q1 0 22 16q4 4 0 7h-29q-8 0 -1 -15z" />
<glyph unicode="o" horiz-adv-x="4046" d="M205 0v1450h315v-1165h496v-285h-811zM1024 725q0 153 47 289t134 241.5t223 167.5t303 62q201 0 426 -99v-358q-31 27 -56.5 46t-77.5 51t-117.5 49.5t-136.5 17.5q-193 0 -310.5 -136t-117.5 -339q0 -130 49.5 -233.5t150 -166.5t235.5 -63q202 0 381 149l-3 -337 q-199 -97 -413 -97q-211 0 -375 97.5t-253 269.5t-89 389zM2425 0v1450h317v-1450h-317zM3070 0v1450h823v-281h-510v-288h498v-281h-498v-311h508v-289h-821z" />
<glyph unicode="p" horiz-adv-x="3934" d="M51 0l570 1450h333l596 -1450h-340l-114 293h-600l-109 -293h-336zM594 567h397l-106 293q-50 141 -67 200.5t-27 135.5q-6 -46 -15 -88q-17 -75 -82 -258q-89 -253 -100 -283zM1677 0v1450h453q59 0 97.5 -1.5t92 -9.5t92 -23t79.5 -43.5t73 -69.5q68 -89 68 -220 q0 -162 -95 -254q-15 -14 -33 -26l-18 -12q79 -23 113 -43q156 -92 156 -306q0 -127 -59 -234t-169 -159q-59 -29 -131.5 -39t-206.5 -10h-512zM1982 254h203q80 0 136 16t92 68q32 49 32 119q0 66 -30 106q-18 25 -42 40.5t-56 21t-53.5 7t-59.5 1.5h-222v-379zM1987 887 h151q61 0 99.5 13t66.5 56q29 46 29 97q0 73 -52 112q-20 15 -47.5 23t-46.5 9t-53 1h-147v-311zM2849 172l209 229q36 -40 56 -60.5t57 -50.5t75.5 -43.5t81.5 -13.5q72 0 124 48t52 120q0 45 -24 82q-15 22 -40.5 42t-42.5 30t-56.5 29t-49.5 24q-142 69 -211 125 q-160 129 -160 324q0 187 135.5 309.5t340.5 122.5q252 0 417 -197l-200 -225q-12 18 -26.5 35t-43 43.5t-66 42.5t-77.5 16q-61 0 -105.5 -37t-44.5 -96q1 -38 20 -70.5t55.5 -57t61.5 -37.5t64 -29q1 0 3 -1.5t3 -1.5q103 -46 148 -71t88 -60q139 -119 139 -309 q0 -210 -145 -338.5t-361 -128.5q-143 0 -256 45t-221 160z" />
<glyph unicode="q" horiz-adv-x="1748" d="M53 158q0 32 13.5 72.5t25.5 64.5t35 65l549 990q20 36 34 57.5t37 48t52 39t65 12.5q72 0 112 -36.5t87 -120.5l539 -961q4 -8 21.5 -37.5t27 -47.5t22.5 -45.5t19 -52.5t6 -48q0 -36 -19 -64q-35 -53 -81.5 -73.5t-120.5 -20.5h-1198q-81 0 -124.5 13.5t-78.5 66.5 q-23 36 -23 78zM113 160q0 -30 12 -47q24 -37 53.5 -46.5t100.5 -9.5h1198q159 0 159 99q0 53 -45 135q-6 13 -21 36t-20 33l-538 961q-44 78 -71 102.5t-77 24.5q-24 0 -43.5 -9t-36.5 -29t-25.5 -33.5t-23.5 -41.5l-549 -987q-1 -2 -9 -16t-10.5 -19t-10 -19.5t-11 -22.5 t-10 -21.5t-9.5 -23.5t-6.5 -22t-5 -23t-1.5 -21zM444 184l7 33l22 19v309l-29 14v33h162l250 -334l250 334h160v-33l-29 -14v-309l25 -19l6 -33h-178l6 33l22 19l2 286l-252 -338h-26l-250 338v-286l24 -19l5 -33h-177zM627 668h186l49 -62h-94l88 -114l127 180l-313 286 l204 299l168 -327h-168l-4 57l50 -6l-48 121l-98 -139l316 -289l-232 -301z" />
<glyph unicode="r" horiz-adv-x="2703" d="M102 494q0 95 19 141q12 29 42.5 45t72.5 16q74 0 98 -41q20 -33 20 -90v-6h-86v23q-3 55 -35 55q-27 0 -34 -33q-6 -24 -6 -86q0 -18 1 -51t1 -41q3 -61 38 -61q12 0 22 8t13 20q4 24 4 53v13h84q0 -73 -20 -107q-26 -45 -111 -45q-46 0 -73 19q-28 19 -39 56t-11 112z M430 725q0 159 62 304t166.5 249.5t249.5 166.5t304 62t304 -62t250 -166.5t167 -249.5t62 -304t-62 -304t-167 -249.5t-250 -166.5t-304 -62t-304 62t-249.5 166.5t-166.5 249.5t-62 304zM573 725q0 -130 50.5 -248t136.5 -204t204 -136.5t248 -50.5t248 50.5t203 136.5 t135.5 204t50.5 248t-50.5 248t-135.5 203t-203 135.5t-248 50.5t-248 -50.5t-204 -135.5t-136.5 -203t-50.5 -248zM815 684v461h148v-469q0 -21 13.5 -36t33.5 -15q22 0 36.5 14.5t14.5 36.5v469h151v-459q0 -80 -59 -127t-141 -47q-81 0 -139 47t-58 125zM928 393 q0 35 25.5 60.5t60.5 25.5q37 0 62.5 -25.5t25.5 -60.5q0 -36 -26 -62t-62 -26q-35 0 -60.5 26.5t-25.5 61.5zM934 393q0 -33 23.5 -56.5t56.5 -23.5q34 0 57 23t23 57t-23 57t-57 23q-33 0 -56.5 -23.5t-23.5 -56.5zM983 342v104h37q24 0 24 -26q0 -24 -14 -27q8 -3 12 -22 q0 -19 5 -29h-13q-2 2 -2 10v17q-6 17 -12 18h-27v-45h-10zM993 397h23q18 0 18 21q0 16 -14 16h-27v-37zM1266 303v621h155l2 -496h181v-125h-338zM2066 426v264h86v-278q0 -47 37 -47q20 0 28.5 11t8.5 36v278h88v-264q0 -42 -12 -66q-8 -16 -23 -28q-31 -27 -96 -27 q-54 0 -84 27q-33 26 -33 94zM2347 412v16h84v-8q0 -55 39 -55q43 0 43 45q0 18 -8 28t-29 19l-55 24q-15 7 -31 17q-39 28 -39 84q0 116 125 116q58 0 85.5 -26t27.5 -82v-6h-82v6q0 47 -35 47t-35 -39q0 -33 39 -49l53 -25q30 -15 33 -18q39 -20 39 -84q0 -61 -35 -88 q-37 -29 -98 -29q-121 0 -121 107z" />
<glyph unicode="s" horiz-adv-x="1388" d="M102 684q0 176 50.5 331.5t133.5 262t191 168t223 61.5q120 0 227.5 -58t186.5 -160t125.5 -248t46.5 -314q0 -171 -47 -318.5t-126.5 -249t-187.5 -159t-229 -57.5q-122 0 -232 58.5t-189 157.5t-126 236t-47 289zM162 686q0 -188 70 -345.5t193 -249t271 -91.5 q110 0 207.5 53t169 146t113 229t41.5 295q0 208 -70 374t-190.5 257.5t-266.5 91.5q-104 0 -201.5 -56t-172 -153.5t-119.5 -241.5t-45 -309zM387 602q0 97 88 158t230 61q74 0 125.5 -21t103.5 -67l-72 -71l-10 6q-78 47 -168 47q-83 0 -130.5 -31.5t-47.5 -73.5 q0 -49 36 -68.5t117 -19.5q13 0 50 1t55 1q108 0 170.5 -49.5t62.5 -144.5q0 -106 -83.5 -160.5t-233.5 -54.5q-81 0 -139 21.5t-113 68.5l74 69l8 -6q61 -47 170 -47q96 0 146.5 32t50.5 81q0 39 -29 56.5t-100 17.5q-14 0 -49.5 -1t-51.5 -1q-123 0 -191.5 48t-68.5 148z M494 1077v113h137v147h123v-147h135v-113h-135v-141h-123v141h-137z" />
<glyph unicode="t" horiz-adv-x="5572" d="M102 807v207h174v436h205v-436h586q104 0 200 -41.5t166.5 -112t112 -169t41.5 -206.5q0 -142 -69 -262.5t-189.5 -192t-265.5 -71.5q-141 0 -262 69t-192.5 190.5t-71.5 266.5q0 182 110 322h-166v-807h-205v807h-174zM741 485q0 -133 93 -226t227 -93t227.5 93 t93.5 226q0 134 -94 228t-227 94t-226.5 -94t-93.5 -228zM1640 -236v1248h207v-131q125 131 320 131q141 0 261 -68t191.5 -190t71.5 -269q0 -138 -67 -257.5t-188.5 -193t-268.5 -73.5q-194 0 -320 129v-326h-207zM1640 -350h207l-2 -146h496q29 0 53 20.5t34 41.5l9 20 l641 1479q14 37 14 78q0 102 -108 102h-1344v205h1344q76 0 134.5 -16t94 -41.5t57.5 -61.5t30 -72t8 -77q0 -46 -10 -96t-20 -76l-11 -27l-641 -1479q-3 -8 -9.5 -22t-31.5 -49t-55 -62t-81 -49t-108 -22q-91 0 -245 -1t-249 -1q-86 0 -146.5 60t-60.5 146v146zM1847 485 q0 -133 93 -226t227 -93t227.5 93t93.5 226q0 134 -94 228t-227 94t-226.5 -94t-93.5 -228zM3142 485v17q4 139 74.5 256.5t190 185.5t259.5 68t260 -68t191 -185.5t75 -256.5v-17q0 -172 -102 -311q-73 -100 -184.5 -157.5t-239.5 -57.5q-127 0 -238 57.5t-184 157.5 q-102 139 -102 311zM3346 485q0 -133 93 -226t227 -93t227.5 93t93.5 226q0 134 -94 228t-227 94t-226.5 -94t-93.5 -228zM4243 0v1450h205v-569q128 131 320 131q140 0 260 -68t191 -185.5t75 -256.5v-17q0 -102 -41 -198t-111 -167.5t-168 -115t-206 -43.5 q-191 0 -320 129v-90h-205zM4448 485q0 -133 93 -226t227 -93t227.5 93t93.5 226q0 134 -94 228t-227 94t-226.5 -94t-93.5 -228z" />
<glyph unicode="u" horiz-adv-x="1769" d="M102 725q0 159 62 304t167 249.5t250 166.5t304 62t304 -62t249.5 -166.5t166.5 -249.5t62 -304t-62 -304t-166.5 -249.5t-249.5 -166.5t-304 -62t-304 62t-250 166.5t-167 249.5t-62 304zM246 725q0 -130 50.5 -248t136.5 -204t204 -136.5t248 -50.5t248 50.5t204 136.5 t136.5 204t50.5 248t-50.5 248t-136.5 203t-204 135.5t-248 50.5t-248 -50.5t-204 -135.5t-136.5 -203t-50.5 -248zM487 684v463h148v-471q0 -21 13.5 -36t33.5 -15q22 0 36.5 14.5t14.5 36.5v471h154v-461q0 -79 -60 -126.5t-141 -47.5t-140 47t-59 125zM600 393 q0 37 25.5 62.5t60.5 25.5q37 0 62.5 -25.5t25.5 -62.5q0 -35 -25.5 -60.5t-62.5 -25.5q-35 0 -60.5 25.5t-25.5 60.5zM606 393q0 -32 24 -56t56 -24q33 0 56.5 23.5t23.5 56.5q0 34 -23 57t-57 23q-33 0 -56.5 -23.5t-23.5 -56.5zM657 342v104h35q25 0 25 -26 q0 -24 -15 -27q13 -5 13 -22q0 -21 4 -29h-10q-2 2 -2.5 6.5t-0.5 10.5t-1 10q0 18 -13 18h-24v-45h-11zM668 397h20q19 0 19 21q0 16 -15 16h-24v-37zM940 303v621h154l2 -496h180v-125h-336z" />
<glyph unicode="v" horiz-adv-x="2564" d="M102 242q0 43 19.5 87.5t50.5 78.5l926 1040q77 86 184 86t184 -86l926 -1040q31 -34 50.5 -78.5t19.5 -87.5q0 -111 -69.5 -176.5t-194.5 -65.5h-1831q-122 0 -193.5 63.5t-71.5 178.5zM207 236q0 -63 45 -97.5t117 -34.5h1826q70 0 116 33.5t46 98.5q0 64 -35 102 l-931 1034q-51 58 -109 58q-57 0 -108 -58l-932 -1034q-35 -38 -35 -102zM637 528q0 71 47 121q44 47 117 47q81 0 124.5 -59t43.5 -168q0 -120 -47.5 -185t-133.5 -65q-56 0 -96 36t-49 91h96q3 -20 18.5 -32.5t37.5 -12.5q32 0 51 30.5t22 86.5q-42 -39 -94 -39 q-60 0 -98.5 41.5t-38.5 107.5zM735 532q0 -33 18 -54t46 -21t45.5 20.5t17.5 54.5q0 33 -17 53.5t-46 20.5q-28 0 -46 -20.5t-18 -53.5zM1001 528q0 70 48 121q25 26 50.5 36.5t65.5 10.5q81 0 124.5 -59t43.5 -168q0 -120 -47 -185t-133 -65q-56 0 -96 36t-49 91h96 q3 -20 18 -32.5t37 -12.5q32 0 51.5 30.5t22.5 86.5q-42 -39 -94 -39q-60 0 -99 41.5t-39 107.5zM1100 532q0 -34 17.5 -54.5t45.5 -20.5t46 21t18 54t-17.5 53.5t-46.5 20.5q-28 0 -45.5 -20.5t-17.5 -53.5zM1360 506v82h6q47 0 80.5 24.5t34.5 73.5h82v-461h-105v281h-98z M1622 358q0 91 78 113q-29 10 -45.5 35.5t-16.5 58.5q0 60 42.5 96.5t111.5 36.5t111.5 -36.5t42.5 -96.5q0 -33 -16.5 -58.5t-45.5 -35.5q37 -9 58.5 -40t21.5 -73q0 -64 -49 -104q-25 -21 -51.5 -28t-71.5 -7q-78 0 -121 35q-49 41 -49 104zM1722 367q0 -27 21 -45.5 t51 -18.5q29 0 49.5 19t20.5 45q0 29 -20 47t-50 18q-31 0 -51.5 -18t-20.5 -47zM1729 561q0 -26 17 -41.5t46 -15.5t46 15.5t17 41.5q0 25 -17 40t-46 15q-28 0 -45.5 -15t-17.5 -40z" />
<glyph unicode="w" horiz-adv-x="5703" d="M102 0v1194h443v-449l262 449h465v-422l354 565h-153l606 273l262 -273h-180l-861 -1337h-446v444l-264 -444h-488zM1141 -127h190l846 1321h750v-1194h-445v174h-409l-197 -301h162l-608 -274zM2214 418h268v413zM3041 139v893q0 72 44.5 117t107.5 45h1071v-428h-766 v-340h295v80h-125v151h596v-505q0 -41 -8 -66t-33 -47q-39 -39 -94 -39h-932q-67 0 -111.5 36.5t-44.5 102.5zM4385 152v892q0 62 44 106t105 44h918q63 0 106 -44t43 -106v-892q0 -63 -43 -107.5t-106 -44.5h-918q-62 0 -105.5 44.5t-43.5 107.5zM4831 420h318v328h-318 v-328z" />
<glyph unicode="x" horiz-adv-x="1767" d="M104 729q0 158 62 302.5t166.5 249t249.5 166.5t303 62t302.5 -62t249 -166.5t166.5 -249t62 -302.5t-62 -302.5t-166.5 -249t-249 -166.5t-302.5 -62t-303 62t-249.5 166.5t-166.5 249t-62 302.5zM124 778.5q-3 -10.5 1 -12.5q2 -4 12.5 -1t18.5 11q7 7 10 16.5t0 12.5 q-12 11 -31 -8q-8 -8 -11 -18.5zM126 652.5q0 -4.5 1 -5.5q12 -8 29 15q16 20 6 30q-5 3 -13.5 -0.5t-15.5 -13.5q-4 -6 -5.5 -13.5t-1.5 -12zM139 885q3 -5 13 -4t20 8q9 7 13 16.5t1 12.5q-9 9 -32 -7q-9 -6 -13.5 -14.5t-1.5 -11.5zM146.5 540q0.5 -10 3.5 -12 q5 -3 13.5 3.5t12.5 17.5q6 9 5.5 19t-5.5 12q-5 3 -12.5 -3t-13.5 -18q-4 -9 -3.5 -19zM172 999q3 -5 12.5 -5.5t20.5 5.5q10 4 15.5 13t2.5 12q-2 5 -10.5 5.5t-19.5 -5.5q-10 -6 -16.5 -14t-4.5 -11zM182 729q0 -190 94.5 -352t256.5 -256t352 -94q114 0 221 35.5 t193.5 100.5t151.5 151.5t100.5 193.5t35.5 221q0 190 -94 352t-256 256.5t-352 94.5t-352 -94.5t-256.5 -256.5t-94.5 -352zM186 449q-7 -29 4 -33q6 0 13 6.5t10 17.5q4 10 2.5 19.5t-6.5 9.5q-5 3 -12.5 -3t-10.5 -17zM223 1106q2 -5 11.5 -6.5t21.5 2.5q10 3 17.5 10 t5.5 12t-11.5 6.5t-21.5 -2.5q-10 -3 -17.5 -10t-5.5 -12zM240 320.5q3 -9.5 8 -9.5t11 8t9 19q0 31 -10 31q-5 0 -11 -8t-7 -21q-3 -10 0 -19.5zM291 1206q4 -13 31 -10q11 1 18.5 7t7.5 11q-5 14 -31 11q-11 -3 -18.5 -9t-7.5 -10zM307 246q0 -11 5 -20t10 -9t9.5 9 t4.5 20t-4.5 19.5t-9.5 8.5t-10 -8.5t-5 -19.5zM354 549q-9 4 -9 15q0 16 22 46q62 82 110 103q7 -103 47 -181q-16 -3 -32 -3q-23 0 -46 6q16 -74 52 -74q30 0 71 41l-4 14l21 -41l-6 6q-46 -41 -76 -41q-11 0 -20.5 3t-16 6.5t-13 13t-10 15.5t-8.5 21.5t-7.5 24t-8 29 t-8.5 31.5q-21 -34 -21 -66q0 -45 30 -104.5t30 -91.5v-21h30q23 0 101.5 -34t109.5 -34h35l-27 41h-16q-25 0 -57.5 19t-32.5 41q0 14 5.5 26t11 18.5t17.5 18.5l17 17l-10 14l6 4l31 -20l-4 -6q-16 -11 -35 -31t-19 -39q0 -13 28 -28t48 -15l-22 47l198 -25 q0 -45 -31.5 -89t-60.5 -54q-6 4 -33 41h-28q-51 0 -134 34t-122 34q-3 0 -13 -1t-12 -1q-4 0 -4 4q0 1 1 13t1 17q0 28 -29.5 93t-29.5 104q0 21 2 27zM358 891l160 164q-8 -4 -26 -4q-31 0 -52.5 20.5t-21.5 50.5q0 31 21.5 52.5t52.5 21.5q30 0 50.5 -21.5t20.5 -52.5 q0 -16 -2 -22l156 160l84 -82l-363 -363zM362 565l15 -8q6 16 21 39t22 27l20 -68q4 -2 26 -4.5t30 -1.5q-31 91 -33 133q-27 -18 -59 -52.5t-42 -64.5zM373 1292q0 -5 8.5 -9.5t19.5 -4.5t20 4.5t9 9.5t-9 10t-20 5t-19.5 -5t-8.5 -10zM385 893l53 -51l35 35l-53 51z M389 162q3 -11 9 -19t10 -8q13 4 10 31q-1 11 -7.5 19t-11.5 8q-13 -4 -10 -31zM434 940l51 -51l21 20l-51 52zM438 1122q0 -21 16 -35t38 -14v10q0 17 11 28t25 11h13q0 22 -14 38t-35 16q-22 0 -38 -16t-16 -38zM467 975l51 -51l164 161l-55 54zM467 1366q0 -5 8 -11 t19 -9q30 0 30 10q0 5 -8 11t-20 7q-10 3 -19.5 0t-9.5 -8zM482.5 111.5q-1.5 -9.5 2.5 -21.5q3 -10 10.5 -17t12.5 -5t6.5 11t-2.5 21q-3 10 -10.5 17.5t-12.5 5.5t-6.5 -11.5zM496 725q0 160 113.5 273.5t273.5 113.5t273.5 -113.5t113.5 -273.5t-113.5 -273.5 t-273.5 -113.5t-273.5 113.5t-113.5 273.5zM506 1083q0 -16 18 -22l27 29q-5 16 -23 16q-9 0 -15.5 -7t-6.5 -16zM520 725q0 -149 107 -256t256 -107t255.5 107t106.5 256t-106.5 255.5t-255.5 106.5t-256 -106.5t-107 -255.5zM547 721l14 2v-14l49 4l2 -15l-51 -4v-14 l-12 -2zM549 739l2 37l12 -2l-2 -20l12 -2l2 20l13 -2l-2 -20l14 -2v22h14l-2 -37zM553 666l63 12l2 -12l-63 -15zM553 799l8 22q8 19 29 19q18 0 27 -14.5t4 -30.5l-5 -15zM561 627l60 22l4 -10l-31 -45l41 16l6 -12l-57 -23l-6 11l32 47l-45 -19zM569 807l39 -10 q3 10 -1.5 19t-16.5 9q-15 0 -21 -18zM571 1423q0 -5 7 -12t18 -10q10 -4 19.5 -2.5t9.5 6.5q3 5 -3.5 12t-17.5 10q-29 7 -33 -4zM584.5 57q-0.5 -9 5.5 -20q6 -10 13.5 -16.5t10.5 -4.5q5 3 5.5 12.5t-5.5 20.5q-4 10 -12.5 16t-11.5 3q-5 -2 -5.5 -11zM594 551l29 20 q12 9 18 9q13 0 21 -7.5t8 -17.5q0 -13 -11 -20l-34 -25l-9 10l35 25q9 9 2 18q-7 7 -18 0l-33 -22zM600.5 900.5q-1.5 8.5 3.5 14.5q2 4 5.5 6.5t6.5 3.5l2 1l5 -11q-7 -2 -9 -6q-3 -5 2 -10q2 -1 15.5 7.5t21.5 2.5q19 -11 9 -28q-3 -4 -7.5 -7.5t-8.5 -4.5l-3 -1l-4 13 q6 0 12 6q3 6 -4 10q-3 2 -16.5 -6t-22.5 -2q-6 3 -7.5 11.5zM629 946l30 31l9 -8l-11 -11l35 -36l-8 -11l-35 37l-10 -10zM635 727q0 103 72.5 175.5t175.5 72.5t175 -72.5t72 -175.5t-72 -175.5t-175 -72.5t-175.5 72.5t-72.5 175.5zM641 1155l55 -55l25 24l-55 56z M664 727q0 -91 64 -155t155 -64t155 64t64 155t-64 155t-155 64t-155 -64t-64 -155zM680 1196l57 -57l37 39l-59 55zM682 995l12 9l58 -39l-13 -9l-12 9l-20 -15l4 -14l-13 -8zM684 1464q-3 -5 3.5 -13.5t17.5 -12.5q9 -6 18.5 -5.5t11.5 5.5q3 5 -2.5 12.5t-17.5 13.5 q-9 4 -19 3.5t-12 -3.5zM696 31q-10 -10 6 -33q6 -9 15 -13t12 -1q5 3 4 12.5t-8 19.5q-7 9 -16.5 13.5t-12.5 1.5zM696 989l6 -26l15 10zM698 315q15 -35 41 -57q9 27 24 31q16 4 22 -12q8 -19 -14 -26q-7 -3 -17 -3q-1 -1 -4 -1q-2 0 -2 -1q17 -34 30 -47q19 8 42.5 46 t23.5 54zM721 1020l37 18l6 -12l-12 -6l20 -45l-12 -6l-21 45l-12 -6zM725 870h315q-16 -35 -16 -102q-18 0 -18 -12v-92q0 -13 14 -13q0 -29 -30.5 -49t-66.5 -32.5t-40 -18.5q-5 6 -41 18.5t-66.5 32.5t-30.5 49q15 0 15 13v92q0 12 -19 12q0 67 -16 102zM768 412l4 10 l8 -2l13 37l-19 -6l4 12l17 6l12 -4l-14 -49l8 -2l-2 -11zM774 1044l33 11l4 -13l-20 -6l4 -12l14 4l4 -10l-16 -4l4 -15l22 7l4 -13l-34 -10zM780 639q0 -14 6 -18l19 -11v158h-25v-129zM803 1487q-3 -5 0.5 -13.5t13.5 -15.5q8 -7 18.5 -8.5t12.5 2.5q3 5 -0.5 13.5 t-13.5 15.5q-6 4 -13.5 5.5t-12 1.5t-5.5 -1zM809 10q-11 -11 8 -30q8 -8 18.5 -11.5t12.5 0.5q4 2 1 12.5t-11 18.5q-7 7 -16.5 10t-12.5 0zM825 602l25 -12v178h-25v-166zM827 440l4 19l43 -4v-11q-3 -6 -12 -21t-14 -28l-12 2q15 35 26 47l-20 2l-2 -8zM827 1042 q0 7 6.5 13t14.5 6q4 0 8 -1.5t6 -3.5l2 -1l-6 -11q-4 5 -10 5t-6 -7q0 -3 14 -9.5t14 -16.5q0 -9 -5.5 -16t-14.5 -7q-5 0 -10.5 2t-7.5 4l-3 2l9 11q6 -6 12 -6t6 8q0 4 -14.5 11t-14.5 17zM870 584l13 -6l12 6v184h-25v-184zM895 436q0 20 20 23h3q9 0 16.5 -9.5 t7.5 -23.5q1 -13 -6.5 -23t-17.5 -10q-19 0 -19 15l12 2q0 -4 3 -6.5t6 -0.5h2q8 6 8 25q-5 -12 -19 -12q-6 0 -11 6t-5 14zM899 315l199 25l-23 -47q20 0 48 15t28 28q0 19 -18.5 39t-34.5 31l-4 6l30 20l6 -4l-10 -14l17 -17t17.5 -18.5t11 -18.5t5.5 -26q0 -22 -32.5 -41 t-57.5 -19h-16l-27 -41h35q31 0 109.5 34t101.5 34h31v21q0 32 29.5 91.5t29.5 104.5q0 33 -20 66q-3 -11 -8.5 -31.5t-8 -29t-7.5 -24t-8.5 -21.5t-10 -15.5t-13 -13t-16 -6.5t-20.5 -3q-30 0 -76 41l-6 -6l20 41l-4 -14q41 -41 72 -41q20 0 31.5 18.5t19.5 55.5 q-24 -6 -46 -6q-16 0 -32 3q40 78 47 181q49 -21 111 -103q21 -30 21 -46q0 -11 -9 -15l-18 -12q2 -6 2 -27q0 -39 -30 -104t-30 -93q0 -5 1 -17t1 -13q0 -4 -4 -4q-2 0 -11.5 1t-12.5 1q-39 0 -122 -34t-134 -34h-29q-27 -37 -33 -41q-29 10 -60.5 54t-31.5 89zM907 436 q3 -10 11 -10q11 0 8 12q0 11 -11 11q-4 0 -7 -4t-1 -9zM907 1024q0 13 10.5 23t24.5 10q13 0 21 -8l-2 -15q-10 10 -17 10h-2q-9 0 -14.5 -6t-5.5 -14q0 -20 18 -20l16 2l-4 -13q-4 -2 -12 -2q-11 0 -22 10t-11 23zM915 590l25 12v166h-25v-178zM921 1476.5 q3 -10.5 11 -18.5q7 -7 16.5 -10t12.5 0q4 5 1.5 14t-10.5 17t-18 11t-12 -1q-4 -2 -1 -12.5zM922 6q-3 -5 0.5 -13.5t13.5 -15.5q6 -4 13.5 -5.5t12 -1.5t5.5 1q8 12 -15 29q-20 16 -30 6zM922 299q0 -17 23 -54.5t42 -45.5q15 15 31 47q0 1 -2 1q-3 0 -4 1q-27 1 -32 16 t9 23q18 12 33 -18q2 -5 4 -11q26 22 41 57zM961 449q0 24 20 24q11 0 20 -13.5t9 -27.5q0 -22 -21 -22q-13 0 -20.5 11.5t-7.5 27.5zM961 610l18 11q6 4 6 18v129h-24v-158zM963 1180l75 80l164 -160q-4 8 -4 26q0 31 20.5 52.5t51.5 21.5t52 -21.5t21 -52.5t-21 -51 t-52 -20q-17 0 -23 2l160 -156l-82 -84zM967 1006q0 14 9.5 23t24.5 9t25 -9t10 -23t-10 -23.5t-25 -9.5t-24.5 9.5t-9.5 23.5zM973 453q0 -33 18 -33q6 0 6 10q0 11 -5 22t-13 11q-6 0 -6 -10zM981 1006q0 -8 5.5 -14.5t14.5 -6.5t15 6.5t6 14.5t-6 14t-15 6t-14.5 -6 t-5.5 -14zM989 1180l35 -35l51 53l-35 35zM1020 965l61 32l13 -8l-23 -65l-10 10l4 12l-21 17l-12 -7zM1034 20q-3 -5 3 -12.5t18 -13.5q9 -4 18.5 -3.5t11.5 3.5q3 5 -3 13.5t-17 12.5q-9 6 -19 5.5t-12 -5.5zM1036 1133l21 -21l51 51l-21 21zM1036 1462q1 -10 8 -20 q7 -9 16.5 -13.5t12.5 -1.5q10 10 -6 33q-6 9 -15 13.5t-12 1.5q-5 -3 -4 -13zM1055 969l14 -11l10 27q-1 -2 -24 -16zM1071 1100l162 -164l53 55l-164 160zM1077 923v3l15 2q0 -11 4 -15t10 2q2 2 -2 17t4 22q5 6 13.5 5t13.5 -7l6 -16l-13 -2q0 6 -4 10t-8 0q-2 -2 3 -17 t-3 -22q-17 -14 -31 0q-4 4 -6 9.5t-2 8.5zM1092 928l2 2zM1098 547q0 11 8 22l10 13l51 -41l-16 -19q-8 -8 -21 -8q-14 0 -23 11t-9 22zM1108 881l41 28l-8 11l10 8l25 -33l-11 -8l-8 10l-41 -29zM1110 549q0 -7 5 -14t15 -7q12 0 19 11l-33 24q-6 -6 -6 -14zM1122 592 l6 14l31 4l-24 11l6 12l59 -25l-12 -24q-8 -16 -23 -9q-15 9 -12 23zM1143 811q0 14 10 23.5t23 9.5q14 0 24 -9t10 -22q0 -14 -8 -22l-10 8q7 7 4 18q-3 14 -20 14q-8 0 -14.5 -6.5t-6.5 -13.5q0 -18 16 -18l-4 16l13 4l8 -31q-10 -5 -23 -2q-22 9 -22 31zM1145 53 q-3 -5 3 -12t17 -10q29 -7 33 4q0 5 -6.5 12t-17.5 10q-10 4 -19.5 2.5t-9.5 -6.5zM1145 641l4 14l12 4l4 25l-10 8l2 15l57 -35l-2 -17zM1149.5 1429.5q-0.5 -9.5 5.5 -20.5q4 -10 13 -15.5t12 -2.5q5 2 5.5 10.5t-5.5 19.5q-6 10 -14 16.5t-11 4.5q-5 -3 -5.5 -12.5z M1155 737q0 11 7 19t20 8h37v-12h-39q-13 0 -13 -15q0 -10 13 -10h39v-14h-37q-27 0 -27 24zM1167 606q-7 -10 2 -16q9 -5 15 10zM1174 659l28 7l-24 12zM1208 1094l29 -27q16 5 16 23q0 9 -6.5 15.5t-15.5 6.5q-17 0 -23 -18zM1221 1126h10q17 0 28 -11t11 -25v-13 q22 0 37.5 14t15.5 35q0 22 -15.5 38t-37.5 16q-21 0 -35 -16t-14 -38zM1245 102q0 -5 8 -11t21 -7q10 -3 19.5 0t9.5 8t-8 11.5t-19 9.5q-31 0 -31 -11zM1247 922l25 -25l55 55l-24 25zM1255 1379.5q-2 -9.5 2 -21.5q3 -10 10.5 -17.5t12.5 -5.5t6.5 11.5t-2.5 21.5 q-3 10 -10 17.5t-12 5.5t-7 -11.5zM1270 549q8 -1 29.5 1.5t25.5 4.5l21 68q7 -4 22 -27t21 -39l14 8q-10 30 -41.5 65t-58.5 52q-2 -42 -33 -133zM1286 881l39 -37l55 59l-37 35zM1339 166q0 -5 9 -9.5t20 -4.5t20 4.5t9 9.5t-9 9.5t-20 4.5t-20 -4.5t-9 -9.5zM1352 1292 q1 -11 7 -18.5t11 -7.5q13 4 10 30q-3 11 -9 19t-9 8q-13 -4 -10 -31zM1421 244q5 -14 31 -11q11 3 19 9t8 10q-4 13 -31 10q-11 -1 -19 -7t-8 -11zM1434 1212q0 -11 4.5 -19.5t9.5 -8.5t9.5 8.5t4.5 19.5t-4.5 20t-9.5 9t-9.5 -9t-4.5 -20zM1491 334q2 -5 11.5 -6.5 t21.5 2.5q10 3 17 10t5 12t-11.5 6.5t-21.5 -2.5q-10 -3 -17 -10t-5 -12zM1501 1120q0 -30 10 -30q5 0 11.5 8t7.5 20q3 10 0 19.5t-8 9.5t-11.5 -8t-9.5 -19zM1546 434q2 -5 11 -5.5t20 5.5q10 6 16 14t4 11q-9 13 -32 0q-10 -4 -16 -13t-3 -12zM1554 998.5q2 -9.5 7 -9.5 q5 -3 12 3.5t10 17.5q7 28 -4 32q-5 0 -12.5 -6.5t-10.5 -17.5q-4 -10 -2 -19.5zM1583 541q10 -10 33 6q9 6 13 14.5t1 11.5q-3 5 -13 4t-20 -8q-9 -7 -13 -16t-1 -12zM1587.5 890.5q0.5 -9.5 5.5 -11.5q5 -3 13 2.5t14 17.5q4 9 3.5 19t-3.5 12q-5 3 -14 -3.5t-13 -17.5 q-6 -9 -5.5 -18.5zM1604 653q10 -11 30 9t11 30q-2 4 -12.5 1t-18.5 -11q-7 -7 -10 -16.5t0 -12.5zM1605 778.5q-1 -10.5 3 -12.5q12 -8 28 14q4 6 5.5 13.5t1.5 12t-1 5.5q-12 8 -28 -14q-8 -8 -9 -18.5z" />
<glyph unicode="y" horiz-adv-x="2775" d="M104 223q0 44 21 91.5t42 72.5l21 25l1076 1071q2 2 5 5.5t16 12.5t28.5 15.5t43.5 12t60 5.5t60 -5.5t45.5 -13t30 -15.5t17.5 -14l5 -5l1012 -1069q84 -87 84 -183q0 -99 -75.5 -164t-176.5 -65h-2067q-102 0 -175 64t-73 159zM219 236q0 -56 45.5 -94t106.5 -38h2042 h2q57 0 98 37.5t41 96.5q0 46 -27 88l-1007 1058q-4 5 -12 12.5t-36 20.5t-59 13t-54 -10t-31 -20l-7 -11l-1069 -1061q-33 -41 -33 -92zM629 612h162l88 -237l90 237h161l-147 -348h-207zM1180 264v348h239q57 0 109 -10q70 -17 108.5 -59.5t40.5 -104.5q0 -82 -65 -129 q-65 -45 -193 -45h-239zM1337 354h72q51 0 79 22t28 62q0 41 -28 63.5t-79 22.5h-72v-170zM1735 264v348h434v-88h-277v-43h252v-78h-252v-51h283v-88h-440z" />
<glyph unicode="z" horiz-adv-x="1292" d="M102 745q0 119 30.5 232.5t84 204.5t123 160.5t152.5 107t167 37.5q141 0 263.5 -103t195 -276.5t72.5 -370.5q0 -48 -2 -73q-13 -184 -86.5 -346t-191 -260.5t-248.5 -98.5t-254 98.5t-204.5 261.5t-97.5 345q-4 54 -4 81zM182 745q0 -27 4 -81q12 -126 59.5 -243.5 t114 -200.5t146.5 -133t156 -50t152.5 49t137.5 132t103.5 200t52.5 246q4 50 4 73q0 140 -40 267t-104.5 214.5t-145.5 139t-163 51.5q-83 0 -168.5 -51t-154 -137.5t-111.5 -212t-43 -263.5zM260 696q0 22 23 35l172 92q6 4 18 4q16 0 27.5 -13.5t11.5 -29.5 q0 -21 -20 -32l-140 -72l39 -70l88 45q11 7 21 7q16 0 26.5 -12.5t10.5 -28.5q0 -21 -21 -33l-86 -49l49 -90l127 69q6 4 21 4q17 0 28 -12.5t11 -28.5q0 -20 -21 -32l-166 -89q-12 -4 -18 -4q-21 0 -33 21l-164 299q-4 6 -4 20zM434 1112q0 80 58.5 137.5t140.5 57.5 q48 0 92 -23q20 -11 20 -35q0 -18 -10.5 -30.5t-27.5 -12.5q-10 0 -19 6q-27 15 -55 15q-49 0 -84 -34t-35 -81q0 -25 8 -49l314 -621q28 -54 28 -106q0 -88 -62.5 -149.5t-150.5 -61.5q-62 0 -112.5 33t-77.5 88q-4 12 -4 18q0 17 12.5 28t28.5 11q22 0 34 -24 q15 -33 47.5 -54.5t71.5 -21.5q54 0 92.5 38t38.5 91v4q0 34 -22 78l-314 624q-12 24 -12 74zM647 1073q0 10 6.5 16.5t14.5 6.5l2 -1q16 -6 67 -18l13 43q6 17 20 17q8 0 14.5 -6t6.5 -15v-6l-17 -66q-5 -16 -22 -16l-88 23q-17 6 -17 22zM696 889q0 54 38.5 93.5 t92.5 39.5q39 0 74.5 -23.5t50.5 -60.5q4 -12 4 -16q0 -17 -12.5 -27t-30.5 -10q-25 0 -36 24q-11 33 -48 33q-21 0 -38 -14.5t-17 -36.5q0 -15 6 -27l90 -168q16 -22 45 -22q22 0 37 14.5t15 36.5q0 19 -13 35q-10 13 -10 24q0 16 13.5 27.5t29.5 11.5q28 0 44 -33t16 -65 q0 -52 -39.5 -91.5t-92.5 -39.5q-36 0 -69.5 19t-46.5 51l-92 174q-11 29 -11 51z" />
<glyph unicode="{" horiz-adv-x="1443" d="M205 0v1450h139v-1325h309v-125h-448zM758 0v1448q34 0 87.5 1t74.5 1q107 0 166 -16t110 -68q100 -100 100 -281q0 -195 -79 -292q-31 -39 -70 -60q-39 -20 -117 -31l311 -702h-141l-309 723v-723h-133zM889 817h49q73 0 110.5 10.5t65.5 42.5q24 28 36.5 66.5t14.5 68 t2 78.5q0 108 -34 164q-29 36 -46 47q-49 33 -153 33h-45v-510z" />
<glyph unicode="|" horiz-adv-x="1011" d="M100 195q0 20 19 98h80q-27 -63 -27 -90q0 -152 342 -152q35 0 58.5 1t67 4.5t73.5 13t61 25t47.5 41.5t16.5 61q0 36 -27 96h72q26 -58 26 -105q0 -211 -395 -211q-414 0 -414 218zM109 377v69l628 201h-628v62h794v-68l-614 -201h614v-63h-794zM109 868v252h65v-180 h285v174h65v-174h312v178h71v-250h-798zM109 1182v309h67v-117h727v-74h-725v-118h-69z" />
<glyph unicode="}" d="M102 608q0 101 71.5 173.5t172.5 72.5t173.5 -72.5t72.5 -173.5t-72 -172t-174 -71q-101 0 -172.5 71t-71.5 172z" />
<glyph unicode="~" d="M102 608q0 101 71.5 173.5t172.5 72.5t173.5 -72.5t72.5 -173.5t-72 -172t-174 -71q-101 0 -172.5 71t-71.5 172z" />
<glyph unicode="&#xa1;" d="M102 608q0 101 71.5 173.5t172.5 72.5t173.5 -72.5t72.5 -173.5t-72 -172t-174 -71q-101 0 -172.5 71t-71.5 172z" />
<glyph unicode="&#xa2;" d="M102 608q0 101 71.5 173.5t172.5 72.5t173.5 -72.5t72.5 -173.5t-72 -172t-174 -71q-101 0 -172.5 71t-71.5 172z" />
<glyph unicode="&#xa3;" d="M102 608q0 101 71.5 173.5t172.5 72.5t173.5 -72.5t72.5 -173.5t-72 -172t-174 -71q-101 0 -172.5 71t-71.5 172z" />
<glyph unicode="&#xa4;" d="M102 608q0 101 71.5 173.5t172.5 72.5t173.5 -72.5t72.5 -173.5t-72 -172t-174 -71q-101 0 -172.5 71t-71.5 172z" />
<glyph unicode="&#xa5;" d="M102 608q0 101 71.5 173.5t172.5 72.5t173.5 -72.5t72.5 -173.5t-72 -172t-174 -71q-101 0 -172.5 71t-71.5 172z" />
<glyph unicode="&#xa6;" d="M102 608q0 101 71.5 173.5t172.5 72.5t173.5 -72.5t72.5 -173.5t-72 -172t-174 -71q-101 0 -172.5 71t-71.5 172z" />
<glyph unicode="&#xa7;" d="M102 608q0 101 71.5 173.5t172.5 72.5t173.5 -72.5t72.5 -173.5t-72 -172t-174 -71q-101 0 -172.5 71t-71.5 172z" />
<glyph unicode="&#xa8;" d="M102 608q0 101 71.5 173.5t172.5 72.5t173.5 -72.5t72.5 -173.5t-72 -172t-174 -71q-101 0 -172.5 71t-71.5 172z" />
<glyph unicode="&#xa9;" d="M102 608q0 101 71.5 173.5t172.5 72.5t173.5 -72.5t72.5 -173.5t-72 -172t-174 -71q-101 0 -172.5 71t-71.5 172z" />
<glyph unicode="&#xaa;" d="M102 608q0 101 71.5 173.5t172.5 72.5t173.5 -72.5t72.5 -173.5t-72 -172t-174 -71q-101 0 -172.5 71t-71.5 172z" />
<glyph unicode="&#xab;" d="M102 608q0 101 71.5 173.5t172.5 72.5t173.5 -72.5t72.5 -173.5t-72 -172t-174 -71q-101 0 -172.5 71t-71.5 172z" />
<glyph unicode="&#xac;" d="M102 608q0 101 71.5 173.5t172.5 72.5t173.5 -72.5t72.5 -173.5t-72 -172t-174 -71q-101 0 -172.5 71t-71.5 172z" />
<glyph unicode="&#xad;" horiz-adv-x="1368" d="M51 0l320 1450h946l-320 -1450h-946zM143 330h906l241 1100h-903zM184 475l37 35q15 12 86 57t107 80h-72l-25 -24l-12 22l39 39q15 10 39 10h66q31 40 63 72q-3 0 -8.5 -1t-9.5 -1q-26 0 -65.5 19.5t-63.5 19.5q-33 0 -76 -29l-6 10l34 35q42 31 82 31q27 0 66.5 -19.5 t64.5 -19.5q17 0 47 9.5t37 10.5l19 5l-49 -50q-36 -7 -60 -29.5t-51 -62.5q25 0 59 -6l35 35l-12 -47l-37 -37q-41 5 -86 8q-62 -65 -133 -110l27 4q42 0 97 -36t93 -36q12 0 25 3t19.5 5.5t22.5 10.5t21 10l6 -11l-37 -36q-9 -3 -28 -12t-33.5 -13t-32.5 -4q-41 0 -96 36 t-92 36q-10 0 -43.5 -8t-54.5 -21zM195 76h8q0 8 6 8q2 0 15 -4t28 -4q31 0 46 15.5t15 35.5q0 34 -28 45l-35 18q-16 8 -21.5 13.5t-5.5 15.5q0 11 8.5 17t18.5 6q20 0 32.5 -14t16.5 -31h6v53h-6q-4 -8 -8 -8q-3 0 -16 4t-23 4q-31 0 -43 -15.5t-12 -33.5q0 -30 43 -51 l16 -9q27 -13 27 -30q0 -4 -1 -8.5t-8.5 -11.5t-21.5 -7q-41 0 -49 51h-8v-59zM330 80h143l6 59h-6q-6 -25 -19 -36t-27 -13t-48 -2l94 154v4h-131l-4 -49h6q16 33 31 36q10 5 49 5l-94 -154v-4zM379 1311q7 30 14 45l53 53q-10 -26 -16 -51q35 -2 89.5 -6.5t97.5 -6.5 t92 -2q60 0 116 11q-3 -6 -10 -18.5t-10 -18.5l-37 -37l-8 8q1 3 2.5 5.5t3 5.5t2.5 4q-39 -7 -94 -7q-53 0 -80 2l-47 -122h178q-33 -41 -68 -74l-8 8l15 18h-134q-26 -66 -45 -139l-51 -53q6 31 15 62t14 45.5t18.5 47.5t14.5 37h-7l11 11l49 131l29 28q-20 1 -90.5 6.5 t-108.5 6.5zM553 80h104l11 51h-6q-5 -12 -10 -15t-25 -3h-37l39 37q28 28 28 53q0 26 -15 36.5t-30 10.5q-33 0 -55 -51h6q11 22 31 22q29 0 29 -31q0 -15 -10.5 -33t-22 -30.5t-37.5 -40.5v-6zM645 733l8 27l56 53q-8 -25 -13 -31l-2 -6l-2 -8q0 -6 13 -6l36 6h101h6v-6 q0 -2 1 -7t1 -7q0 -15 -15 -31t-18 -23q-8 -21 -30.5 -65t-33 -76.5t-10.5 -71.5v-12h21q18 0 24 4l203 227l6 13l58 55l-11 -27q-14 -37 -42 -94t-47.5 -106t-28.5 -101q10 2 24 11l6 -11l-34 -37q-21 -9 -48 -12q8 46 22.5 89.5t24.5 65.5t40 81l-183 -185 q-20 -20 -49 -20h-33v22q0 32 9 64.5t19.5 55.5t35.5 72.5t41 84.5h-94q-4 0 -16 -2.5t-21 -3.5t-17 3t-8 15zM688 217q4 1 9 2.5t8 2.5t4 1q10 0 10 -18v-94q0 -10 -1 -14t-7.5 -7.5t-20.5 -3.5v-6h92v6q-17 0 -21.5 5t-4.5 18v141h-4l-64 -27v-6zM803 162q0 -37 16 -61.5 t39 -24.5q25 0 40 25t15 61q0 42 -16.5 65t-38.5 23q-21 0 -38 -23t-17 -65zM827 1305q0 5 1.5 9.5t3.5 7.5t5.5 8t4.5 7l37 37l8 -8q-2 -4 -10 -12q-3 -6 -3 -13q0 -20 29 -20q36 0 138.5 10t197.5 10l18 -10q-10 -24 -51 -61l-8 6q10 15 2 18l-115 -2q-9 -23 -23.5 -65.5 t-28.5 -75.5t-32 -64q-1 -3 -22 -30.5t-21 -48.5q0 -3 1.5 -6.5t5.5 -7.5l6 -6t7.5 -6t6.5 -5l-43 -43q-31 22 -31 39q0 18 7.5 34t23 37t19.5 29q16 27 27 54.5t23.5 63.5t20.5 56l45 45q-3 0 -37 -4.5t-83 -9t-89 -4.5q-41 0 -41 31zM842 135v55q0 52 16 52t16 -52v-55 q0 -27 -4 -39q0 -12 -12 -12q-16 0 -16 51zM895 745q3 14 5.5 21.5t4 13.5t6.5 11.5t7.5 8.5t12.5 12.5t17 16.5q9 9 23 9q31 0 162 -19l-46 -45q-18 2 -46.5 6.5t-52.5 7.5t-48 3z" />
<glyph unicode="&#xae;" d="M102 608q0 101 71.5 173.5t172.5 72.5t173.5 -72.5t72.5 -173.5t-72 -172t-174 -71q-101 0 -172.5 71t-71.5 172z" />
<glyph unicode="&#xaf;" d="M102 608q0 101 71.5 173.5t172.5 72.5t173.5 -72.5t72.5 -173.5t-72 -172t-174 -71q-101 0 -172.5 71t-71.5 172z" />
<glyph unicode="&#xb0;" d="M102 608q0 101 71.5 173.5t172.5 72.5t173.5 -72.5t72.5 -173.5t-72 -172t-174 -71q-101 0 -172.5 71t-71.5 172z" />
<glyph unicode="&#xb1;" d="M102 608q0 101 71.5 173.5t172.5 72.5t173.5 -72.5t72.5 -173.5t-72 -172t-174 -71q-101 0 -172.5 71t-71.5 172z" />
<glyph unicode="&#xb2;" d="M102 608q0 101 71.5 173.5t172.5 72.5t173.5 -72.5t72.5 -173.5t-72 -172t-174 -71q-101 0 -172.5 71t-71.5 172z" />
<glyph unicode="&#xb3;" d="M102 608q0 101 71.5 173.5t172.5 72.5t173.5 -72.5t72.5 -173.5t-72 -172t-174 -71q-101 0 -172.5 71t-71.5 172z" />
<glyph unicode="&#xb4;" d="M102 608q0 101 71.5 173.5t172.5 72.5t173.5 -72.5t72.5 -173.5t-72 -172t-174 -71q-101 0 -172.5 71t-71.5 172z" />
<glyph unicode="&#xb5;" d="M102 608q0 101 71.5 173.5t172.5 72.5t173.5 -72.5t72.5 -173.5t-72 -172t-174 -71q-101 0 -172.5 71t-71.5 172z" />
<glyph unicode="&#xb6;" d="M102 608q0 101 71.5 173.5t172.5 72.5t173.5 -72.5t72.5 -173.5t-72 -172t-174 -71q-101 0 -172.5 71t-71.5 172z" />
<glyph unicode="&#xb7;" d="M102 608q0 101 71.5 173.5t172.5 72.5t173.5 -72.5t72.5 -173.5t-72 -172t-174 -71q-101 0 -172.5 71t-71.5 172z" />
<glyph unicode="&#xb8;" d="M102 608q0 101 71.5 173.5t172.5 72.5t173.5 -72.5t72.5 -173.5t-72 -172t-174 -71q-101 0 -172.5 71t-71.5 172z" />
<glyph unicode="&#xb9;" d="M102 608q0 101 71.5 173.5t172.5 72.5t173.5 -72.5t72.5 -173.5t-72 -172t-174 -71q-101 0 -172.5 71t-71.5 172z" />
<glyph unicode="&#xba;" d="M102 608q0 101 71.5 173.5t172.5 72.5t173.5 -72.5t72.5 -173.5t-72 -172t-174 -71q-101 0 -172.5 71t-71.5 172z" />
<glyph unicode="&#xbb;" d="M102 608q0 101 71.5 173.5t172.5 72.5t173.5 -72.5t72.5 -173.5t-72 -172t-174 -71q-101 0 -172.5 71t-71.5 172z" />
<glyph unicode="&#xbc;" d="M102 608q0 101 71.5 173.5t172.5 72.5t173.5 -72.5t72.5 -173.5t-72 -172t-174 -71q-101 0 -172.5 71t-71.5 172z" />
<glyph unicode="&#xbd;" d="M102 608q0 101 71.5 173.5t172.5 72.5t173.5 -72.5t72.5 -173.5t-72 -172t-174 -71q-101 0 -172.5 71t-71.5 172z" />
<glyph unicode="&#xbe;" d="M102 608q0 101 71.5 173.5t172.5 72.5t173.5 -72.5t72.5 -173.5t-72 -172t-174 -71q-101 0 -172.5 71t-71.5 172z" />
<glyph unicode="&#xbf;" d="M102 608q0 101 71.5 173.5t172.5 72.5t173.5 -72.5t72.5 -173.5t-72 -172t-174 -71q-101 0 -172.5 71t-71.5 172z" />
<glyph unicode="&#xc0;" d="M102 608q0 101 71.5 173.5t172.5 72.5t173.5 -72.5t72.5 -173.5t-72 -172t-174 -71q-101 0 -172.5 71t-71.5 172z" />
<glyph unicode="&#xc1;" d="M102 608q0 101 71.5 173.5t172.5 72.5t173.5 -72.5t72.5 -173.5t-72 -172t-174 -71q-101 0 -172.5 71t-71.5 172z" />
<glyph unicode="&#xc2;" d="M102 608q0 101 71.5 173.5t172.5 72.5t173.5 -72.5t72.5 -173.5t-72 -172t-174 -71q-101 0 -172.5 71t-71.5 172z" />
<glyph unicode="&#xc3;" d="M102 608q0 101 71.5 173.5t172.5 72.5t173.5 -72.5t72.5 -173.5t-72 -172t-174 -71q-101 0 -172.5 71t-71.5 172z" />
<glyph unicode="&#xc4;" horiz-adv-x="1558" d="M72 0v1417h1415v-1417h-1415z" />
<glyph unicode="&#xc5;" horiz-adv-x="2048" d="M225 -61l799 1597l799 -1597h-1598z" />
<glyph unicode="&#xc6;" d="M102 608q0 101 71.5 173.5t172.5 72.5t173.5 -72.5t72.5 -173.5t-72 -172t-174 -71q-101 0 -172.5 71t-71.5 172z" />
<glyph unicode="&#xc7;" horiz-adv-x="2048" d="M225 1487h1598l-799 -1598z" />
<glyph unicode="&#xc8;" d="M102 608q0 101 71.5 173.5t172.5 72.5t173.5 -72.5t72.5 -173.5t-72 -172t-174 -71q-101 0 -172.5 71t-71.5 172z" />
<glyph unicode="&#xc9;" horiz-adv-x="2048" d="M225 725l1598 799v-1598z" />
<glyph unicode="&#xca;" d="M102 608q0 101 71.5 173.5t172.5 72.5t173.5 -72.5t72.5 -173.5t-72 -172t-174 -71q-101 0 -172.5 71t-71.5 172z" />
<glyph unicode="&#xcb;" d="M102 608q0 101 71.5 173.5t172.5 72.5t173.5 -72.5t72.5 -173.5t-72 -172t-174 -71q-101 0 -172.5 71t-71.5 172z" />
<glyph unicode="&#xcc;" d="M102 608q0 101 71.5 173.5t172.5 72.5t173.5 -72.5t72.5 -173.5t-72 -172t-174 -71q-101 0 -172.5 71t-71.5 172z" />
<glyph unicode="&#xcd;" d="M102 608q0 101 71.5 173.5t172.5 72.5t173.5 -72.5t72.5 -173.5t-72 -172t-174 -71q-101 0 -172.5 71t-71.5 172z" />
<glyph unicode="&#xce;" d="M102 608q0 101 71.5 173.5t172.5 72.5t173.5 -72.5t72.5 -173.5t-72 -172t-174 -71q-101 0 -172.5 71t-71.5 172z" />
<glyph unicode="&#xcf;" d="M102 608q0 101 71.5 173.5t172.5 72.5t173.5 -72.5t72.5 -173.5t-72 -172t-174 -71q-101 0 -172.5 71t-71.5 172z" />
<glyph unicode="&#xd0;" d="M102 608q0 101 71.5 173.5t172.5 72.5t173.5 -72.5t72.5 -173.5t-72 -172t-174 -71q-101 0 -172.5 71t-71.5 172z" />
<glyph unicode="&#xd1;" horiz-adv-x="2048" d="M225 -74v1598l1598 -797z" />
<glyph unicode="&#xd2;" d="M102 608q0 101 71.5 173.5t172.5 72.5t173.5 -72.5t72.5 -173.5t-72 -172t-174 -71q-101 0 -172.5 71t-71.5 172z" />
<glyph unicode="&#xd3;" d="M102 608q0 101 71.5 173.5t172.5 72.5t173.5 -72.5t72.5 -173.5t-72 -172t-174 -71q-101 0 -172.5 71t-71.5 172z" />
<glyph unicode="&#xd4;" d="M102 608q0 101 71.5 173.5t172.5 72.5t173.5 -72.5t72.5 -173.5t-72 -172t-174 -71q-101 0 -172.5 71t-71.5 172z" />
<glyph unicode="&#xd5;" d="M102 608q0 101 71.5 173.5t172.5 72.5t173.5 -72.5t72.5 -173.5t-72 -172t-174 -71q-101 0 -172.5 71t-71.5 172z" />
<glyph unicode="&#xd6;" horiz-adv-x="2048" d="M225 -61l801 1597l797 -1597h-1598zM371 25h1308l-653 1312z" />
<glyph unicode="&#xd7;" d="M102 608q0 101 71.5 173.5t172.5 72.5t173.5 -72.5t72.5 -173.5t-72 -172t-174 -71q-101 0 -172.5 71t-71.5 172z" />
<glyph unicode="&#xd8;" d="M102 608q0 101 71.5 173.5t172.5 72.5t173.5 -72.5t72.5 -173.5t-72 -172t-174 -71q-101 0 -172.5 71t-71.5 172z" />
<glyph unicode="&#xd9;" d="M102 608q0 101 71.5 173.5t172.5 72.5t173.5 -72.5t72.5 -173.5t-72 -172t-174 -71q-101 0 -172.5 71t-71.5 172z" />
<glyph unicode="&#xda;" d="M102 608q0 101 71.5 173.5t172.5 72.5t173.5 -72.5t72.5 -173.5t-72 -172t-174 -71q-101 0 -172.5 71t-71.5 172z" />
<glyph unicode="&#xdb;" d="M102 608q0 101 71.5 173.5t172.5 72.5t173.5 -72.5t72.5 -173.5t-72 -172t-174 -71q-101 0 -172.5 71t-71.5 172z" />
<glyph unicode="&#xdc;" horiz-adv-x="2048" d="M225 1487h1598l-797 -1598zM367 1401l659 -1315l655 1315h-1314z" />
<glyph unicode="&#xdd;" d="M102 608q0 101 71.5 173.5t172.5 72.5t173.5 -72.5t72.5 -173.5t-72 -172t-174 -71q-101 0 -172.5 71t-71.5 172z" />
<glyph unicode="&#xde;" d="M102 608q0 101 71.5 173.5t172.5 72.5t173.5 -72.5t72.5 -173.5t-72 -172t-174 -71q-101 0 -172.5 71t-71.5 172z" />
<glyph unicode="&#xdf;" d="M102 608q0 101 71.5 173.5t172.5 72.5t173.5 -72.5t72.5 -173.5t-72 -172t-174 -71q-101 0 -172.5 71t-71.5 172z" />
<glyph unicode="&#xe0;" horiz-adv-x="2048" d="M225 727l1598 797v-1598zM416 727l1321 -661v1318z" />
<glyph unicode="&#xe1;" horiz-adv-x="2048" d="M225 -74v1598l1598 -801zM311 61l1323 662l-1323 666v-1328z" />
<glyph unicode="&#xe2;" horiz-adv-x="1773" d="M205 0v160h1364v-160h-1364zM205 369v161h1364v-161h-1364zM428 692l385 758h158l368 -758h-198l-254 533l-262 -533h-197z" />
<glyph unicode="&#xe3;" horiz-adv-x="1179" d="M158 -74v1598l1118 -797z" />
<glyph unicode="&#xe4;" d="M102 608q0 101 71.5 173.5t172.5 72.5t173.5 -72.5t72.5 -173.5t-72 -172t-174 -71q-101 0 -172.5 71t-71.5 172z" />
<glyph unicode="&#xe5;" d="M102 608q0 101 71.5 173.5t172.5 72.5t173.5 -72.5t72.5 -173.5t-72 -172t-174 -71q-101 0 -172.5 71t-71.5 172z" />
<glyph unicode="&#xe6;" d="M102 608q0 101 71.5 173.5t172.5 72.5t173.5 -72.5t72.5 -173.5t-72 -172t-174 -71q-101 0 -172.5 71t-71.5 172z" />
<glyph unicode="&#xe7;" d="M102 608q0 101 71.5 173.5t172.5 72.5t173.5 -72.5t72.5 -173.5t-72 -172t-174 -71q-101 0 -172.5 71t-71.5 172z" />
<glyph unicode="&#xe8;" d="M102 608q0 101 71.5 173.5t172.5 72.5t173.5 -72.5t72.5 -173.5t-72 -172t-174 -71q-101 0 -172.5 71t-71.5 172z" />
<glyph unicode="&#xe9;" d="M102 608q0 101 71.5 173.5t172.5 72.5t173.5 -72.5t72.5 -173.5t-72 -172t-174 -71q-101 0 -172.5 71t-71.5 172z" />
<glyph unicode="&#xea;" d="M102 608q0 101 71.5 173.5t172.5 72.5t173.5 -72.5t72.5 -173.5t-72 -172t-174 -71q-101 0 -172.5 71t-71.5 172z" />
<glyph unicode="&#xeb;" d="M102 608q0 101 71.5 173.5t172.5 72.5t173.5 -72.5t72.5 -173.5t-72 -172t-174 -71q-101 0 -172.5 71t-71.5 172z" />
<glyph unicode="&#xec;" d="M102 608q0 101 71.5 173.5t172.5 72.5t173.5 -72.5t72.5 -173.5t-72 -172t-174 -71q-101 0 -172.5 71t-71.5 172z" />
<glyph unicode="&#xed;" d="M102 608q0 101 71.5 173.5t172.5 72.5t173.5 -72.5t72.5 -173.5t-72 -172t-174 -71q-101 0 -172.5 71t-71.5 172z" />
<glyph unicode="&#xee;" d="M102 608q0 101 71.5 173.5t172.5 72.5t173.5 -72.5t72.5 -173.5t-72 -172t-174 -71q-101 0 -172.5 71t-71.5 172z" />
<glyph unicode="&#xef;" d="M102 608q0 101 71.5 173.5t172.5 72.5t173.5 -72.5t72.5 -173.5t-72 -172t-174 -71q-101 0 -172.5 71t-71.5 172z" />
<glyph unicode="&#xf0;" d="M102 608q0 101 71.5 173.5t172.5 72.5t173.5 -72.5t72.5 -173.5t-72 -172t-174 -71q-101 0 -172.5 71t-71.5 172z" />
<glyph unicode="&#xf1;" d="M102 608q0 101 71.5 173.5t172.5 72.5t173.5 -72.5t72.5 -173.5t-72 -172t-174 -71q-101 0 -172.5 71t-71.5 172z" />
<glyph unicode="&#xf2;" d="M102 608q0 101 71.5 173.5t172.5 72.5t173.5 -72.5t72.5 -173.5t-72 -172t-174 -71q-101 0 -172.5 71t-71.5 172z" />
<glyph unicode="&#xf3;" d="M102 608q0 101 71.5 173.5t172.5 72.5t173.5 -72.5t72.5 -173.5t-72 -172t-174 -71q-101 0 -172.5 71t-71.5 172z" />
<glyph unicode="&#xf4;" d="M102 608q0 101 71.5 173.5t172.5 72.5t173.5 -72.5t72.5 -173.5t-72 -172t-174 -71q-101 0 -172.5 71t-71.5 172z" />
<glyph unicode="&#xf5;" d="M102 608q0 101 71.5 173.5t172.5 72.5t173.5 -72.5t72.5 -173.5t-72 -172t-174 -71q-101 0 -172.5 71t-71.5 172z" />
<glyph unicode="&#xf6;" d="M102 608q0 101 71.5 173.5t172.5 72.5t173.5 -72.5t72.5 -173.5t-72 -172t-174 -71q-101 0 -172.5 71t-71.5 172z" />
<glyph unicode="&#xf7;" d="M102 608q0 101 71.5 173.5t172.5 72.5t173.5 -72.5t72.5 -173.5t-72 -172t-174 -71q-101 0 -172.5 71t-71.5 172z" />
<glyph unicode="&#xf8;" d="M102 608q0 101 71.5 173.5t172.5 72.5t173.5 -72.5t72.5 -173.5t-72 -172t-174 -71q-101 0 -172.5 71t-71.5 172z" />
<glyph unicode="&#xf9;" d="M102 608q0 101 71.5 173.5t172.5 72.5t173.5 -72.5t72.5 -173.5t-72 -172t-174 -71q-101 0 -172.5 71t-71.5 172z" />
<glyph unicode="&#xfa;" d="M102 608q0 101 71.5 173.5t172.5 72.5t173.5 -72.5t72.5 -173.5t-72 -172t-174 -71q-101 0 -172.5 71t-71.5 172z" />
<glyph unicode="&#xfb;" d="M102 608q0 101 71.5 173.5t172.5 72.5t173.5 -72.5t72.5 -173.5t-72 -172t-174 -71q-101 0 -172.5 71t-71.5 172z" />
<glyph unicode="&#xfc;" d="M102 608q0 101 71.5 173.5t172.5 72.5t173.5 -72.5t72.5 -173.5t-72 -172t-174 -71q-101 0 -172.5 71t-71.5 172z" />
<glyph unicode="&#xfd;" d="M102 608q0 101 71.5 173.5t172.5 72.5t173.5 -72.5t72.5 -173.5t-72 -172t-174 -71q-101 0 -172.5 71t-71.5 172z" />
<glyph unicode="&#xfe;" d="M102 608q0 101 71.5 173.5t172.5 72.5t173.5 -72.5t72.5 -173.5t-72 -172t-174 -71q-101 0 -172.5 71t-71.5 172z" />
<glyph unicode="&#xff;" d="M102 608q0 101 71.5 173.5t172.5 72.5t173.5 -72.5t72.5 -173.5t-72 -172t-174 -71q-101 0 -172.5 71t-71.5 172z" />
<glyph unicode="&#x152;" d="M102 608q0 101 71.5 173.5t172.5 72.5t173.5 -72.5t72.5 -173.5t-72 -172t-174 -71q-101 0 -172.5 71t-71.5 172z" />
<glyph unicode="&#x153;" d="M102 608q0 101 71.5 173.5t172.5 72.5t173.5 -72.5t72.5 -173.5t-72 -172t-174 -71q-101 0 -172.5 71t-71.5 172z" />
<glyph unicode="&#x178;" d="M102 608q0 101 71.5 173.5t172.5 72.5t173.5 -72.5t72.5 -173.5t-72 -172t-174 -71q-101 0 -172.5 71t-71.5 172z" />
<glyph unicode="&#x2c6;" d="M102 608q0 101 71.5 173.5t172.5 72.5t173.5 -72.5t72.5 -173.5t-72 -172t-174 -71q-101 0 -172.5 71t-71.5 172z" />
<glyph unicode="&#x2dc;" d="M102 608q0 101 71.5 173.5t172.5 72.5t173.5 -72.5t72.5 -173.5t-72 -172t-174 -71q-101 0 -172.5 71t-71.5 172z" />
<glyph unicode="&#x2000;" horiz-adv-x="925" />
<glyph unicode="&#x2001;" horiz-adv-x="1851" />
<glyph unicode="&#x2002;" horiz-adv-x="925" />
<glyph unicode="&#x2003;" horiz-adv-x="1851" />
<glyph unicode="&#x2004;" horiz-adv-x="617" />
<glyph unicode="&#x2005;" horiz-adv-x="462" />
<glyph unicode="&#x2006;" horiz-adv-x="308" />
<glyph unicode="&#x2007;" horiz-adv-x="308" />
<glyph unicode="&#x2008;" horiz-adv-x="231" />
<glyph unicode="&#x2009;" horiz-adv-x="370" />
<glyph unicode="&#x200a;" horiz-adv-x="102" />
<glyph unicode="&#x2010;" horiz-adv-x="1368" d="M51 0l320 1450h946l-320 -1450h-946zM143 330h906l241 1100h-903zM184 475l37 35q15 12 86 57t107 80h-72l-25 -24l-12 22l39 39q15 10 39 10h66q31 40 63 72q-3 0 -8.5 -1t-9.5 -1q-26 0 -65.5 19.5t-63.5 19.5q-33 0 -76 -29l-6 10l34 35q42 31 82 31q27 0 66.5 -19.5 t64.5 -19.5q17 0 47 9.5t37 10.5l19 5l-49 -50q-36 -7 -60 -29.5t-51 -62.5q25 0 59 -6l35 35l-12 -47l-37 -37q-41 5 -86 8q-62 -65 -133 -110l27 4q42 0 97 -36t93 -36q12 0 25 3t19.5 5.5t22.5 10.5t21 10l6 -11l-37 -36q-9 -3 -28 -12t-33.5 -13t-32.5 -4q-41 0 -96 36 t-92 36q-10 0 -43.5 -8t-54.5 -21zM195 76h8q0 8 6 8q2 0 15 -4t28 -4q31 0 46 15.5t15 35.5q0 34 -28 45l-35 18q-16 8 -21.5 13.5t-5.5 15.5q0 11 8.5 17t18.5 6q20 0 32.5 -14t16.5 -31h6v53h-6q-4 -8 -8 -8q-3 0 -16 4t-23 4q-31 0 -43 -15.5t-12 -33.5q0 -30 43 -51 l16 -9q27 -13 27 -30q0 -4 -1 -8.5t-8.5 -11.5t-21.5 -7q-41 0 -49 51h-8v-59zM330 80h143l6 59h-6q-6 -25 -19 -36t-27 -13t-48 -2l94 154v4h-131l-4 -49h6q16 33 31 36q10 5 49 5l-94 -154v-4zM379 1311q7 30 14 45l53 53q-10 -26 -16 -51q35 -2 89.5 -6.5t97.5 -6.5 t92 -2q60 0 116 11q-3 -6 -10 -18.5t-10 -18.5l-37 -37l-8 8q1 3 2.5 5.5t3 5.5t2.5 4q-39 -7 -94 -7q-53 0 -80 2l-47 -122h178q-33 -41 -68 -74l-8 8l15 18h-134q-26 -66 -45 -139l-51 -53q6 31 15 62t14 45.5t18.5 47.5t14.5 37h-7l11 11l49 131l29 28q-20 1 -90.5 6.5 t-108.5 6.5zM553 80h104l11 51h-6q-5 -12 -10 -15t-25 -3h-37l39 37q28 28 28 53q0 26 -15 36.5t-30 10.5q-33 0 -55 -51h6q11 22 31 22q29 0 29 -31q0 -15 -10.5 -33t-22 -30.5t-37.5 -40.5v-6zM645 733l8 27l56 53q-8 -25 -13 -31l-2 -6l-2 -8q0 -6 13 -6l36 6h101h6v-6 q0 -2 1 -7t1 -7q0 -15 -15 -31t-18 -23q-8 -21 -30.5 -65t-33 -76.5t-10.5 -71.5v-12h21q18 0 24 4l203 227l6 13l58 55l-11 -27q-14 -37 -42 -94t-47.5 -106t-28.5 -101q10 2 24 11l6 -11l-34 -37q-21 -9 -48 -12q8 46 22.5 89.5t24.5 65.5t40 81l-183 -185 q-20 -20 -49 -20h-33v22q0 32 9 64.5t19.5 55.5t35.5 72.5t41 84.5h-94q-4 0 -16 -2.5t-21 -3.5t-17 3t-8 15zM688 217q4 1 9 2.5t8 2.5t4 1q10 0 10 -18v-94q0 -10 -1 -14t-7.5 -7.5t-20.5 -3.5v-6h92v6q-17 0 -21.5 5t-4.5 18v141h-4l-64 -27v-6zM803 162q0 -37 16 -61.5 t39 -24.5q25 0 40 25t15 61q0 42 -16.5 65t-38.5 23q-21 0 -38 -23t-17 -65zM827 1305q0 5 1.5 9.5t3.5 7.5t5.5 8t4.5 7l37 37l8 -8q-2 -4 -10 -12q-3 -6 -3 -13q0 -20 29 -20q36 0 138.5 10t197.5 10l18 -10q-10 -24 -51 -61l-8 6q10 15 2 18l-115 -2q-9 -23 -23.5 -65.5 t-28.5 -75.5t-32 -64q-1 -3 -22 -30.5t-21 -48.5q0 -3 1.5 -6.5t5.5 -7.5l6 -6t7.5 -6t6.5 -5l-43 -43q-31 22 -31 39q0 18 7.5 34t23 37t19.5 29q16 27 27 54.5t23.5 63.5t20.5 56l45 45q-3 0 -37 -4.5t-83 -9t-89 -4.5q-41 0 -41 31zM842 135v55q0 52 16 52t16 -52v-55 q0 -27 -4 -39q0 -12 -12 -12q-16 0 -16 51zM895 745q3 14 5.5 21.5t4 13.5t6.5 11.5t7.5 8.5t12.5 12.5t17 16.5q9 9 23 9q31 0 162 -19l-46 -45q-18 2 -46.5 6.5t-52.5 7.5t-48 3z" />
<glyph unicode="&#x2011;" horiz-adv-x="1368" d="M51 0l320 1450h946l-320 -1450h-946zM143 330h906l241 1100h-903zM184 475l37 35q15 12 86 57t107 80h-72l-25 -24l-12 22l39 39q15 10 39 10h66q31 40 63 72q-3 0 -8.5 -1t-9.5 -1q-26 0 -65.5 19.5t-63.5 19.5q-33 0 -76 -29l-6 10l34 35q42 31 82 31q27 0 66.5 -19.5 t64.5 -19.5q17 0 47 9.5t37 10.5l19 5l-49 -50q-36 -7 -60 -29.5t-51 -62.5q25 0 59 -6l35 35l-12 -47l-37 -37q-41 5 -86 8q-62 -65 -133 -110l27 4q42 0 97 -36t93 -36q12 0 25 3t19.5 5.5t22.5 10.5t21 10l6 -11l-37 -36q-9 -3 -28 -12t-33.5 -13t-32.5 -4q-41 0 -96 36 t-92 36q-10 0 -43.5 -8t-54.5 -21zM195 76h8q0 8 6 8q2 0 15 -4t28 -4q31 0 46 15.5t15 35.5q0 34 -28 45l-35 18q-16 8 -21.5 13.5t-5.5 15.5q0 11 8.5 17t18.5 6q20 0 32.5 -14t16.5 -31h6v53h-6q-4 -8 -8 -8q-3 0 -16 4t-23 4q-31 0 -43 -15.5t-12 -33.5q0 -30 43 -51 l16 -9q27 -13 27 -30q0 -4 -1 -8.5t-8.5 -11.5t-21.5 -7q-41 0 -49 51h-8v-59zM330 80h143l6 59h-6q-6 -25 -19 -36t-27 -13t-48 -2l94 154v4h-131l-4 -49h6q16 33 31 36q10 5 49 5l-94 -154v-4zM379 1311q7 30 14 45l53 53q-10 -26 -16 -51q35 -2 89.5 -6.5t97.5 -6.5 t92 -2q60 0 116 11q-3 -6 -10 -18.5t-10 -18.5l-37 -37l-8 8q1 3 2.5 5.5t3 5.5t2.5 4q-39 -7 -94 -7q-53 0 -80 2l-47 -122h178q-33 -41 -68 -74l-8 8l15 18h-134q-26 -66 -45 -139l-51 -53q6 31 15 62t14 45.5t18.5 47.5t14.5 37h-7l11 11l49 131l29 28q-20 1 -90.5 6.5 t-108.5 6.5zM553 80h104l11 51h-6q-5 -12 -10 -15t-25 -3h-37l39 37q28 28 28 53q0 26 -15 36.5t-30 10.5q-33 0 -55 -51h6q11 22 31 22q29 0 29 -31q0 -15 -10.5 -33t-22 -30.5t-37.5 -40.5v-6zM645 733l8 27l56 53q-8 -25 -13 -31l-2 -6l-2 -8q0 -6 13 -6l36 6h101h6v-6 q0 -2 1 -7t1 -7q0 -15 -15 -31t-18 -23q-8 -21 -30.5 -65t-33 -76.5t-10.5 -71.5v-12h21q18 0 24 4l203 227l6 13l58 55l-11 -27q-14 -37 -42 -94t-47.5 -106t-28.5 -101q10 2 24 11l6 -11l-34 -37q-21 -9 -48 -12q8 46 22.5 89.5t24.5 65.5t40 81l-183 -185 q-20 -20 -49 -20h-33v22q0 32 9 64.5t19.5 55.5t35.5 72.5t41 84.5h-94q-4 0 -16 -2.5t-21 -3.5t-17 3t-8 15zM688 217q4 1 9 2.5t8 2.5t4 1q10 0 10 -18v-94q0 -10 -1 -14t-7.5 -7.5t-20.5 -3.5v-6h92v6q-17 0 -21.5 5t-4.5 18v141h-4l-64 -27v-6zM803 162q0 -37 16 -61.5 t39 -24.5q25 0 40 25t15 61q0 42 -16.5 65t-38.5 23q-21 0 -38 -23t-17 -65zM827 1305q0 5 1.5 9.5t3.5 7.5t5.5 8t4.5 7l37 37l8 -8q-2 -4 -10 -12q-3 -6 -3 -13q0 -20 29 -20q36 0 138.5 10t197.5 10l18 -10q-10 -24 -51 -61l-8 6q10 15 2 18l-115 -2q-9 -23 -23.5 -65.5 t-28.5 -75.5t-32 -64q-1 -3 -22 -30.5t-21 -48.5q0 -3 1.5 -6.5t5.5 -7.5l6 -6t7.5 -6t6.5 -5l-43 -43q-31 22 -31 39q0 18 7.5 34t23 37t19.5 29q16 27 27 54.5t23.5 63.5t20.5 56l45 45q-3 0 -37 -4.5t-83 -9t-89 -4.5q-41 0 -41 31zM842 135v55q0 52 16 52t16 -52v-55 q0 -27 -4 -39q0 -12 -12 -12q-16 0 -16 51zM895 745q3 14 5.5 21.5t4 13.5t6.5 11.5t7.5 8.5t12.5 12.5t17 16.5q9 9 23 9q31 0 162 -19l-46 -45q-18 2 -46.5 6.5t-52.5 7.5t-48 3z" />
<glyph unicode="&#x2012;" horiz-adv-x="1368" d="M51 0l320 1450h946l-320 -1450h-946zM143 330h906l241 1100h-903zM184 475l37 35q15 12 86 57t107 80h-72l-25 -24l-12 22l39 39q15 10 39 10h66q31 40 63 72q-3 0 -8.5 -1t-9.5 -1q-26 0 -65.5 19.5t-63.5 19.5q-33 0 -76 -29l-6 10l34 35q42 31 82 31q27 0 66.5 -19.5 t64.5 -19.5q17 0 47 9.5t37 10.5l19 5l-49 -50q-36 -7 -60 -29.5t-51 -62.5q25 0 59 -6l35 35l-12 -47l-37 -37q-41 5 -86 8q-62 -65 -133 -110l27 4q42 0 97 -36t93 -36q12 0 25 3t19.5 5.5t22.5 10.5t21 10l6 -11l-37 -36q-9 -3 -28 -12t-33.5 -13t-32.5 -4q-41 0 -96 36 t-92 36q-10 0 -43.5 -8t-54.5 -21zM195 76h8q0 8 6 8q2 0 15 -4t28 -4q31 0 46 15.5t15 35.5q0 34 -28 45l-35 18q-16 8 -21.5 13.5t-5.5 15.5q0 11 8.5 17t18.5 6q20 0 32.5 -14t16.5 -31h6v53h-6q-4 -8 -8 -8q-3 0 -16 4t-23 4q-31 0 -43 -15.5t-12 -33.5q0 -30 43 -51 l16 -9q27 -13 27 -30q0 -4 -1 -8.5t-8.5 -11.5t-21.5 -7q-41 0 -49 51h-8v-59zM330 80h143l6 59h-6q-6 -25 -19 -36t-27 -13t-48 -2l94 154v4h-131l-4 -49h6q16 33 31 36q10 5 49 5l-94 -154v-4zM379 1311q7 30 14 45l53 53q-10 -26 -16 -51q35 -2 89.5 -6.5t97.5 -6.5 t92 -2q60 0 116 11q-3 -6 -10 -18.5t-10 -18.5l-37 -37l-8 8q1 3 2.5 5.5t3 5.5t2.5 4q-39 -7 -94 -7q-53 0 -80 2l-47 -122h178q-33 -41 -68 -74l-8 8l15 18h-134q-26 -66 -45 -139l-51 -53q6 31 15 62t14 45.5t18.5 47.5t14.5 37h-7l11 11l49 131l29 28q-20 1 -90.5 6.5 t-108.5 6.5zM553 80h104l11 51h-6q-5 -12 -10 -15t-25 -3h-37l39 37q28 28 28 53q0 26 -15 36.5t-30 10.5q-33 0 -55 -51h6q11 22 31 22q29 0 29 -31q0 -15 -10.5 -33t-22 -30.5t-37.5 -40.5v-6zM645 733l8 27l56 53q-8 -25 -13 -31l-2 -6l-2 -8q0 -6 13 -6l36 6h101h6v-6 q0 -2 1 -7t1 -7q0 -15 -15 -31t-18 -23q-8 -21 -30.5 -65t-33 -76.5t-10.5 -71.5v-12h21q18 0 24 4l203 227l6 13l58 55l-11 -27q-14 -37 -42 -94t-47.5 -106t-28.5 -101q10 2 24 11l6 -11l-34 -37q-21 -9 -48 -12q8 46 22.5 89.5t24.5 65.5t40 81l-183 -185 q-20 -20 -49 -20h-33v22q0 32 9 64.5t19.5 55.5t35.5 72.5t41 84.5h-94q-4 0 -16 -2.5t-21 -3.5t-17 3t-8 15zM688 217q4 1 9 2.5t8 2.5t4 1q10 0 10 -18v-94q0 -10 -1 -14t-7.5 -7.5t-20.5 -3.5v-6h92v6q-17 0 -21.5 5t-4.5 18v141h-4l-64 -27v-6zM803 162q0 -37 16 -61.5 t39 -24.5q25 0 40 25t15 61q0 42 -16.5 65t-38.5 23q-21 0 -38 -23t-17 -65zM827 1305q0 5 1.5 9.5t3.5 7.5t5.5 8t4.5 7l37 37l8 -8q-2 -4 -10 -12q-3 -6 -3 -13q0 -20 29 -20q36 0 138.5 10t197.5 10l18 -10q-10 -24 -51 -61l-8 6q10 15 2 18l-115 -2q-9 -23 -23.5 -65.5 t-28.5 -75.5t-32 -64q-1 -3 -22 -30.5t-21 -48.5q0 -3 1.5 -6.5t5.5 -7.5l6 -6t7.5 -6t6.5 -5l-43 -43q-31 22 -31 39q0 18 7.5 34t23 37t19.5 29q16 27 27 54.5t23.5 63.5t20.5 56l45 45q-3 0 -37 -4.5t-83 -9t-89 -4.5q-41 0 -41 31zM842 135v55q0 52 16 52t16 -52v-55 q0 -27 -4 -39q0 -12 -12 -12q-16 0 -16 51zM895 745q3 14 5.5 21.5t4 13.5t6.5 11.5t7.5 8.5t12.5 12.5t17 16.5q9 9 23 9q31 0 162 -19l-46 -45q-18 2 -46.5 6.5t-52.5 7.5t-48 3z" />
<glyph unicode="&#x2013;" d="M102 608q0 101 71.5 173.5t172.5 72.5t173.5 -72.5t72.5 -173.5t-72 -172t-174 -71q-101 0 -172.5 71t-71.5 172z" />
<glyph unicode="&#x2014;" d="M102 608q0 101 71.5 173.5t172.5 72.5t173.5 -72.5t72.5 -173.5t-72 -172t-174 -71q-101 0 -172.5 71t-71.5 172z" />
<glyph unicode="&#x2018;" d="M102 608q0 101 71.5 173.5t172.5 72.5t173.5 -72.5t72.5 -173.5t-72 -172t-174 -71q-101 0 -172.5 71t-71.5 172z" />
<glyph unicode="&#x2019;" d="M102 608q0 101 71.5 173.5t172.5 72.5t173.5 -72.5t72.5 -173.5t-72 -172t-174 -71q-101 0 -172.5 71t-71.5 172z" />
<glyph unicode="&#x201a;" d="M102 608q0 101 71.5 173.5t172.5 72.5t173.5 -72.5t72.5 -173.5t-72 -172t-174 -71q-101 0 -172.5 71t-71.5 172z" />
<glyph unicode="&#x201c;" d="M102 608q0 101 71.5 173.5t172.5 72.5t173.5 -72.5t72.5 -173.5t-72 -172t-174 -71q-101 0 -172.5 71t-71.5 172z" />
<glyph unicode="&#x201d;" d="M102 608q0 101 71.5 173.5t172.5 72.5t173.5 -72.5t72.5 -173.5t-72 -172t-174 -71q-101 0 -172.5 71t-71.5 172z" />
<glyph unicode="&#x201e;" d="M102 608q0 101 71.5 173.5t172.5 72.5t173.5 -72.5t72.5 -173.5t-72 -172t-174 -71q-101 0 -172.5 71t-71.5 172z" />
<glyph unicode="&#x2022;" d="M102 608q0 101 71.5 173.5t172.5 72.5t173.5 -72.5t72.5 -173.5t-72 -172t-174 -71q-101 0 -172.5 71t-71.5 172z" />
<glyph unicode="&#x2026;" d="M102 608q0 101 71.5 173.5t172.5 72.5t173.5 -72.5t72.5 -173.5t-72 -172t-174 -71q-101 0 -172.5 71t-71.5 172z" />
<glyph unicode="&#x202f;" horiz-adv-x="370" />
<glyph unicode="&#x2039;" d="M102 608q0 101 71.5 173.5t172.5 72.5t173.5 -72.5t72.5 -173.5t-72 -172t-174 -71q-101 0 -172.5 71t-71.5 172z" />
<glyph unicode="&#x203a;" d="M102 608q0 101 71.5 173.5t172.5 72.5t173.5 -72.5t72.5 -173.5t-72 -172t-174 -71q-101 0 -172.5 71t-71.5 172z" />
<glyph unicode="&#x205f;" horiz-adv-x="462" />
<glyph unicode="&#x20ac;" d="M102 608q0 101 71.5 173.5t172.5 72.5t173.5 -72.5t72.5 -173.5t-72 -172t-174 -71q-101 0 -172.5 71t-71.5 172z" />
<glyph unicode="&#x2122;" d="M102 608q0 101 71.5 173.5t172.5 72.5t173.5 -72.5t72.5 -173.5t-72 -172t-174 -71q-101 0 -172.5 71t-71.5 172z" />
<glyph unicode="&#x25fc;" horiz-adv-x="1505" d="M0 0v1505h1505v-1505h-1505z" />
<glyph unicode="&#xfb01;" d="M102 608q0 101 71.5 173.5t172.5 72.5t173.5 -72.5t72.5 -173.5t-72 -172t-174 -71q-101 0 -172.5 71t-71.5 172z" />
<glyph unicode="&#xfb02;" d="M102 608q0 101 71.5 173.5t172.5 72.5t173.5 -72.5t72.5 -173.5t-72 -172t-174 -71q-101 0 -172.5 71t-71.5 172z" />
</font>
</defs>
</svg>
